<svg id="Layer_1" data-name="Layer 1" xmlns="http://www.w3.org/2000/svg" viewBox="0 0 1536 350"><defs><style>.cls-1{fill:none;}.cls-2{fill:#fff;}</style></defs><title>hex2Artboard 11x</title><path class="cls-1" d="M1090.15,206c-27.71,0-49.36-1.26-76.53-1.26-13.55,25.15-25.53,49.62-38.86,74.38,13.66,25.34,23.83,46,37.24,70.86h80c13.61-25.12,25.11-44.15,38.66-69.16Q1110.13,242.91,1090.15,206Z"/><path class="cls-2" d="M1097.16,187.29h-96.89q-24,44.63-48.18,89.38L991,350h21c-13.41-24.89-23.58-45.52-37.24-70.86,13.33-24.76,25.31-49.23,38.86-74.38,27.17,0,48.82,1.26,76.53,1.26q20,37,40.51,74.82c-13.55,25-25.05,44-38.66,69.16h20.49c12.84-24.25,25.25-48.34,38.42-72.81C1134.61,247.26,1113.39,217.1,1097.16,187.29Z"/><path d="M1292,350h-5a48.47,48.47,0,0,0-1.82-4.55q-15.78-30.61-31.63-61.21c-.76-1.47-1.43-3-2.18-4.54l48.88-93.23-3.23-.94-49.7,94.91c2.35,4.5,4.57,8.79,6.83,13.06q14.91,28.25,29.85,56.5h-3c-11.73-22.36-23.45-44.72-35-66.71h-95.45L1116,350h-6c.66-1.51,1.23-3.07,2-4.53q15.83-30.3,31.69-60.57c.84-1.6,1.59-3.25,2.39-4.92l-47.64-90.49h-94.78l-48.57,90.9L992,350h-5a19.69,19.69,0,0,0-1-2.76q-16-30.48-32.09-60.91c-.61-1.16-1.37-2.25-2-3.33h-95c-4.28,8.16-8.49,16.08-12.62,24Q833.08,328.51,822,350h-8c.66-1.51,1.23-3.07,2-4.53q15.68-30.09,31.4-60.17c.83-1.59,1.56-3.23,2.29-4.75l-47.6-90.28H707.17Q683.4,235.6,659.7,280.76c7,13.45,13.83,26.58,20.7,39.69,5.17,9.86,10.4,19.7,15.6,29.55h-6a36.07,36.07,0,0,0-1.56-4.1q-13.28-25.44-26.64-50.82c-2-3.82-4-7.62-6.16-11.62H560.31c-.53.88-1,1.56-1.39,2.29q-16,30.5-31.9,61a18.14,18.14,0,0,0-1,3.23h-7a41.36,41.36,0,0,1,1.72-4.55q15.39-29.4,30.85-58.77c1-1.9,1.95-3.82,3-6L509,193.54H410.05l-45.52,87.18L401,350h-4l-32.55-62.45H269.52c-.62,1-1.18,1.83-1.64,2.71Q253,318.51,238.17,346.78A23.28,23.28,0,0,0,237,350h-2l33.21-63.92h-2.29c-1.15,2.52-2.15,5-3.36,7.29Q247.82,321.71,233,350h-2c.54-1.2,1-2.44,1.63-3.61q14-26.77,28-53.53c.92-1.75,1.78-3.53,2.68-5.33q-24-45.81-47.73-91.25h-96L72,287.35c.92,1.79,1.74,3.42,2.58,5q13.77,26.3,27.53,52.61a47,47,0,0,1,1.93,5h-2Q87.39,322,72.76,294c-1.06-2-2.2-4-3.33-6.12-1.48-.08-2.79-.22-4.11-.22q-30.93,0-61.87.07c-1.15,0-2.3.21-3.45.32v-3H67.54L73,277l-1.25,5.77c1.16-1.62,1.69-2.2,2-2.86Q83.77,261,93.66,242.07a9.11,9.11,0,0,0,.53-1.89,12.85,12.85,0,0,0,1.5-1.91q9.39-17.88,18.71-35.79a10,10,0,0,0,.58-2.13,5.21,5.21,0,0,0-2.09,2.26q-9.06,17.2-18.07,34.45a23.35,23.35,0,0,0-1,2.76c-.89,1.36-1.88,2.66-2.64,4.09-5.1,9.63-10.12,19.31-15.24,28.93a41.29,41.29,0,0,1-3,4.27,53.28,53.28,0,0,1,2-5Q94,235.39,113.18,198.7c.84-1.61,1.64-3.24,2.52-5l-48-91.52H61.89q-22.22,0-44.43,0c-5.82,0-11.64-.13-17.46-.2V99H67.91L115.8,7.6,112,0h4l2.08,3.84h97.18L217,0h4l-2.55,5.17c16,30.29,31.87,60.23,47.76,90.24,32-1.18,63.5,1.92,95.19.39L408.76,5.35,407,0h5l1.18,2.59c31.94,1.63,63.33,1,94.52.7L509,0h5c-.52,1.71-1,3.42-1.64,5.33Q535.42,49,558.56,93H654c.76-1.36,1.52-2.64,2.21-3.95q7.69-14.57,15.38-29.13Q685.85,32.7,700.06,5.49C701,3.78,702.45,2.13,701,0H807a32,32,0,0,0,1.5,4.11q21.76,41.57,43.61,83.07a31.81,31.81,0,0,0,1.75,2.74H949c.82-1.49,1.55-2.79,2.25-4.11q13-24.74,26-49.49C983.5,24.23,989.73,12.11,996,0h2c-2.23,4.61-4.35,9.29-6.72,13.83q-19.17,36.74-38.44,73.42c-.69,1.32-2.07,2.56-.88,5.31,1.44-2.39,2.6-4.1,3.56-5.93Q978.28,43.33,1001,0h102c.55,1.36,1,2.79,1.66,4.09q20.53,39.06,41.14,78.09c1.23,2.33,2.52,4.63,3.75,6.88h95.94c3.46-6.57,6.8-12.88,10.1-19.21L1292,0h2q-2,4.8-4,9.61l.7.31L1296,0h3c-.92,1.57-1.91,3.11-2.76,4.72q-21.66,41.34-43.3,82.7c-.76,1.45-1.43,2.94-2.19,4.51q24,45.63,48,91c16.24,0,32,.14,47.87,0s31.86,1.66,47.91.42l47.87-91.58L1394,0h3a41.45,41.45,0,0,0,1.6,4.1q21.08,40.49,42.19,80.93c1.15,2.2,2.25,4.42,3.45,6.77l-48.65,92.63,5.86,2.65a27.66,27.66,0,0,0,1.46,4.16c1.32,2.48,3,4.76,4.3,7.26,2.3,4.51,4.28,9.19,6.64,13.67,3.14,6,6.57,11.76,9.77,17.69.77,1.43,1,3.19,1.72,4.62,2.66,4.91,5.51,9.71,8.16,14.62,1.17,2.16,1.88,4.55,3,6.72,3.41,6.39,6.94,12.71,10.43,19.06l1.2,3a56.43,56.43,0,0,1,6.66-.82q40.58-.07,81.17,0v2c-1.83.05-3.66.13-5.49.13l-72.92,0h-5.9c-1.52,2.93-2.83,5.43-4.12,7.93L1415,350h-7q12.7-24,25.42-48.11c3.87-7.35,7.71-14.72,11.61-22.15l-47.52-90.58h-95.35q-23.67,45.15-47.43,90.46ZM1248,90c-1.85,1.82-4.19,1.64-6.51,1.64-14.14,0-28.29.09-42.44.05-15.31-.05-30.62-.21-45.93-.28a29.82,29.82,0,0,0-3.63.39l.08.84H1248V90c1.24-1.86,2.61-3.64,3.68-5.58,2-3.53,3.72-7.15,5.57-10.74C1254.16,76.49,1249.17,86,1248,90ZM1098.89,183q23.91-45.82,47.53-91L1098.37,1.14h-95.29L955.38,92l47.56,91ZM407.8,192c-15.9-30.12-31.73-60.11-47.75-90.44H264.33l-47.66,91,47.91,91.1h95Zm401.73-6.45,46.88,91.11h95.68l47.49-90.94q-24-45.37-47.81-90.49h-95Q833.19,140.33,809.53,185.56Zm-691.92,6.23h96l47.76-91.13L213.41,9.4H117.84l-48,91.22Zm1033.3,85.4c31.8-.21,63.37,1.59,95,.68,15.92-30.39,31.75-60.57,47.64-90.89L1245.7,96.66h-94.88C1134.94,127,1119.22,157,1103.51,187ZM850,93.91l-48-91H706.62c-1,1.84-1.85,3.43-2.67,5.05-7.47,14.84-14.83,29.73-22.41,44.52C675.24,64.78,668.7,77,662.28,89.17c-.83,1.6-1.57,3.24-2.34,4.83l47.28,90.19,94.89,1C818.18,154.55,834,124.37,850,93.91ZM559.13,280.65h95.38q24.07-45.79,47.94-91.16L654.39,98.36H559.14l-47.67,91.17C527.44,220.05,543.24,250.27,559.13,280.65ZM508.44,187l46-87.56L507,8.69H411.91L364.49,99.37,410.15,187Zm346.68,92q-25.2-47.17-50-93.69c-.16.28-.54,1-.92,1.67l49.32,94.56ZM561.22,95.16v.75h95.34c-.18-.24-.38-.72-.57-.72Q608.61,95.15,561.22,95.16Zm442.89,90.15-.1.42h94.82v-.42ZM342.48,98.57v-.11H314.25v.11ZM1267.7,51.23l1.11.53c3.2-6,6.59-12,9.39-18.2l-1-.5Zm20.39-36.51c-4.42,5-8.22,12.8-8.81,17.22,2.64-5.07,4.79-9.17,6.92-13.29C1286.86,17.36,1287.46,16,1288.09,14.72Zm-30.33,55.47c4.47-4.8,8.36-12.75,9-17.07C1263.41,59.42,1260.58,64.8,1257.76,70.19ZM216.76,8.05l-1,.77q3.72,7,7.42,14l.95-.5Zm14.12,27.19-.95.48,4.28,8,.81-.42Z"/><path d="M797,350H720l-34.43-65.57,36.28-69.17h72.92L831,284.32c-.89,1.77-1.7,3.41-2.54,5l-29.86,57C798,347.55,797.52,348.79,797,350Z"/><path class="cls-2" d="M1394,0l48.39,91.77-47.87,91.58c-16,1.24-32-.6-47.91-.42s-31.63,0-47.87,0q-24-45.51-48-91c.76-1.57,1.43-3.06,2.19-4.51q21.63-41.37,43.3-82.7c.85-1.61,1.84-3.15,2.76-4.72Zm-7.69,171.77,40-75.8q-20.13-38.73-39.59-76.21c-7.09-1-77.31-.79-80.39,0-1.57,3.39-2.88,6.57-4.47,9.6q-16.59,31.6-33.27,63.16c-.61,1.16-1.11,2.38-1.75,3.73q19.82,37.83,39.55,75.53Z"/><path d="M244,0H389a38,38,0,0,1-1.89,5.54q-12.63,24.35-25.39,48.62c-2.93,5.57-5.91,11.12-8.87,16.7H280.39a8.2,8.2,0,0,1-1.05-1.26Q262.18,36.95,245.09,4.24A18.85,18.85,0,0,1,244,0Z"/><path class="cls-2" d="M696,350c-5.2-9.85-10.43-19.69-15.6-29.55-6.87-13.11-13.69-26.24-20.7-39.69q23.68-45.16,47.47-90.49h94.91l47.6,90.28c-.73,1.52-1.46,3.16-2.29,4.75Q831.7,315.39,816,345.47c-.76,1.46-1.33,3-2,4.53H803c.49-1.05.93-2.13,1.47-3.15q13.92-26.5,27.86-53c1.62-3.07,3.23-6.15,4.9-9.34l-40-76.11H716.77l-40.08,76.22c2.78,4.62,5.71,9,8.18,13.7C694,315.5,703,332.76,712,350Z"/><path class="cls-2" d="M1292,350l-37.27-70.38q23.73-45.28,47.43-90.46h95.35L1445,279.74c-3.9,7.43-7.74,14.8-11.61,22.15Q1420.72,326,1408,350h-15q17.85-34,35.78-68.15L1389,205.47h-80.09c-1.43,3.14-2.58,6-4,8.79q-11.85,22.53-23.8,45c-4,7.48-7.88,15-11.83,22.51.59,1.2,1.08,2.25,1.61,3.28q11.07,21.24,22.17,42.48c3.94,7.51,8,15,12,22.46Z"/><path class="cls-2" d="M104,350a47,47,0,0,0-1.93-5q-13.72-26.33-27.53-52.61c-.84-1.62-1.66-3.25-2.58-5l47.67-91.07h96q23.82,45.54,47.73,91.25c-.9,1.8-1.76,3.58-2.68,5.33q-14,26.77-28,53.53c-.61,1.17-1.09,2.41-1.63,3.61H215l31.9-60L207,213.16H125.54L85.49,289.83c1.13,2.28,1.91,3.93,2.75,5.55q13,25,26,50.07A41.46,41.46,0,0,1,116,350Z"/><path class="cls-2" d="M1536,90v15c-8.33,0-16.65,0-25,.1-16.11.24-32.23.57-48.35.88a17.33,17.33,0,0,0-2,.35L1421,181.78,1460.91,258H1536v16c-14.64-.26-29.28-.6-43.93-.77-11.66-.14-23.33-.08-35-.11h-7.22L1401.91,182c16-30.59,31.86-60.93,47.76-91.35,1.72,0,3,0,4.37,0q34.74-.24,69.48-.48C1527.68,90.18,1531.84,90.07,1536,90Z"/><path class="cls-2" d="M401,350l-36.47-69.28,45.52-87.18H509l45.62,87.18c-1.08,2.14-2,4.06-3,6q-15.42,29.38-30.85,58.77A41.36,41.36,0,0,0,519,350H507c11.79-22.34,23.59-44.67,35.49-67.21q-20.09-38.46-40-76.54h-81.1q-19.91,38.33-39.66,76.31c.75,1.56,1.19,2.64,1.77,3.63,2.53,4.27,5.3,8.4,7.61,12.78,8.3,15.74,16.47,31.54,24.65,47.35A23.69,23.69,0,0,1,417,350Z"/><path class="cls-2" d="M73,277,67.54,285H0v-8H58.59q19.84-38.46,39.54-76.66C84.77,174.8,71.52,149.5,58.18,124H0V102c5.82.07,11.64.19,17.46.2q22.22,0,44.43,0h5.76l48.05,91.52c-.88,1.75-1.68,3.38-2.52,5Q94,235.4,74.91,272.11a53.28,53.28,0,0,0-2,5Z"/><path class="cls-2" d="M407,0l1.76,5.35L361.4,95.8c-31.69,1.53-63.21-1.57-95.19-.39-15.89-30-31.73-59.95-47.76-90.24L221,0h15c-1.22,1.84-.37,3.45.5,5.1Q254.8,40,273.12,74.89a39.76,39.76,0,0,0,2.34,3.59c3-.17,5.3-.42,7.6-.42q33.45.07,66.91.22h5.83L364,62.84q15-28.44,30-56.9c1-1.86,2.56-3.65,1-5.94Z"/><path class="cls-2" d="M1292,0l-36.41,69.85c-3.3,6.33-6.64,12.64-10.1,19.21h-95.94c-1.23-2.25-2.52-4.55-3.75-6.88q-20.6-39-41.14-78.09c-.68-1.3-1.11-2.73-1.66-4.09h16a21.8,21.8,0,0,0,1,2.76q17.42,33.15,34.87,66.27c.46.86,1.08,1.63,1.7,2.55h79.06c.64-1,1.32-2,1.86-3q17.12-32.46,34.19-64.94A26.61,26.61,0,0,0,1273,0Z"/><path class="cls-2" d="M701,0c1.45,2.13,0,3.78-.94,5.49Q685.84,32.7,671.58,59.88,663.93,74.46,656.2,89c-.69,1.31-1.45,2.59-2.21,3.95H558.56Q535.44,49.1,512.36,5.33C513,3.42,513.48,1.71,514,0h18c-1.43,2.06-.17,3.73.75,5.49Q550.84,40.21,568.92,75c.53,1,1.15,2,1.91,3.23h80c.77-1.34,1.54-2.61,2.23-3.92q10.51-19.83,21-39.69Q681.72,20,689.4,5.47c.92-1.74,2.28-3.44.6-5.47Z"/><path class="cls-2" d="M996,0c-6.27,12.11-12.5,24.23-18.81,36.32q-12.93,24.76-26,49.49c-.7,1.32-1.43,2.62-2.25,4.11H853.86a31.81,31.81,0,0,1-1.75-2.74Q830.27,45.66,808.5,4.11A32,32,0,0,1,807,0h17c13,24.88,26,49.76,38.89,74.42h80.16L982,0Z"/><path class="cls-2" d="M1116,350l34.56-66.71H1246c11.54,22,23.26,44.35,35,66.71h-15a24.89,24.89,0,0,0-1.25-3.68q-10.11-19.49-20.31-38.91c-.61-1.16-1.34-2.24-2.07-3.47l-80.38-.72c-1.13,2.07-2.1,3.62-2.84,5.26-2.58,5.71-4.9,11.53-7.65,17.15-4,8.2-8.32,16.25-12.5,24.37Z"/><path d="M964,350H848l21.23-40.82h73.16Z"/><path class="cls-2" d="M822,350q11.12-21.48,22.23-43c4.13-8,8.34-15.88,12.62-24h95c.66,1.08,1.42,2.17,2,3.33Q970,316.77,986,347.24a19.69,19.69,0,0,1,1,2.76H970l-25.24-48.43c-1.86-.12-3.17-.26-4.49-.27-19.63-.07-39.27-.21-58.9-.11-5.42,0-10.85.79-16.55,1.24-5.22,9.87-10.53,19.84-15.76,29.85C846,338.15,843,344.09,840,350Z"/><path class="cls-2" d="M237,350a23.28,23.28,0,0,1,1.17-3.22q14.82-28.27,29.71-56.52c.46-.88,1-1.7,1.64-2.71h94.93L397,350H381c-.61-1.52-1.11-3.09-1.86-4.54q-8.73-16.81-17.55-33.6c-1.53-2.92-3.12-5.82-4.72-8.8H276.36c-.53.83-1,1.49-1.4,2.21q-11.13,21.19-22.22,42.4A13.76,13.76,0,0,0,252,350Z"/><path class="cls-2" d="M526,350a18.14,18.14,0,0,1,1-3.23q15.91-30.52,31.9-61c.38-.73.86-1.41,1.39-2.29h95.33c2.12,4,4.16,7.8,6.16,11.62q13.34,25.4,26.64,50.82A36.07,36.07,0,0,1,690,350H678a22,22,0,0,0-1.11-3.23q-12.07-22.95-24.21-45.85c-.61-1.15-1.41-2.21-2.2-3.44h-80c-.74,1.19-1.52,2.26-2.13,3.42Q556.15,324.06,544,347.24a21.58,21.58,0,0,0-1,2.76Z"/><path class="cls-2" d="M1536,62V86h-89.09c-1.15-2.13-2.2-4-3.19-5.89q-19-36.26-38.07-72.51c-1.31-2.49-2.44-5.06-3.65-7.6h12l37.26,70.74h79.64Z"/><path class="cls-2" d="M1415,350l32.57-62.9c1.29-2.5,2.6-5,4.12-7.93h5.9l72.92,0c1.83,0,3.66-.08,5.49-.13v14c-22.46-.22-44.93-.47-67.39-.61a79.47,79.47,0,0,0-8.62.81c-.76,1.25-1.32,2.08-1.78,2.95q-13.59,25.55-27.14,51.09A24.23,24.23,0,0,0,1430,350Z"/><path class="cls-2" d="M112,0l3.8,7.6L67.91,99H0V90c1.16.09,2.31.27,3.47.26q26.21-.12,52.42-.3c1,0,2-.15,3.26-.26C72.53,64.35,85.92,39,99.24,13.71L92,0Z"/><path class="cls-2" d="M0,288c1.15-.11,2.3-.31,3.45-.32q30.95-.06,61.87-.07c1.32,0,2.63.14,4.11.22,1.13,2.08,2.27,4.08,3.33,6.12Q87.4,322,102,350H86L62.2,303.93c-1.85-.11-3.32-.27-4.8-.28-12.15-.12-24.3-.2-36.45-.32-7-.08-14-.22-20.95-.33Z"/><path d="M116,350a41.46,41.46,0,0,0-1.74-4.55q-13-25.06-26-50.07c-.84-1.62-1.62-3.27-2.75-5.55l40.05-76.67H207L246.9,290,215,350h-3c1.19-2.55,2.29-5.14,3.58-7.64q12.63-24.37,25.3-48.73c.61-1.18,1.14-2.39,1.87-3.94l-38.28-72.31h-76L90.41,289.82Q106.28,320,122,350Z"/><path class="cls-2" d="M797,350c.52-1.21,1-2.45,1.58-3.62l29.86-57c.84-1.62,1.65-3.26,2.54-5l-36.21-69.06H721.85l-36.28,69.17L720,350h-6c-9.27-17.67-18.59-35.32-27.76-53-2.11-4.08-3.7-8.44-5.5-12.6,12.83-24.52,25.55-48.8,38.27-73.11H795.7l38.37,73.25Q817,317.28,800,350Z"/><path d="M1402,0c1.21,2.54,2.34,5.11,3.65,7.6q19,36.27,38.07,72.51c1,1.89,2,3.76,3.19,5.89H1536v4c-4.16.07-8.32.18-12.48.21q-34.74.26-69.48.48c-1.33,0-2.65,0-4.37,0-15.9,30.42-31.76,60.76-47.76,91.35l47.95,91.08h7.22c11.66,0,23.33,0,35,.11,14.65.17,29.29.51,43.93.77v1c-1.15.1-2.31.27-3.46.29-12.47.22-24.94.49-37.41.59q-21.47.18-42.93.08a26.16,26.16,0,0,1-5.23-1.08c-3.49-6.35-7-12.67-10.43-19.06-1.16-2.17-1.87-4.56-3-6.72-2.65-4.91-5.5-9.71-8.16-14.62-.77-1.43-.95-3.19-1.72-4.62-3.2-5.93-6.63-11.74-9.77-17.69-2.36-4.48-4.34-9.16-6.64-13.67-1.28-2.5-3-4.78-4.3-7.26a27.66,27.66,0,0,1-1.46-4.16c-.71-1.68-1.43-3.35-2.24-5.26l48.16-91.57c-1.73-2.31-3.44-4.06-4.53-6.13q-13-24.49-25.76-49.08C1411,23.38,1405,11.68,1399,0Z"/><path d="M417,350a23.69,23.69,0,0,0-1.22-3.68c-8.18-15.81-16.35-31.61-24.65-47.35-2.31-4.38-5.08-8.51-7.61-12.78-.58-1-1-2.07-1.77-3.63q19.71-37.92,39.66-76.31h81.1q19.95,38.17,40,76.54c-11.9,22.54-23.7,44.87-35.49,67.21h-3l32.42-62.48c.76-1.47,1.51-2.95,2.48-4.83L500.63,210H424.34l-38.43,72.63c.56,1.18,1.22,2.5,1.81,3.84,9.34,21.35,21.19,41.42,31.81,62.12A9.72,9.72,0,0,1,420,350Z"/><path d="M800,350q17-32.73,34.07-65.5L795.7,211.25H719c-12.72,24.31-25.44,48.59-38.27,73.11,1.8,4.16,3.39,8.52,5.5,12.6,9.17,17.72,18.49,35.37,27.76,53h-2c-9-17.24-18-34.5-27.13-51.69-2.47-4.66-5.4-9.08-8.18-13.7l40.08-76.22h80.49l40,76.11c-1.67,3.19-3.28,6.27-4.9,9.34q-13.94,26.51-27.86,53c-.54,1-1,2.1-1.47,3.15Z"/><path d="M1305,350c-4-7.49-8-14.95-12-22.46q-11.13-21.23-22.17-42.48c-.53-1-1-2.08-1.61-3.28,4-7.52,7.87-15,11.83-22.51q11.89-22.51,23.8-45c1.44-2.75,2.59-5.65,4-8.79H1389l39.77,76.38q-18,34.22-35.78,68.15h-2a43.8,43.8,0,0,1,1.78-4.55q15.54-29.93,31.15-59.8c.62-1.17,1.18-2.37,1.94-3.93L1387.44,209h-77.89q-18.94,36.36-37.83,72.65c.62,1.33,1.12,2.55,1.73,3.71q15.45,29.4,30.89,58.8c1,1.9,1.78,3.9,2.66,5.86Z"/><path d="M0,124H58.18c13.34,25.5,26.59,50.8,39.95,76.34Q78.39,238.62,58.59,277H0v-4a33.6,33.6,0,0,0,3.45.35q24.5,0,49-.06c1.15,0,2.3-.14,3.8-.23l38.62-72.35L56.34,127.43c-1.79-.08-3.58-.23-5.37-.23q-22.76,0-45.49,0c-1.83,0-3.65-.14-5.48-.22Z"/><path class="cls-2" d="M244,0a18.85,18.85,0,0,0,1.09,4.24Q262.15,37,279.34,69.6a8.2,8.2,0,0,0,1.05,1.26h72.46c3-5.58,5.94-11.13,8.87-16.7q12.73-24.3,25.39-48.62A38,38,0,0,0,389,0h2c1.75,2,.34,3.7-.56,5.43q-17.26,33.18-34.53,66.35c-.6,1.16-1.37,2.22-2.26,3.65h-75.5c-.27-.26-.43-.36-.5-.5Q259.2,39.85,240.84,4.73c-.71-1.36-.58-3.14-.84-4.73Z"/><path d="M1536,258h-75.09L1421,181.78l39.67-75.45a17.33,17.33,0,0,1,2-.35c16.12-.31,32.24-.64,48.35-.88,8.33-.12,16.65-.07,25-.1v4c-7.32-.06-14.64-.16-22-.18-9.82,0-19.65.1-29.47,0-5.63-.07-11.26-.55-16.89-.81-1.65-.08-3.31,0-5.4,0q-19.27,36.83-38.6,73.78l38.37,73a10.58,10.58,0,0,0,2,.41q36-.06,71.92-.17Z"/><path class="cls-2" d="M964,350l-21.61-40.82H869.23L848,350h-6c.63-1.52,1.15-3.09,1.9-4.54q8.7-16.84,17.49-33.65c1.45-2.78,3-5.54,4.58-8.58,2.93,0,5.74-.09,8.55,0,5.13.2,10.25.72,15.38.75,16,.07,32,0,48-.05h5.29c5.13,9.75,10,19,14.87,28.28,3.06,5.89,6,11.85,9,17.77Z"/><path d="M240,0c.26,1.59.13,3.37.84,4.73q18.3,35.14,36.81,70.2c.07.14.23.24.5.5h75.5c.89-1.43,1.66-2.49,2.26-3.65q17.28-33.16,34.53-66.35C391.34,3.7,392.75,2,391,0h4c1.59,2.29,0,4.08-1,5.94q-15,28.45-30,56.9L355.8,78.29H350q-33.45-.11-66.91-.22c-2.3,0-4.6.25-7.6.42a39.76,39.76,0,0,1-2.34-3.59Q254.77,40,236.5,5.1c-.87-1.65-1.72-3.26-.5-5.1Z"/><path d="M1092,350q14.73-28.35,29.47-56.71c2.38-4.58,4.78-9.15,7.36-14.1-12.74-24.13-25.55-48.39-38.59-73.07-1.82,0-3.62,0-5.41,0q-24.75.27-49.49.52c-2.21,0-4.79.71-6.26-2.59a10.87,10.87,0,0,1,2.5-1.82,8.62,8.62,0,0,1,3-.14q26.51.14,53,.31c1.63,0,3.27.23,5.07.36l39.49,75.86a9.32,9.32,0,0,1-.52,2Q1113.32,315.34,1095,350Z"/><path d="M690,0c1.68,2,.32,3.73-.6,5.47Q681.72,20,674,34.59q-10.49,19.86-21,39.69c-.69,1.31-1.46,2.58-2.23,3.92h-80c-.76-1.27-1.38-2.22-1.91-3.23Q550.83,40.23,532.75,5.49c-.92-1.76-2.18-3.43-.75-5.49h2a6,6,0,0,0,.6,4.72q18.17,34.14,36.17,68.34a26.21,26.21,0,0,0,1.53,2.3h76.53l38-73L686,0Z"/><path d="M543,350a21.58,21.58,0,0,1,1-2.76Q556.15,324,568.36,300.9c.61-1.16,1.39-2.23,2.13-3.42h80c.79,1.23,1.59,2.29,2.2,3.44q12.14,22.9,24.21,45.85A22,22,0,0,1,678,350h-4a21.08,21.08,0,0,0-1-2.77q-11.47-22.11-23-44.2c-.3-.58-.69-1.12-1.19-1.93H572.47c-1,1.81-2.06,3.66-3,5.55Q558.2,328.31,547,350Z"/><path d="M982,0l-39,74.42H862.89C850,49.76,837,24.88,824,0h3a18.07,18.07,0,0,0,1,3.23q17.65,33.57,35.37,67.1c.23.44.55.83,1,1.5h77.12L979,0Z"/><path class="cls-2" d="M1284,350q-14.93-28.25-29.85-56.5c-2.26-4.27-4.48-8.56-6.83-13.06l49.7-94.91,3.23.94-48.88,93.23c.75,1.56,1.42,3.07,2.18,4.54q15.81,30.61,31.63,61.21A48.47,48.47,0,0,1,1287,350Z"/><path d="M252,350a13.76,13.76,0,0,1,.74-2.33q11.07-21.21,22.22-42.4c.38-.72.87-1.38,1.4-2.21h80.51c1.6,3,3.19,5.88,4.72,8.8q8.81,16.78,17.55,33.6c.75,1.45,1.25,3,1.86,4.54h-4a12.58,12.58,0,0,0-.76-2.77q-10.12-19.46-20.35-38.86c-.38-.72-.89-1.37-1.38-2.12h-76c-.71,1.19-1.43,2.28-2,3.44q-9.53,18.09-19,36.2A32,32,0,0,0,256,350Z"/><path d="M1139,350c4.18-8.12,8.49-16.17,12.5-24.37,2.75-5.62,5.07-11.44,7.65-17.15.74-1.64,1.71-3.19,2.84-5.26l80.38.72c.73,1.23,1.46,2.31,2.07,3.47q10.18,19.44,20.31,38.91A24.89,24.89,0,0,1,1266,350h-3l-22.15-42.7h-76c-9.84,13.5-17,28-23.86,42.7Z"/><path d="M1273,0a26.61,26.61,0,0,1-1.27,3.68q-17.06,32.49-34.19,64.94c-.54,1-1.22,1.94-1.86,3h-79.06c-.62-.92-1.24-1.69-1.7-2.55q-17.46-33.12-34.87-66.27A21.8,21.8,0,0,1,1119,0h2q17.76,34.05,35.52,68.09a17,17,0,0,0,1,1.5h77.16L1271,0Z"/><path d="M1430,350a24.23,24.23,0,0,1,1.07-2.76q13.54-25.56,27.14-51.09c.46-.87,1-1.7,1.78-2.95a79.47,79.47,0,0,1,8.62-.81c22.46.14,44.93.39,67.39.61v3q-34.95.45-69.9.86a42.93,42.93,0,0,1-4.61-.44c-.6,1.12-1.24,2.27-1.84,3.43q-12.39,23.92-24.76,47.85a20.63,20.63,0,0,0-.89,2.3Z"/><path d="M92,0l7.24,13.71C85.92,39,72.53,64.35,59.15,89.7c-1.29.11-2.27.26-3.26.26q-26.2.18-52.42.3c-1.16,0-2.31-.17-3.47-.26V87l36,.11c7,0,14,0,21.32,0l38.07-73L89,0Z"/><path class="cls-2" d="M1399,0c6,11.68,12,23.38,18.08,35q12.81,24.57,25.76,49.08c1.09,2.07,2.8,3.82,4.53,6.13l-48.16,91.57c.81,1.91,1.53,3.58,2.24,5.26l-5.86-2.65,48.65-92.63c-1.2-2.35-2.3-4.57-3.45-6.77Q1419.7,44.58,1398.6,4.1A41.45,41.45,0,0,1,1397,0Z"/><path d="M967,350c-3-5.92-5.92-11.88-9-17.77-4.83-9.29-9.74-18.53-14.87-28.28h-5.29c-16,0-32,.12-48,.05-5.13,0-10.25-.55-15.38-.75-2.81-.11-5.62,0-8.55,0-1.63,3-3.13,5.8-4.58,8.58q-8.77,16.81-17.49,33.65c-.75,1.45-1.27,3-1.9,4.54h-2c3-5.91,6-11.85,9.06-17.72,5.23-10,10.54-20,15.76-29.85,5.7-.45,11.13-1.22,16.55-1.24,19.63-.1,39.27,0,58.9.11,1.32,0,2.63.15,4.49.27L970,350Z"/><path d="M0,303c7,.11,14,.25,21,.33,12.15.12,24.3.2,36.45.32,1.48,0,3,.17,4.8.28L86,350H82L59.82,307.08H54.4q-24.46.06-48.93.13c-1.82,0-3.65-.14-5.47-.21Z"/><path class="cls-2" d="M217,0l-1.74,3.84H118.08L116,0Z"/><path d="M1009,350c-.66-1.51-1.24-3.06-2-4.52Q990.68,314,974.32,282.62c-.54-1-1-2.1-1.67-3.59q19.58-37.21,39.49-75h12.22l0,.77h-10.77l-38.86,74.38c6.49,12.29,12.88,24.33,19.22,36.39q9,17.22,18,34.47Z"/><path class="cls-2" d="M509,0l-1.3,3.29c-31.19.3-62.58.93-94.52-.7L412,0Z"/><path d="M1536,62l-5.1,8.74h-79.64L1414,0h2l28,52.94,8.29,15.65h76.93L1536,57Z"/><path class="cls-2" d="M1001,0q-22.74,43.32-45.48,86.63c-1,1.83-2.12,3.54-3.56,5.93-1.19-2.75.19-4,.88-5.31Q972,50.53,991.28,13.83C993.65,9.29,995.77,4.61,998,0Z"/><path class="cls-2" d="M1447,274.88a26.16,26.16,0,0,0,5.23,1.08q21.46.07,42.93-.08c12.47-.1,24.94-.37,37.41-.59,1.15,0,2.31-.19,3.46-.29v2q-40.59,0-81.17,0a56.43,56.43,0,0,0-6.66.82Z"/><path class="cls-2" d="M233,350q14.79-28.32,29.56-56.63c1.21-2.33,2.21-4.77,3.36-7.29h2.29L235,350Z"/><path class="cls-2" d="M1296,0l-5.28,9.92-.7-.31q2-4.8,4-9.61Z"/><path class="cls-2" d="M1098.89,183h-96L955.38,92l47.7-90.87h95.29L1146.42,92Q1122.8,137.23,1098.89,183ZM992,59c-2.28,3.89-4.7,7.72-6.82,11.7-1.59,3-2.81,6.18-4.2,9.29-2.13,3.45-4.27,6.91-6.4,10.34L1014.12,166H1094l39.77-75.43-39.86-76H1013.7a10.68,10.68,0,0,0-1.52,2.59c-1.4,5.92-4.93,10.85-7.43,16.26-.68,1.47-1.16,3-1.73,4.56-2.66,4.62-5.41,9.2-7.95,13.88C993.85,54.16,993,56.64,992,59Z"/><path class="cls-2" d="M407.8,192l-48.24,91.67h-95l-47.91-91.1,47.66-91h95.72C376.07,131.9,391.9,161.89,407.8,192Zm-15.66.47-39.89-76.24H271.68c-13.33,25.45-26.6,50.78-39.93,76.25q20,38.43,39.88,76.58c2.12,0,3.78,0,5.43,0,9.81-.26,19.61-.71,29.41-.77,14.15-.07,28.31.15,42.47.21a28.1,28.1,0,0,0,3.23-.36Z"/><path class="cls-2" d="M809.53,185.56q23.72-45.31,47.25-90.32h95q23.87,45.2,47.81,90.49l-47.49,90.94H856.41Zm135.16,80.16,39.93-75.94-39.73-75.61h-80.4L825,189.78c13.38,25.61,26.55,50.79,39.7,75.94Z"/><path class="cls-2" d="M117.61,191.79,69.88,100.62l48-91.22h95.57l47.91,91.26-47.76,91.13ZM207.91,179c.75-1.23,1.49-2.32,2.1-3.49,12.56-24,25.3-47.88,36.76-72.42a6.56,6.56,0,0,0,.21-1.47l-39.4-75.3c-8.71-1-76.86-.88-81.14.12L86.59,102.2,126.69,179Z"/><path class="cls-2" d="M1150.91,277.19l-47.4-90.2c15.71-30,31.43-60,47.31-90.33h94.88L1293.59,187c-15.89,30.32-31.72,60.5-47.64,90.89C1214.28,278.78,1182.71,277,1150.91,277.19Zm-32.53-86.48L1158,266.26h79.81l39.93-75.58-39.83-76.43h-80.57c-.84,1.76-1.68,3.37-2.4,5-1.43,3.33-2.57,6.8-4.24,10-7.14,13.73-14.44,27.37-21.66,41.06C1125.55,177,1122.1,183.61,1118.38,190.71Z"/><path class="cls-2" d="M850,93.91c-16,30.46-31.84,60.64-47.91,91.26l-94.89-1L659.94,94c.77-1.59,1.51-3.23,2.34-4.83,6.42-12.22,13-24.39,19.26-36.67C689.12,37.71,696.48,22.82,704,8c.82-1.62,1.7-3.21,2.67-5.05H802ZM797.48,171,837.26,95c-13.38-25.52-26.59-50.69-39.85-76l-80.29-.81c-.86,1.39-1.43,2.2-1.89,3.07-12.75,24.08-25.65,48.09-37.08,72.83a8.32,8.32,0,0,0-.26,1.61c12.88,24.75,26,50,39.12,75.21Z"/><path class="cls-2" d="M559.13,280.65c-15.89-30.38-31.69-60.6-47.66-91.12l47.67-91.17h95.25l48.06,91.13Q678.53,235,654.51,280.65Zm-32.91-90,40.27,77.21c2.43,0,4.4,0,6.38,0q35.45-.4,70.9-.81c1.29,0,2.58-.26,3.78-.39,13.41-25.44,26.66-50.6,40-76l-40-76.42H566.31Z"/><path class="cls-2" d="M508.44,187H410.15l-45.66-87.6L411.91,8.69H507l47.42,90.72ZM419.15,18.38C404.82,43.25,393,69.45,379.49,95.14c13.25,25.42,26.46,50.75,39.79,76.29h80.77l40.23-76.38C526.79,69.36,513.44,43.91,500,18.38Z"/><path class="cls-2" d="M855.12,279l-1.62,2.54L804.18,187c.38-.7.76-1.39.92-1.67Q830,231.92,855.12,279Z"/><path class="cls-2" d="M1248,90v2.62h-98.45l-.08-.84a29.82,29.82,0,0,1,3.63-.39c15.31.07,30.62.23,45.93.28,14.15,0,28.3,0,42.44-.05,2.32,0,4.66.18,6.51-1.64Z"/><path class="cls-2" d="M561.22,95.16q47.38,0,94.77,0c.19,0,.39.48.57.72H561.22Z"/><path class="cls-2" d="M1004.11,185.31h94.71v.42H1004Z"/><path class="cls-2" d="M72.89,277.11a41.29,41.29,0,0,0,3-4.27c5.12-9.62,10.14-19.3,15.24-28.93.76-1.43,1.75-2.73,2.64-4.09l.4.36a9.11,9.11,0,0,1-.53,1.89Q83.78,261,73.82,279.86c-.35.66-.88,1.24-2,2.86L73,277Z"/><path class="cls-2" d="M93.79,239.82a23.35,23.35,0,0,1,1-2.76q9-17.25,18.07-34.45a5.21,5.21,0,0,1,2.09-2.26,10,10,0,0,1-.58,2.13q-9.32,17.91-18.71,35.79a12.85,12.85,0,0,1-1.5,1.91Z"/><path class="cls-2" d="M342.48,98.57H314.25v-.11h28.23Z"/><path class="cls-2" d="M1267.7,51.23l9.51-18.17,1,.5c-2.8,6.23-6.19,12.17-9.39,18.2Z"/><path class="cls-2" d="M1248,90c1.18-4,6.17-13.5,9.27-16.3-1.85,3.59-3.62,7.21-5.57,10.74-1.07,1.94-2.44,3.72-3.68,5.58Z"/><path class="cls-2" d="M1288.09,14.72c-.63,1.31-1.23,2.64-1.89,3.93-2.13,4.12-4.28,8.22-6.92,13.29C1279.87,27.52,1283.67,19.77,1288.09,14.72Z"/><path class="cls-2" d="M1257.76,70.19c2.82-5.39,5.65-10.77,9-17.07C1266.12,57.44,1262.23,65.39,1257.76,70.19Z"/><path class="cls-2" d="M216.76,8.05l7.37,14.29-.95.5q-3.7-7-7.42-14Z"/><path class="cls-2" d="M230.88,35.24l4.14,8-.81.42-4.28-8Z"/><path d="M1386.31,171.77h-80q-19.75-37.71-39.55-75.53c.64-1.35,1.14-2.57,1.75-3.73q16.64-31.58,33.27-63.16c1.59-3,2.9-6.21,4.47-9.6,3.08-.78,73.3-.95,80.39,0q19.5,37.54,39.59,76.21Zm36.8-75.87-38.56-72.74h-77.88l-37.93,72.75,38.68,73.52h77.33C1397.62,144.76,1410.32,120.43,1423.11,95.9Z"/><path d="M1003,38c.57-1.52,1.05-3.09,1.73-4.56,2.5-5.41,6-10.34,7.43-16.26a10.68,10.68,0,0,1,1.52-2.59h80.19l39.86,76L1094,166h-79.86L974.59,90.34c2.13-3.43,4.27-6.89,6.4-10.34h0l-4.66,11L1015,164.32h77.62l38.45-73.73q-19.32-36.86-38.42-73.28h-77.17l-6.68,11L1003,38Z"/><path d="M992,59c1-2.37,1.84-4.85,3.06-7.11,2.54-4.68,5.29-9.26,7.95-13.88l0,0a18.74,18.74,0,0,1-1,3.19q-3.91,7.68-8,15.26A16.9,16.9,0,0,1,992,59Z"/><path d="M981,80c1.39-3.11,2.61-6.3,4.2-9.29,2.12-4,4.54-7.81,6.82-11.7l0,0c-1.15,2.67-2.13,5.43-3.5,8-2.36,4.41-5,8.7-7.47,13Z"/><path d="M392.14,192.48l-40,75.67a28.1,28.1,0,0,1-3.23.36c-14.16-.06-28.32-.28-42.47-.21-9.8.06-19.6.51-29.41.77-1.65,0-3.31,0-5.43,0q-19.9-38.2-39.88-76.58c13.33-25.47,26.6-50.8,39.93-76.25h80.57ZM273.83,119.29l-38.41,73.19,38.4,72.64c25.78,1.9,51.23.69,76.8,1L389,192.47l-38.52-73.18Z"/><path d="M944.69,265.72h-80c-13.15-25.15-26.32-50.33-39.7-75.94l39.5-75.61h80.4l39.73,75.61ZM865.88,263h77.51l38.27-73.21-38.52-73.54H866.07l-38.7,73.58Z"/><path d="M207.91,179H126.69L86.59,102.2l39.85-75.78c4.28-1,72.43-1.08,81.14-.12L247,101.6a6.56,6.56,0,0,1-.21,1.47c-11.46,24.54-24.2,48.44-36.76,72.42C209.4,176.66,208.66,177.75,207.91,179ZM91,102.21l38.13,72.35h75.75L244,101.83c-12.8-24.31-25.57-48.58-38.21-72.61h-76.7Z"/><path d="M1118.38,190.71c3.72-7.1,7.17-13.74,10.66-20.35,7.22-13.69,14.52-27.33,21.66-41.06,1.67-3.21,2.81-6.68,4.24-10,.72-1.67,1.56-3.28,2.4-5h80.57l39.83,76.43-39.93,75.58H1158Zm118-72.87h-76.57c-2.17,3.06-4.3,5.45-5.74,8.19-10.55,20-21,40.14-31.41,60.23-.76,1.46-1.45,3-2.27,4.62,12.95,24.67,25.84,49.24,38.52,73.42h77.64l38.31-73.62Z"/><path d="M797.48,171H717c-13.13-25.25-26.24-50.46-39.12-75.21a8.32,8.32,0,0,1,.26-1.61c11.43-24.74,24.33-48.75,37.08-72.83.46-.87,1-1.68,1.89-3.07l80.29.81c13.26,25.28,26.47,50.45,39.85,76ZM718.6,168.3h77.06L834.07,95q-19.49-37.12-38.28-73H719.38C706.2,46.69,693.18,71,680.07,95.44Q699.21,131.65,718.6,168.3Z"/><path d="M526.22,190.69l40.09-76.42h81.26l40,76.42c-13.38,25.41-26.63,50.57-40,76-1.2.13-2.49.37-3.78.39q-35.44.42-70.9.81c-2,0-4,0-6.38,0Zm42.7-72.62q-19,36.32-38.06,72.66L569,263l76,1.18,38.36-73.51c-12.75-24.29-25.42-48.43-38.13-72.63Z"/><path d="M419.15,18.38H500c13.4,25.53,26.75,51,40.24,76.67l-40.23,76.38H419.28c-13.33-25.54-26.54-50.87-39.79-76.29C393,69.45,404.82,43.25,419.15,18.38Zm78.58,4.05h-75.9L382.66,95c13,24.6,25.7,48.73,38.42,72.84h76.71l38-72.8Z"/><path class="cls-2" d="M568.92,118.07h76.36c12.71,24.2,25.38,48.34,38.13,72.63l-38.36,73.51L569,263l-38.17-72.3Q549.94,154.3,568.92,118.07Zm1.16,2.77-36.22,69.09q18.36,35,36.19,68.94h73.11q18.18-34.67,36.17-69c-12.23-23.29-24.28-46.24-36.24-69Z"/><path class="cls-2" d="M497.73,22.43l38,72.62-38,72.8H421.08c-12.72-24.11-25.45-48.24-38.42-72.84l39.17-72.58Zm-1.44,141.36,36.3-69.23L496.26,25.32H423.45Q405.27,60,387.13,94.58c12.2,23.27,24.26,46.24,36.31,69.21Z"/><path d="M570.08,120.84h73c12,22.8,24,45.75,36.24,69q-18,34.38-36.17,69H570.05q-17.85-34-36.19-68.94Z"/><path d="M496.29,163.79H423.44c-12.05-23-24.11-45.94-36.31-69.21Q405.25,60,423.45,25.32h72.81l36.33,69.24Z"/></svg>