<svg xmlns="http://www.w3.org/2000/svg" viewBox="0 0 1537.56 701.56"><defs><style>.cls-1{fill:#fff;}.cls-2{fill:none;stroke:#000;stroke-linecap:round;stroke-linejoin:round;stroke-width:2px;}</style></defs><title>Asset 1</title><g id="Layer_2" data-name="Layer 2"><g id="Layer_2-2" data-name="Layer 2"><path d="M1.06,298.5v-7a15.27,15.27,0,0,1,5.61-5.27c5.56-2.68,8-7.27,7.84-13.35-.28-13.14-.58-26.3-1.37-39.39-.71-11.8-.8-23.62-1.26-35.4-.58-14.78-1-29.6-1.48-44.39-.68-20.6-1.28-41.22-2.67-61.8-.46-6.69-3.42-12-6.67-17.4v-16c2.53-2.08,4.55-.35,6.09,1.25,5.6,5.84,11.24,5.71,18.43,2.29Q65.75,43,105.79,23.6c12.9-6.21,26-12,38.67-18.75,4.61-2.43,9.87-2.45,14.6-4.35h6c2,2.73-.42,3.46-2.06,4.35-6,3.25-12.14,6.29-18.31,9.23C105.88,32.55,67.34,51.6,28.78,70.59c-.75.37-1.49.74-2.22,1.14a18,18,0,0,0,2.25-1c22.62-11,45.43-21.62,67.75-33.24C119.46,25.59,143.05,15,166.2,3.59,170.57,1.43,173.81,3,177.44,6c18.88,15.45,37.5,31.23,56.34,46.73Q258.44,73,282.92,93.54c13.32,11.13,26.89,22,40,33.33,8.09,7,8,6.93,17.49,2.31q61.66-30,123.54-59.64c6.46-3.1,12.86-6.31,19.36-9.34,3-1.39,5-.8,7.22,1Q504,72.29,517.46,83.32c17.44,14.31,35,28.48,52.27,43,19,16,39.1,30.76,57.53,47.5,3.7,3.36,7.94,6.2,11.65,9.59,2.73,2.49,5.17,2.31,8.35.7,18.2-9.18,37-17,55.34-26,14-6.93,28.08-13.92,42.27-20.57q24.25-11.35,48.18-23.4c5.23-2.63,8.37-1.71,12.47,1.77,31,26.23,63,51.23,93.94,77.49,16.78,14.22,33.94,28,50.86,42.09,2.14,1.78,3.74,2.4,6.84.89,39-19,78.19-37.72,117.23-56.68,7.63-3.7,15.3-7.32,22.91-11.06.64-.31,1.31-.57,1.92-.94-.76.34-1.48.76-2.23,1.12-46.93,22.87-94.16,45.15-141,68.25-3.3,1.63-4.78-.86-6.39-2.19-11.83-9.83-23.79-19.51-35.56-29.4-20.45-17.19-40.84-34.47-61.62-51.24-16.09-13-32-26.16-47.94-39.36-3.56-3-6.25-3.42-10.48-1.25-17.06,8.73-34.47,16.78-51.7,25.18-22.84,11.14-45.7,22.25-68.69,33.08-9.13,4.3-18.38,8.43-27.53,12.75a5.5,5.5,0,0,1-6.59-.89c-11.39-9.69-23-19.11-34.49-28.7-8.17-6.82-17.07-12.81-25.09-19.77-10.82-9.38-21.93-18.4-32.95-27.51C531.57,95,516.24,82.13,500.66,69.59a93.74,93.74,0,0,1-8.39-7.06c-3.44-3.51-6.91-3.71-11-1.62-13.2,6.81-26.68,13-40.05,19.5C407.45,96.76,373.42,112.69,340,129.7c-7,3.55-10.95,2.67-16.29-2C302.18,109,279.88,91.27,258,73q-24.86-20.83-49.9-41.47c-10.06-8.24-20-16.66-30-24.9-1.75-1.43-5.35-2.45-3-6.11h7c9.43,2.47,15.62,9.76,22.64,15.63C243.52,48.6,282.42,81,321.05,113.66c2.55,2.15,5.05,4.34,7.6,6.48,3.65,3,7.37,3.42,11.56,1.31,6.69-3.38,13.56-6.38,20.27-9.7,37-18.32,74.33-36,111.29-54.42,4.81-2.4,6.79-5.49,6.9-10.86.25-13.17-.91-26.27-1.13-39.41,0-2.54.08-5,2.52-6.56h7c1.89,1.42,2.35,3.35,2.55,5.64a279,279,0,0,1,.92,31.93,17.18,17.18,0,0,0,6.75,14.73c27.43,22.74,54.57,45.82,81.74,68.87,18.15,15.39,35.64,31.54,53.87,46.86,7.57,6.37,13.81,8.34,23.12,3.52,25.29-13.09,51.21-24.93,76.61-37.8,16.19-8.21,32.74-15.68,49-23.85,5.62-2.83,8.19-6.7,8-13-.47-18.79-.77-37.59-1.94-56.35-.37-6-.07-12-.1-18,0-5,.07-10-.79-14.95-.5-2.85-.43-5.68,2.29-7.63h7c2.11,1.54,2.56,3.72,2.5,6.18-.4,14.82.63,29.63,1.32,44.4.65,14-.12,28,1.43,41.89.68,6.17,3.47,10.43,8.05,14.26,12.38,10.36,24.95,20.52,37,31.3,32.73,29.35,67.23,56.62,100.59,85.23,6,5.19,11.43,5.65,18.11,2.23,19.28-9.86,38.9-19,58.35-28.53,22.59-11,45-22.48,67.89-32.89,7.56-3.44,10.85-8.4,10.35-16.71-1.63-26.9-1.25-53.88-3-80.78,0-.33,0-.66,0-1,.65-19.48-1.51-38.92-1-58.4.06-2.7,0-5.39,2.52-7.18h5c2.12,1.54,2.45,3.73,2.52,6.18.66,24.13,1.53,48.25,2.15,72.38.57,21.8,1.68,43.58,1.9,65.39.08,7.88,2.55,14.3,9,19.61,19.28,15.89,38.3,32.11,57.41,48.22,26.61,22.45,52.66,45.55,79.5,67.74,5.62,4.65,10.56,5.55,17.24,2.31,33.87-16.44,67.81-32.75,101.6-49.38,9.12-4.49,18.36-8.71,27.46-13.26,5.19-2.59,7.8-6.42,7.71-12.26-.27-17.81-.74-35.61-1.83-53.39-.08-1.33-.13-2.66-.13-4,0-26.31-1.49-52.58-2.29-78.87-.48-16-.5-32-1.67-47.91-.39-5.35-2-9.69-6.22-13a50.07,50.07,0,0,1-5.9-5.38c-1.27-1.39-1.86-2.75-.43-4.35h7c1.81,1.5,4.25,1.33,6.27,2.54,5.47,3.3,7.88,7.86,7.29,14.24-.31,3.3-.06,6.65-.06,10,0-3.28,0-6.56,0-9.85s.09-6.51-1.69-9.51-1.09-5.68,2.18-7.4h19c1.43,1.83.55,2.9-1.15,3.88-5.58,3.22-6.8,8.24-5.71,14.17a16.3,16.3,0,0,1,.34,3.48c-.59,17.48.88,34.92,1.18,52.39.47,26.94,1.38,53.87,2.16,80.81.36,12.47.69,25,.6,37.42-.06,8.5,3,14.79,9.52,20.31q45.16,38.22,90.52,76.24a31.53,31.53,0,0,1,6.54,8.3v11c-1.43.93-2.19-.29-3.06-1-15-12.53-29.88-25.26-44.92-37.78-13.54-11.28-26.93-22.75-40.56-33.93-6.67-5.47-13.17-11.13-19.89-16.54a16.45,16.45,0,0,0-4.44-3c-3.48-1.33-5.16-4.33-5.17-8.07,0-18.35-1.17-36.67-1.55-55-.53-25.28-1.62-50.55-2.13-75.84-.15-7.4-.59-14.86-.78-22.3,0-.4,0-.79,0-1.18,0,.33,0,.67,0,1,.44,6.6-1,13.28.8,19.83a14.89,14.89,0,0,1,.18,4.47c-.64,18.26.74,36.49,1.21,54.73.57,22.24,1,44.5,2.24,66.73.12,2.15-.09,4.3-.11,6.44,0,4.2,1.43,7.5,5.76,9.44,5.92,2.65,10.35,7.58,15.19,11.69,13.36,11.34,26.92,22.43,40.24,33.82,11.62,9.94,23.39,19.71,35.06,29.59,5.62,4.76,11,9.77,17,14.17a14.31,14.31,0,0,1,5,5.7v6c-1.9,2.62-3.52,1.27-5.33-.24q-18.23-15.21-36.43-30.44c-21.37-17.82-42.84-35.52-63.86-53.75-6.21-5.4-11.59-5.66-18.91-2q-63.4,31.34-127.38,61.51c-5.18,2.43-7.56,6-7.59,11.67q-.19,38.24,1.92,76.39c.06,1,.1,2,.07,3-.62,18.17.81,36.3,1.27,54.44.44,17.29.8,34.6,1.74,51.89a15.51,15.51,0,0,0,5.86,11.62c26.74,22.57,53.69,44.88,80.56,67.28,19.33,16.11,38.52,32.38,57.9,48.42,1.67,1.38,3.41,2.67,5.06,4.07,3.49,2.94,7.18,3.14,11.16,1.16,7-3.49,14.17-6.66,21.2-10.11,21.84-10.71,43.82-21.15,65.73-31.7,2.21-1.06,4.63-3.36,7-.16v9c-1.74,3-4.5,4.71-7.52,6.22-23,11.56-46.06,23.15-69.59,33.61-10.52,4.68-15.53,10.72-14.61,22.69,1.05,13.71,1.82,27.52,1.25,41.32-.11,2.69,0,5.37-2.53,7.16h-5c-2.6-2.52-1.34-5.79-1.47-8.68-.79-17.5-1-35-2.11-52.53-.13-2.12-1-3.27-2.62-4.71-13.92-12.6-28.74-24.13-42.83-36.53-12.19-10.73-24.64-21.18-37.08-31.63q-27-22.73-54-45.49c-6.47-5.47-13-10.83-19.51-16.28a10,10,0,0,1-3.89-8.08c-.16-21.43-1-42.84-1.58-64.26-.58-22.8-1.18-45.6-2-68.4-.39-10.54-.27-21.09-.85-31.62a10.61,10.61,0,0,1,0-1.49c.23.44-.18.84-.15,1.2.74,9.32.42,18.66.74,28,.27,7.87.78,15.73.93,23.61.51,26,1.53,52,2.07,78,.24,11.23.76,22.47.85,33.71,0,4.4,1.68,7.28,5.06,10.16,9.65,8.24,19.55,16.17,29.15,24.44,24.8,21.34,50,42.16,74.79,63.54,9.9,8.55,20,16.93,29.87,25.46,5.86,5,11.75,10,17.79,14.84,2.39,1.89,3.59,3.83,3.64,6.64.29,18.52,1.68,37,1.73,55.54,0,1.65.07,3.37-1.47,4.54h-4c-2.81-2.34-3.51-5.48-3.5-9,0-8.5-.12-17,0-25.5.14-6.86-1.1-13.61-1.28-20.43-.11-4.12-2.49-7.07-5.52-9.68-19.33-16.63-39.16-32.65-58.79-48.91-24.37-20.2-48.5-40.69-72.69-61.1-3.82-3.22-7.62-6.46-11.54-9.56a9.87,9.87,0,0,0-10.31-1.65,67.49,67.49,0,0,0-6.42,2.77c-36.88,18.65-74.44,35.93-111.29,54.63-4.9,2.49-9.91,4.77-14.93,7s-7.56,6-7.16,11.44c1.62,22.58,1.09,45.25,2.75,67.83a188,188,0,0,1,.09,19c-.14,5.7,1.22,11.26,1.07,17-.07,2.46-.42,4.62-2.52,6.17h-13c-2.11-1.54-2.43-3.73-2.51-6.18q-1.2-36.42-2.19-72.86c-.26-9.64-.8-19.29-.83-28.94a15.35,15.35,0,0,0-5.71-12.21c-15.5-13.4-31.33-26.4-46.93-39.69-30.82-26.24-61.9-52.17-92.92-78.17-5.44-4.55-10.34-5.31-16.81-2.15-42.35,20.72-84.94,40.93-127.31,61.59-5.94,2.89-8.45,6.8-8.32,13.24.38,20.3.85,40.59,1.92,60.88.62,11.79.57,23.63.84,35.43.38,17.31,1.81,34.6,1.3,51.93a53.1,53.1,0,0,0,.78,10.45c.44,2.63,0,5-2.31,6.68h-6c-2.06-4.64-1.28-9.64-1.35-14.4-.25-16.44-1.41-32.86-1.15-49.3,0-.54,0-1.08,0-1.62v1.49c0,17.93.83,35.83,1.38,53.74.1,3.35,1.13,6.88-.88,10.09h-4a5.92,5.92,0,0,1-2.47-5.18c0-.49,0-1,0-1.5.45-29.82-1.35-59.61-1.15-89.44.16-22.47-1.3-45-.89-67.44.1-5.76-2.14-10.11-6.64-13.79q-36.57-29.91-73.29-59.62-33.4-27.06-66.7-54.25c-5.24-4.3-10-4.73-16-1.83-27.17,13.08-54.11,26.65-81.31,39.68-16.53,7.92-32.9,16.16-49.58,23.76-6.8,3.09-9.62,7.77-9.55,15.24.24,25.33-.66,50.69.32,76,.88,22.66,0,45.32.95,67.94.52,12,.66,24,.86,36a15.35,15.35,0,0,0,5.82,12.15c7,5.91,14.29,11.49,21.18,17.53,1.49,1.3,3.46,2.45,1.45,4.81h-6c-9.51-3.17-16.24-10.4-23.56-16.62-5.4-4.59-10.1-5.54-16.61-2-9.23,4.95-18.93,9-28.27,13.83-4.92,2.52-10.42,3.07-15.56,4.84h-9c-2-2.73.41-3.46,2.06-4.34,7.65-4.06,15.34-8.07,23.25-11.6,8.52-3.8,16.71-8.28,25.17-12.22,5.68-2.65,8.49-6.85,8-13.05-2.15-25.75.33-51.61-1.89-77.35a57.16,57.16,0,0,1-.06-6c.64-32-1.64-63.92-1-95.89a16.37,16.37,0,0,0-6.44-13.89c-46.79-38.29-93.37-76.82-140.29-114.94-5-4.05-9.51-4.45-15.1-1.64-25.15,12.63-50.64,24.58-75.92,37-18.24,8.94-36.58,17.68-54.94,26.4-6.79,3.22-9.9,7.88-9.31,15.31,1.83,22.95.09,46,1.25,68.9.95,18.66.39,37.29.76,55.93.16,8.32-.1,16.62.85,24.94s-.75,16.93-1,25.41c-.3,9.21,3,15.44,10.13,21.3,28.63,23.4,57.65,46.31,86.11,69.92,1.72,1.43,4.84,2.57,2.44,5.85h-5c-6-1.44-10.44-5.5-15-9.27-13.22-10.88-26.49-21.71-39.6-32.69-12.69-10.61-25.55-21-38-31.87-4.2-3.65-7.65-4-12.5-1.25-20.49,11.52-42.13,20.74-63.15,31.2-25,12.46-50.48,24.14-75.43,36.79-6.32,3.2-11.86,3.63-17.25-1.92A83.46,83.46,0,0,0,5.69,682.9c-2.31-1.71-2.75-4.52-4.63-6.4v-5c2.52-2,4.37-.14,6.17,1.19,4.16,3.06,8.08,6.44,12,9.79,4.62,3.94,9.3,4.43,14.73,1.65,22.7-11.62,45.94-22.11,68.82-33.35q31.62-15.53,63.54-30.45c5.48-2.54,8.35-6.18,8.24-12.32-.59-31-.83-62-1.35-92.92-.21-12.47-.76-25-.55-37.44.31-17.84-1.38-35.61-1.14-53.43a14.6,14.6,0,0,0-5.78-12.14q-31.14-25.47-62.31-50.9c-25.69-21-51.36-41.94-77.25-62.65-5.28-4.22-10.08-5-16-1.76C7.5,298.22,4.69,301.13,1.06,298.5Z"/><path class="cls-1" d="M282.06,700.5l-82.21-66.83a15.36,15.36,0,0,0-2.35-1.86c-19.63-10.18-18-27.73-16.13-45.59.55-5.1,0-10.31-.1-15.47-.79-49.82-1.67-99.63-2.15-149.44,0-2.74,2.62-6.83,5.12-8.05Q254.62,378.72,325.41,345c2.46-1.17,7.26-.58,9.39,1.14q73.53,59.7,146.55,120.05c2.59,2.14,4.51,6.63,4.59,10.07,1,49,1.69,98,2.47,146.94.21,13,.24,26,1,39,.33,6-1.5,9.16-7.1,11.76-18.24,8.5-36.17,17.67-54.22,26.58h-54c-1.13-1.66.37-2.51,1.31-2.9,10.89-4.49,21-10.53,31.72-15.36,18.36-8.29,36.16-17.73,54.49-26.06,2.21-1,3.2-2.93,2.94-5.77-1.44-15.24-.32-30.58-1.72-45.83-.78-8.58.15-17.22-.35-25.81-1.22-20.8-1.06-41.66-2.08-62.46-.38-7.95,0-15.91-.82-23.88a11.92,11.92,0,0,0-4.49-8.86c-16.55-13.94-33.17-27.8-49.67-41.79-16.17-13.71-32.6-27.13-48.6-41-7.18-6.24-14.79-12-21.83-18.37-2.08-1.9-4.4-2.1-7.62-.65-21.06,9.48-41.55,20.14-62.39,30.07Q239.33,424,213.8,436.42c-4.06,2-5.22,4.68-5.24,8.71-.09,18.91,1,37.78,1.46,56.67.79,30.68,2.34,61.34,2.36,92,0,9.66,3.54,15.89,10.87,21.59,14.33,11.14,28,23.17,41.88,34.82,14.13,11.82,28.11,23.82,42.35,35.51,4.44,3.64,8.67,7.54,13.27,11,.7.53,2.82,1.86,1.31,3.76Z"/><path class="cls-1" d="M1537.06,580.5c-31.94,15.38-63.84,30.84-95.9,46-2.28,1.08-6.67.69-8.55-.86Q1358,563.67,1283.84,501.2a12.72,12.72,0,0,1-3.91-8.35q-2.75-77.39-4.93-154.8c-.39-13.32-.33-26.66-.13-40a7.08,7.08,0,0,1,3.37-5.13Q1349,258.56,1420,224.72c2-.93,6,.43,8,2.07q52.69,43.71,105.1,87.79c1.27,1.06,2.67,1.95,4,2.92v38c-2.67,2-4.3-.34-5.92-1.67-6.85-5.66-13.56-11.5-20.42-17.14q-18.84-15.51-37.4-31.36c-14.31-12.23-29.06-23.95-43.07-36.54-2.72-2.45-6-1.77-9.11-.11-14.74,7.76-29.93,14.61-44.91,21.89-20.83,10.12-41.6,20.35-62.57,30.18-1.36.64-2.65,1.43-4,2-4.66,1.88-6.4,5.24-6.1,10.22,1.56,26.59,1.15,53.26,2.9,79.84.57,8.62,0,17.28.46,25.92,1,17.27,1,34.57,1.53,51.86.1,2.88,2.1,4.55,3.9,6,14,11.16,27.36,23,41.11,34.44s27.26,23,41,34.32c13.16,10.87,26.09,22,39.25,32.89,2.36,1.94,4.45,2.19,6.68,1,18.21-9.23,36.7-17.88,55.07-26.77,12.47-6,24.81-12.32,37.46-18,1.51-.67,2.77-1.23,4.17,0Z"/><path class="cls-1" d="M527.06,700.5c-7.73-6.33-15.18-13-23.29-18.85-6.18-4.41-8.19-9.48-8.23-17.08-.34-61.79-1.23-123.58-1.63-185.37,0-2.61,2.43-6.51,4.79-7.67q71-34.92,142.36-69.09c2.33-1.12,6.89-.56,8.92,1.07q73.74,59.39,147,119.41a16,16,0,0,1,5.12,10.74c1,53.29,1.62,106.58,2.3,159.88,0,2.32-.2,4.64-.31,7h-21c-1.94-1.45-1.85-3.42-1.91-5.64-.7-22.93-1.41-45.85-2-68.79-.51-21.11-1.57-42.21-1.8-63.34-.06-5.43-.91-10.92-.83-16.41.06-3.87-2.52-6.06-5-8.2Q758.37,527,745.14,515.93q-43.82-36.72-87.45-73.67c-1.14-1-2.3-1.92-3.43-2.9-4-3.46-8.18-3.88-12.92-1.52-6.71,3.34-13.55,6.44-20.26,9.77-29.26,14.48-58.73,28.55-88.12,42.78-5.56,2.7-7.61,6-7.54,12.29.31,31.47,1.79,62.91,2.46,94.37.34,16.11,1.12,32.27,1.41,48.39.19,10.86,2.63,18.87,12,25.61,10.49,7.58,19.92,16.7,30,24.93,1.09.9,3.61,2.08,1.82,4.52Z"/><path class="cls-1" d="M1393.06.5c15.45,8.53,15.93,23,16.24,38.28,1,47.27,2.7,94.52,4.13,141.78.33,10.82.89,21.63.83,32.45,0,2.19-1.8,5.47-3.68,6.4q-70.78,34.76-141.86,68.93a7.34,7.34,0,0,1-6.45-.84Q1187.39,224.41,1112.81,161c-1.46-1.25-2.93-3.45-3-5.26q-2.7-76.37-5-152.74a17.32,17.32,0,0,1,.29-2.47h26c3.35,2.76,3.52,6.58,3.5,10.47-.14,22.86,1.44,45.68,1.8,68.52.34,21.6,1.84,43.18,1.53,64.79a9.11,9.11,0,0,0,3.51,7.49c15.06,13,30.49,25.55,45.57,38.52,15.48,13.31,31.35,26.18,46.78,39.57,9.71,8.42,19.9,16.32,29.58,24.8,2.55,2.22,5.33,1.43,8.28,0q31.26-15.22,62.61-30.26c16.72-8,33.28-16.37,50.08-24.25,3.74-1.76,5.41-4.1,5.3-8.29-.44-16.5-.77-33-1.44-49.49-.92-22.89-1.23-45.8-2.24-68.69-.55-12.41-1-24.87-1-37.32a12.06,12.06,0,0,0-4.78-10.18q-12.46-10.28-24.7-20.84c-1.63-1.41-2.84-2.67-1.36-4.83Z"/><path class="cls-1" d="M816.06,700.5c-1.07-27.61-2.29-55.22-3.16-82.84q-1.39-44.19-2.07-88.41c0-2.38,2-6,4.13-7q69.28-33.89,138.92-67.08c2.25-1.08,6.66-.63,8.54.94q74.07,61.79,147.7,124.09c1.75,1.47,3.68,3.93,3.75,6,1.23,38.11,2.18,76.22,3.19,114.33h-19c-2.8-4.33-1.73-9.28-1.9-13.92-.71-20.37-.93-40.76-2-61.12-.38-7.27,0-14.57-.24-21.86a7.78,7.78,0,0,0-2.5-6.09c-6.8-6.63-14.27-12.49-21.53-18.52q-19-15.84-38-31.76c-19.93-16.67-39.63-33.61-59.44-50.43-5-4.27-9.83-4.49-15.62-1.77-15.08,7.08-30,14.51-45,21.66-20.77,9.86-41.33,20.14-62,30.1-5.42,2.61-8.23,6.4-7.86,12.55,1,16.29,1.16,32.62,1.92,48.92,1.08,23.33,1.37,46.69,2.16,70,.19,5.9.88,11.79.6,17.71-.08,1.65,0,3.33-1.5,4.5Z"/><path class="cls-1" d="M1100.06.5q1.68,62.45,3.37,124.88c.29,10.49.86,21,.81,31.47a8,8,0,0,1-3.65,5.93q-71,35-142.31,69.34c-1.74.84-5.24.18-6.81-1.12q-49.68-41.1-99-82.61c-17.05-14.37-33.76-29.13-50.52-43.83-1.46-1.28-3-3.42-3.09-5.21-1.17-32-2.13-63.93-3.11-95.89a21.45,21.45,0,0,1,.33-3h27c2.43,3.53,1.06,7.5,1.36,11.28,1.34,17,1.05,33.95,1.72,50.91.36,9.2.49,18.41,1,27.6a5.73,5.73,0,0,0,2,4.34c15.13,11.52,29.26,24.26,43.82,36.46,24.4,20.44,48.9,40.77,73,61.55a36.67,36.67,0,0,1,4.46,3.78c3.53,4.13,7.75,3.21,11.65,1.16,23.6-12.42,47.91-23.36,71.83-35.11,13.38-6.58,26.91-12.88,40.17-19.72,3.24-1.67,4.4-3.5,4.36-6.66-.25-17.65-.81-35.3-1.43-52.94-.85-24.29-1.29-48.59-2.41-72.87-.16-3.38-.86-7.17,2.47-9.78Z"/><path class="cls-1" d="M1.06,298.5c5.32-2.73,10.53-5.67,16-8,1.32-.58,3.9.26,5.2,1.31Q96.63,352,170.75,412.52a10.57,10.57,0,0,1,3.5,7q1.77,95.93,2.89,191.85c0,3.11-2.8,7.8-5.57,9.16q-70.36,34.5-141.18,68.09c-2.36,1.12-6.73.49-8.95-1.06-7.1-4.92-13.63-10.66-20.38-16.09v-32c3.08-2.14,4.91.37,6.85,2,5.92,4.85,11.81,9.73,17.61,14.72,3.43,3,6.62,3.08,10.5,1.14,21.66-10.86,43.62-21.11,65.39-31.75,16-7.8,32-15.4,47.91-23.35,2.72-1.36,3.64-2.51,3.66-5.8.09-21.37-1-42.72-1.64-64.06-.72-23.49-1.14-47-2.23-70.47-.4-8.66-.11-17.33-1.14-26-.29-2.44-.84-4-2.61-5.46-14.6-12-29.06-24.21-43.53-36.39q-38.34-32.28-76.7-64.54c-3.17-2.68-6.1-3.78-10.06-1.73-2.79,1.45-5.81,2.51-8.65,3.9-1.88.93-3.62,1.29-5.36-.19Z"/><path class="cls-1" d="M1130.06,700.5l-3.3-88.32c-.34-9-.9-18-.81-26.94a8.08,8.08,0,0,1,3.67-6q70.29-34.65,140.85-68.73c1.78-.87,5.35-.32,6.91,1q74.92,62.28,149.47,125a11.49,11.49,0,0,1,3.42,7.56c.82,18.8,1.24,37.61,1.79,56.41h-24c-3.91-4-2.57-9.27-2.57-13.87,0-9.37-.2-18.69-.81-28-.33-5.18-4.23-7-7.28-9.67-19.69-17-39.7-33.72-59.72-50.38-19.59-16.3-38.78-33.1-58.7-49-3.11-2.48-5-1-7.15,0q-23.91,11.72-47.86,23.35c-21.56,10.43-43.14,20.78-64.68,31.23-4.19,2-6,4.79-5.73,9.34,1.14,17.05.53,34.16,1.88,51.21.83,10.61-.57,21.3.75,31.92.22,1.74-1,2.84-2.13,3.94Z"/><path class="cls-1" d="M789.06.5c1.15,34.93,2.33,69.85,3.29,104.79,0,1.44-1.63,3.61-3.05,4.32q-71,35-142.1,69.51a7.32,7.32,0,0,1-6.46-.73Q565.67,114.87,490.91,51a7.87,7.87,0,0,1-2.59-5.05c-.58-15.12-.88-30.26-1.26-45.4h29c1.28,1.09,1.19,2.47,1.29,4.05.55,9.48.71,19,1,28.48a6.51,6.51,0,0,0,2.78,5.18c9.5,7.6,18.76,15.5,28,23.39,13.91,11.87,28,23.51,41.9,35.44,16.72,14.38,34.1,28,50.47,42.78,3.06,2.76,6.47,3.25,10.93,1.08,24.66-12,49.26-24.06,74-35.79,12.53-5.93,24.9-12.24,37.42-18.23,4-1.91,5.81-4.54,5.65-9-.68-18.73-.5-37.49-1.92-56.21-.39-5.19-.16-10.44-.07-15.66A6.43,6.43,0,0,1,770.06.5Z"/><path class="cls-1" d="M480.06.5c.59,17.29,1.26,34.58,1.61,51.88a6.52,6.52,0,0,1-3.17,4.79q-70.75,34.74-141.72,69.06c-1.51.73-4.45.6-5.66-.41Q256.79,63.68,182.71,1.26a6,6,0,0,1-.65-.76h43C232.41,4,237.84,10,244,15c13.37,10.75,26.4,21.92,39.54,32.94,14.26,12,28.53,24,42.67,36.09,2.66,2.28,4.94,2.35,7.85.89,33.35-16.79,67.4-32.16,100.64-49.18,4.21-2.16,8.67-3.81,12.89-6,5.41-2.8,6.69-4.27,5.32-9.61-1.32-5.16-.65-10.22-.72-15.33A4.67,4.67,0,0,1,454.06.5Z"/><path class="cls-1" d="M1537.06,297.5c-11.85-9.6-23.85-19-35.53-28.82q-34.8-29.22-69.25-58.86a11,11,0,0,1-3.6-7c-1.14-32.43-2-64.87-2.91-97.31-.89-30.6-1.32-61.23-3.07-91.79-.52-9,5.22-10.19,10.36-13.23h88c1.66,3.16-1.21,3.71-2.88,4.65-9.08,5.11-18.57,9.4-27.92,14-11.07,5.38-22.09,10.86-33.35,15.84a6.1,6.1,0,0,0-4,6.47c.75,14.81,1.16,29.65,1.52,44.47.43,17.85,1,35.7,1.8,53.53.51,10.77-.26,21.57.74,32.32a179.86,179.86,0,0,1,.59,23.77c-.26,6.23,1.52,10.12,6.51,14.14,13.43,10.81,26.44,22.15,39.69,33.19,9.8,8.18,19.46,16.52,29.29,24.67a13.72,13.72,0,0,1,4,5Z"/><path class="cls-1" d="M94.06,700.5h-61c-1.29-1.49-1-2.62.7-3.59q3-1.75,6.17-3.27,57.26-27.79,114.78-55c5.12-2.42,10.29-4.78,15.18-7.58,5.43-3.12,9.65-1.68,14,2.07,11.47,9.88,23.25,19.39,34.79,29.19,12.42,10.57,25.15,20.76,37.42,31.5,1.83,1.6,5.49,2.91,3,6.67h-37c-5.82-2.94-10.41-7.55-15.41-11.57-8.6-6.91-16.41-14.88-25.53-21-4.28-2.88-10.48-2.86-15.53-.36-14.6,7.21-29.5,13.82-43.94,21.37-1.75.92-3.6,1.67-4.71,3.52a3.62,3.62,0,0,1-2.83,1.86C106.74,694.22,101.13,699.7,94.06,700.5Z"/><path class="cls-1" d="M175.06.5q41.51,35.28,83,70.54c21.89,18.51,44,36.69,65.78,55.37,5.24,4.51,8.85,5.45,15.68,2,33.59-16.94,67.65-32.93,101.55-49.24,13.2-6.36,27.43-11.22,39.28-19.51,8.5-5.94,11.48-1,16.21,3q46.86,39,93.66,78.13,24.76,20.57,49.91,40.65a8,8,0,0,0,6.91.79q72.88-34.53,145.57-69.48c.9-.43,2.25-.74,2.56-1.46,3.86-9,7.28-1.61,9.93.59,48.7,40.43,97.23,81,146,121.39,1.82,1.5,6.24,1.57,8.58.46C1007.5,211,1055.18,188,1102.9,165.1a25.12,25.12,0,0,1,4.55-1.19,27.53,27.53,0,0,1-3.86,2.76c-47,22.77-94.38,45-140.95,68.67-9,4.6-12.95,2.1-19.13-3Q873.4,174.78,802.76,117.85c-2.3-1.86-7.49-2.45-10.17-1.17-36.36,17.34-72.45,35.24-108.75,52.7-13,6.25-26.27,11.92-39.67,17.23-1.94.77-5.72-1.39-7.88-3.15-48.91-39.68-97.67-79.56-146.66-119.13-2.13-1.72-6.9-2.36-9.35-1.19q-71.67,34.15-143,69c-4.22,2.05-6.95,2.14-10.87-1.09Q251.36,69.24,175.84,8c-2.11-1.71-6.94-2.2-9.43-1C118.9,29.91,71.56,53.2,24.09,76.21c-2.25,1.09-5.38.39-8.1.52,1.75-1.84,3.16-4.37,5.29-5.42q69.21-34.12,138.56-68c1.78-.87,3.48-1.9,5.22-2.85Z"/><path d="M573.06,700.5c-12.75-10.81-25.7-21.4-38.14-32.56-3.3-3-7-7.58-7.2-11.57-2-52.91-3.48-105.85-4.83-158.79,0-2.2,1.78-5.6,3.67-6.53q59.13-29.12,118.56-57.58c1.78-.86,5.34-.28,6.9,1q62.09,51.94,123.79,104.35c1.71,1.45,2.84,4.5,2.91,6.84,1.47,50.27,2.74,100.55,4.07,150.83,0,1.33.18,2.65.27,4h-4c-.64-25-1.2-49.9-2-74.85-.79-25.62-1.67-51.24-2.86-76.85a12.83,12.83,0,0,0-3.88-8.35q-59-49.8-118.4-99.06c-1.91-1.58-6.25-2.21-8.45-1.17q-55.28,26.16-110.13,53.15c-2.66,1.32-5.4,5.84-5.33,8.81,1.3,51.76,2.87,103.51,5,155.24.16,3.9,4.46,8.25,7.85,11.28,12.16,10.86,24.75,21.24,37.17,31.8Z"/><path d="M322.06,700.5Q299.53,681.6,277,662.69c-20.7-17.33-41.47-34.57-62-52.07a11.59,11.59,0,0,1-3.69-7.49c-1.45-37.44-2.66-74.9-3.83-112.36-.5-16-1-32-.93-48,0-2.41,2.19-6,4.34-7q58.35-28.45,117-56.21a7.86,7.86,0,0,1,6.88.93q61.58,51.42,122.8,103.28a10.27,10.27,0,0,1,3.32,6.67c1.1,27.79,2,55.6,2.78,83.4.74,25.15,1.56,50.29,1.78,75.44,0,3-2.82,7.37-5.52,8.72-26.78,13.44-53.81,26.36-80.76,39.46-1.77.87-3.41,2-5.11,3h-7c30.24-14.66,60.55-29.18,90.61-44.2,2.66-1.32,5.37-5.86,5.29-8.84Q461,570.31,458.1,493.2a12.81,12.81,0,0,0-4.16-8.29Q395,435,335.66,385.67c-2.19-1.82-7.21-2.52-9.75-1.31q-55.4,26.47-110.35,53.86c-2.33,1.16-4.72,5.11-4.66,7.71q1.66,77.4,4.12,154.79a11.53,11.53,0,0,0,3.6,7.54c27.57,23.63,55.35,47,83.05,70.49,8.5,7.21,16.93,14.5,25.39,21.75Z"/><path d="M1537.06,554.5c-31.65,15.17-63.25,30.45-95,45.3-2.6,1.21-7.62.7-9.78-1.1q-61.1-50.78-121.65-102.19a9,9,0,0,1-3.14-5.71c-2.14-53.53-4.18-107.06-5.83-160.61-.08-2.83,2.67-7.16,5.26-8.44q57.32-28.23,115.07-55.54c2.53-1.2,7.52-.44,9.72,1.39,33.41,27.81,66.53,56,99.75,84,1.74,1.47,3.76,2.61,5.65,3.91v6q-54-45.28-108-90.45c-1.31-1.09-4.49-1.24-6.13-.45q-56.7,27.27-113.13,55c-1.78.87-3.48,4-3.45,6.1.64,38.78,1.53,77.56,2.4,116.34.31,13.49.58,27,1.2,40.45a9.73,9.73,0,0,0,3.09,6.25q60.35,50.93,121,101.45c1.56,1.29,5.33,1.43,7.3.49,32-15.25,63.86-30.77,95.75-46.23Z"/><path class="cls-1" d="M159.06.5c-7.2,3.7-14.32,7.57-21.62,11.07-38,18.26-76.14,36.29-114,54.78-6,2.93-10.44,3.71-15-1.85-2-2.38-4.83-4-7.29-6v-29c2.13-1.55,3.59-.43,5.25,1,4,3.49,8.3,6.64,12.18,10.25,2.47,2.29,4.72,2.33,7.45.92C42,33.37,58.46,25.75,74.76,17.87q14.59-7,29.14-14.21C107.23,2,110.85,2.09,114.06.5Z"/><path d="M1354.06.5c9.63,8.4,19.35,16.7,28.83,25.27,1.78,1.61,3.7,4.21,3.77,6.42q2.76,80.15,4.82,160.3c.07,3-2.77,7.47-5.46,8.79q-57.15,28-114.75,55.16c-2.39,1.13-7,.58-9.07-1.1q-61.1-50.81-121.66-102.25a12.79,12.79,0,0,1-4-8.39c-1.26-36.28-2.09-72.58-3.27-108.87-.39-11.79-1.49-23.55-2.26-35.33h5q.81,31.2,1.63,62.4c.7,27.13,1.33,54.27,2.24,81.4a10.25,10.25,0,0,0,3.22,6.7q59.91,50.64,120.19,100.87a8.74,8.74,0,0,0,7.63,1q56.27-27,112.23-54.62c1.82-.9,4.07-3.48,4-5.22q-2-78.9-4.69-157.79a11,11,0,0,0-3.64-7C1368.11,18.79,1357,9.7,1346.06.5Z"/><path class="cls-1" d="M1.06,74.5c7.87,3,9.36,8.9,9.62,16.84,1.93,59.49,4.44,119,6.59,178.45.59,16.2-.31,17-16.21,21.71Z"/><path d="M845.06,700.5c-.76-28.8-1.31-57.6-2.37-86.38-.73-19.73-2.38-39.43-3-59.16-.09-2.71,2.58-6.85,5.08-8.09q58-28.62,116.38-56.38c2.27-1.08,6.75-.51,8.67,1.11q61,51.35,121.43,103.31a14,14,0,0,1,4.29,9.18c1.08,32.13,1.76,64.27,2.54,96.41h-3c-1-31.79-1.87-63.59-3.1-95.38a12.2,12.2,0,0,0-3.88-8q-59.41-49.73-119.27-98.9c-1.89-1.56-6.25-2-8.49-.95q-55.47,26.37-110.6,53.44c-2,1-4.32,4-4.34,6-.15,20.77-.06,41.54.38,62.31.57,27.14,1.52,54.27,2.3,81.41Z"/><path d="M1.06,331.5a3.2,3.2,0,0,0,.93-.34c13.79-11,23.76-5.06,35.48,5.3,35.28,31.2,71.81,61,107.57,91.65a17.42,17.42,0,0,1,5.37,11.34c1.89,52.74,3.38,105.48,4.75,158.24a7.49,7.49,0,0,1-3.47,5.64Q92.59,632.43,33.2,661c-1.74.83-5.18,0-6.89-1.29-8.59-6.49-16.86-13.4-25.25-20.16v-7C10,640,18.77,647.67,27.86,655a7,7,0,0,0,6.12.55q56.76-27.09,113.26-54.7c1.9-.93,3.82-4.25,3.76-6.4q-2.06-78.64-4.72-157.27a9,9,0,0,0-3.08-5.72q-59.83-50.31-120-100.26c-1.61-1.33-5.21-1.54-7.32-.76-5.12,1.9-9.91,4.68-14.84,7.11Z"/><path d="M1077.06.5c.43,20.79.76,41.58,1.31,62.37.67,25.13,1.62,50.25,2.13,75.38,0,1.83-2,4.56-3.85,5.44q-59,28.77-118.21,57a6.94,6.94,0,0,1-6.08-.79Q890.11,147.83,828.2,95.31c-1.68-1.42-2.59-4.57-2.67-7-.95-29.28-1.68-58.57-2.47-87.86h3c.9,29.77,1.75,59.54,2.8,89.3.06,1.5,1.48,3.29,2.76,4.36Q892,145,952.61,195.51c1.51,1.25,5.09,1.54,6.92.66q56.47-27.07,112.67-54.7c1.82-.89,4.06-3.49,4-5.24C1075,91,1073.51,45.74,1072.06.5Z"/><path d="M770.06.5c.57,26.11,1.34,52.22,1.44,78.34,0,3.11-2.83,7.76-5.62,9.14q-56.57,28-113.64,55c-2.82,1.33-8.32.7-10.69-1.27Q581.12,91.29,521.33,40.19a13.27,13.27,0,0,1-4.26-8.26c-.75-10.45-.73-20.95-1-31.43h3c.26,10.65.37,21.3.92,31.94.1,1.8,1.71,3.94,3.22,5.2Q583.51,88.22,644.06,138.5a7.34,7.34,0,0,0,6.45.81Q707,112.25,763.27,84.64c1.94-1,4-4.14,4-6.24-.51-26-1.39-51.94-2.18-77.9Z"/><path d="M1154.06,700.5c-.89-30.47-1.85-60.94-2.52-91.41,0-1.74,1.79-4.38,3.44-5.18q59.08-28.67,118.41-56.83a7.49,7.49,0,0,1,6.55.91q61.88,51.85,123.4,104.13a9.3,9.3,0,0,1,2.66,6c.86,14.11,1.41,28.25,2.06,42.37h-3c-.54-13.47-.94-26.94-1.76-40.39A11.08,11.08,0,0,0,1400,653q-60-50.54-120.3-100.62a8.38,8.38,0,0,0-7.34-.92q-56.43,27.16-112.56,54.93c-1.8.89-3.95,3.56-3.9,5.34.85,29.6,2,59.19,3.12,88.78Z"/><path d="M259.06,700.5c-8.78-7.76-17.43-15.67-26.37-23.24q-26.1-22.08-52.55-43.73c-1.6-1.3-5.11-1.91-6.9-1.06Q104.57,665.1,36.11,698.19a18.55,18.55,0,0,0-3,2.31h-10c-1.84-3-1.84-3.6.38-4.28,11.18-3.38,21.1-9.5,31.54-14.48,40-19.1,79.74-38.85,119.62-58.27,2.78-1.35,4.52-.76,7,1.12,15.9,12.3,31,25.53,46.53,38.33,13.28,11,26.64,21.89,39.76,33.08,1.66,1.42,2.91,2.42,1.21,4.5Z"/><path class="cls-1" d="M1436.06,700.5c-.75-19-1.3-37.94-2.44-56.88-.2-3.31-2-7.47-4.47-9.57q-74.78-63.64-149.85-126.94c-2-1.75-4.27-4.7-4.35-7.15q-2.85-87.87-5.15-175.77a31.38,31.38,0,0,1,.7-5.24,37.43,37.43,0,0,1,.85,5.1c1.72,57.08,3.34,114.18,5.2,171.26a11,11,0,0,0,3.56,7.11q76,64.53,152.12,128.92c2.67,2.27,5.13,6.41,5.29,9.78.91,19.78,1.1,39.58,1.54,59.38Z"/><path class="cls-1" d="M269.06,700.5c-28.89-24.39-57.71-48.87-86.83-73-2.2-1.81-7.21-2.51-9.75-1.29Q100,661.05,27.94,696.59c-1.83.89-3.26,2.59-4.88,3.91-7.33,0-17.53,2.86-21.19-.8s-.81-13.87-.81-21.2v-2c6.19,4.65,12.66,9,18.46,14.06,4,3.52,7.23,3.72,12,1.4q71-34.86,142.3-69.1c2.55-1.22,7.51-.59,9.74,1.2,29.92,23.9,59.55,48.16,89.23,72.35,1.53,1.25,2.89,2.72,4.32,4.09Z"/><path d="M1537.06,272.5q-39.42-33-78.79-66.15a6.53,6.53,0,0,1-1.78-4.37q-1.63-50.41-3-100.84c-.53-19.47-1.09-38.95-1-58.42,0-3.12,2.89-7.59,5.69-9.09,19.92-10.67,40.16-20.72,60.28-31a15.67,15.67,0,0,0,2.6-2.12h13c-25,11.6-50.08,23.08-74.93,35-2.35,1.13-4.81,5.1-4.75,7.69.85,34.26,2.2,68.51,3.3,102.76.55,17.3.61,34.62,1.46,51.9a14.88,14.88,0,0,0,4.78,9.5c24.22,20.57,48.72,40.81,73.14,61.14Z"/><path d="M230.06.5q31,26.33,62,52.65c11.31,9.57,22.59,19.18,34.17,28.42,1.79,1.42,5.67,2.06,7.66,1.12q56.52-27,112.7-54.64c2.08-1,3.93-4.62,4.05-7.12.33-6.78-.33-13.62-.6-20.43h4c.21,7.81.69,15.64.45,23.44-.06,2.1-1.82,5.15-3.64,6Q392.15,58.75,333.15,87c-1.69.81-4.93.74-6.24-.36Q276.11,44.14,225.62,1.32a4.08,4.08,0,0,1-.56-.82Z"/><path class="cls-1" d="M437.06,700.5q26.31-13,52.62-26a2.73,2.73,0,0,1,2.31-.1c9.74,8.63,19.4,17.35,29.07,26h-28c-5-3-10-1.31-15,0Z"/><path class="cls-1" d="M1537.06,311.5q-33.54-28-67.08-56.05c-13.92-11.66-27.78-23.4-41.7-35.06-1.24-1-3-2.76-4.1-2.45-8,2.32-6.22-3.44-6.31-7.42q-1.53-66-2.95-131.9c-.24-10.82-.63-21.63-.9-32.45a23.39,23.39,0,0,1,.42-3.4,17,17,0,0,1,.66,3.09c1.12,38.12,2.15,76.24,3.33,114.35.49,15.82,1.11,31.63,2.13,47.42.15,2.32,2.4,5,4.38,6.66q53.55,45.06,107.29,89.89c1.65,1.39,3.22,2.88,4.83,4.32Z"/><path d="M1.06,23.5a23.26,23.26,0,0,1,3.77,3.25c11.26,15,23.33,14.14,38.72,4.95,18-10.78,37.73-18.76,56.68-28A43.33,43.33,0,0,0,105.06.5h9c-29.5,14.28-59,28.63-88.57,42.69-2,.93-5.52.43-7.4-.82-5.92-3.93-11.38-8.53-17-12.87Z"/><path d="M219.06,700.5c-9.4-8.31-19.66-15.84-28-25.11-10.81-12-20.71-12.58-34.5-4.42-17.08,10.11-35.69,17.66-53.61,26.37a50.48,50.48,0,0,0-4.91,3.16h-4c26.23-12.83,52.45-25.7,78.73-38.41a5.09,5.09,0,0,1,4.46.4c15,12.58,29.9,25.31,44.81,38Z"/><path class="cls-1" d="M1414.06.5q0,16.2,0,32.41a12.43,12.43,0,0,1-.47,2.37,7.42,7.42,0,0,1-.49-2.33c1.61-13.22-.38-25-13-32.45Z"/><path class="cls-1" d="M808.06,700.5q-.46-37.39-.9-74.79a8.28,8.28,0,0,1,.41-1.86,9.8,9.8,0,0,1,.4,1.89q1.06,37.38,2.09,74.76Z"/><path d="M478.06,700.5c5-2.64,10-6.34,15,0Z"/><path class="cls-1" d="M957.27,344.35c0,31.49.16,63-.25,94.46,0,3.17-2.8,7.84-5.58,9.2q-71.09,34.77-142.62,68.63c-2.36,1.12-6.93.6-8.94-1q-74.29-60.36-148.12-121.27a9.29,9.29,0,0,1-3-6.2q-1.68-96.45-2.87-192.91a7.94,7.94,0,0,1,3.67-5.95q71.87-35.76,144-70.95c2.09-1,6.25-.42,8.11,1.08q74.26,60,148.07,120.54a14,14,0,0,1,4.5,9.45c.33,31.65.2,63.3.2,95Z"/><path class="cls-1" d="M643.48,292.86c0,31.49.14,63-.23,94.45,0,2.87-2.7,7.07-5.29,8.34q-70.85,34.65-142.11,68.47c-2.34,1.11-6.93.43-9-1.24q-73-59.11-145.52-118.87c-3.28-2.71-6.08-8.08-6.17-12.27q-2-93.69-3-187.38c0-2.88,2.62-7.21,5.2-8.48q71.24-35.05,142.87-69.27c2.24-1.07,6.61-.54,8.56,1q74.07,59.79,147.69,120.17a13.51,13.51,0,0,1,4.44,9.11c.32,32,.19,64,.19,95.94Z"/><path class="cls-1" d="M17.86,183.28c0-31.65-.14-63.29.23-94.93,0-2.94,2.52-7.31,5.07-8.55q71.81-35,144-69.09a8.47,8.47,0,0,1,7.38.84Q249.47,71.9,324,132.69a9.83,9.83,0,0,1,3.27,6.59c1.13,63.47,2,126.93,3.12,190.4.09,5.18-1.35,7.93-6.21,10.25-47.31,22.6-94.44,45.55-141.78,68.08-2.47,1.17-7.27.6-9.41-1.12q-73.75-59.4-147-119.4c-2-1.65-4-4.81-4-7.29-.26-32.3-.17-64.61-.17-96.92Z"/><path class="cls-1" d="M960.19,293c0-15.64-.17-31.29.18-46.92,0-2.32,2-5.73,4-6.72Q1034.53,205,1105,171.17a8.24,8.24,0,0,1,7.27.89q74.64,62.28,148.84,125.07c2.34,2,3.73,6.24,3.85,9.5,1.33,37.44,2.29,74.9,3.43,112.36.81,26.46,1.84,52.92,2.4,79.39,0,2.4-2,6.09-4.15,7.13q-70.35,34.57-141,68.49a8.26,8.26,0,0,1-7.23-1q-60.3-50.22-120.25-100.82c-8.39-7.07-16.1-15-24.74-21.71-5.44-4.25-7.41-9-7.53-15.66-.41-22.65-1.56-45.28-1.88-67.92-.35-24.63-.08-49.27-.08-73.91Z"/><path class="cls-1" d="M960,418.73c.35,6.36.84,15.13,1.26,23.89,0,.65-.51,1.32-.78,2a6.69,6.69,0,0,1-.56-1.82q-.4-18.89-.72-37.78a8.27,8.27,0,0,1,.52-2.07,16,16,0,0,1,.27,1.93C960,408.69,960,412.5,960,418.73Z"/><path class="cls-1" d="M1053.36,522.61v1.28a4.91,4.91,0,0,1-1.74-.5q-7.69-6.33-15.29-12.77c-.38-.33-.44-1.05-.65-1.58.3,0,.7-.14.88,0C1042.24,513.61,1047.91,518.2,1053.36,522.61Z"/><path class="cls-1" d="M1270,300.45c0-.5,0,0,0,.48-.16,1.38-.35,2.76-.53,4.14a37.79,37.79,0,0,0-.45-3.85,31.46,31.46,0,0,0-1.24-4.12c-.48-1.3-1.1-2.56-1.65-3.83l2.69-1a39.22,39.22,0,0,1,1.37,4.27A19.14,19.14,0,0,1,1270,300.45Z"/><path d="M930.68,415.15c5.12,14.8-.68,19.09-9.45,23.21-36.3,17.06-72.22,34.93-108.47,52.13-2.57,1.22-7.6.64-9.77-1.17q-60.4-50.49-120.24-101.66a14.22,14.22,0,0,1-4.66-9.1c-1.16-28.46-1.85-56.93-2.65-85.41-.7-24.3-1.52-48.61-1.82-72.93,0-2.6,2.48-6.33,4.86-7.67,8-4.49,16.44-8,24.63-12.13,29.59-14.75,59.06-29.72,88.81-44.12,2.9-1.4,8.62-.74,11.08,1.3Q863.77,208,923.89,259.26a12.35,12.35,0,0,1,4.15,7.82c1.12,25.46,2.14,50.93,2.55,76.4C931,368.79,930.68,394.1,930.68,415.15Z"/><path d="M361.93,165.53c-2.54-7.2,3.05-11.2,11.31-15,37.11-17.31,73.91-35.28,111-52.75,2.05-1,6-.62,7.71.79q61.62,51.78,122.8,104.08a11,11,0,0,1,3.21,7.22c1.41,40.13,2.59,80.26,3.79,120.38.4,13.16.92,26.32.87,39.47,0,2.31-2,5.75-4.05,6.75q-58.24,28.71-116.8,56.76a7.92,7.92,0,0,1-7-.82q-62-51.76-123.56-103.95a8.36,8.36,0,0,1-2.71-5.43c-1.46-42.12-2.66-84.25-4.12-126.38C364,187.18,362.91,177.77,361.93,165.53Z"/><path d="M308.74,302.6c4,11.36-3.39,16.73-14.6,21.89-35.07,16.11-69.57,33.46-104.47,50-2.59,1.22-7.57.68-9.76-1.1-19.65-16-38.77-32.57-58.33-48.65-20.93-17.21-42.28-33.9-63.13-51.21a15.66,15.66,0,0,1-5.09-10.31q-2.88-79.12-4.79-158.27c-.07-3.1,2.87-7.8,5.68-9.19Q111.78,67.34,169.79,40c2.47-1.17,7.32-.59,9.4,1.16q60.62,51,120.66,102.63a15.27,15.27,0,0,1,4.73,9.95C306.17,202.63,307.38,251.57,308.74,302.6Z"/><path d="M986.35,314.41c0-15.15-.26-30.31.23-45.45.09-2.82,2.48-6.85,4.94-8.1,18.69-9.5,37.78-18.22,56.52-27.63,19.11-9.61,37.85-20,57-29.38,2.81-1.38,8.41-.77,10.79,1.22q60.58,50.66,120.51,102.09a14.3,14.3,0,0,1,4.72,9.09c1.14,26.12,1.83,52.26,2.56,78.39.75,27,1.52,53.95,1.86,80.93,0,2.51-2.32,6.29-4.59,7.4q-58.05,28.48-116.46,56.23c-2,.93-5.74.66-7.32-.67q-62-51.73-123.5-104a9.63,9.63,0,0,1-3.1-6.28c-1.14-38-2-75.92-3-113.88Z"/><path class="cls-2" d="M1046.56,235l-15.5,8"/><path class="cls-2" d="M1011.56,252l-7.5,4"/><path class="cls-2" d="M1346.56,1l3.5,1"/><path class="cls-2" d="M1536.56,361v-1.5"/><path class="cls-2" d="M1306.56,441c.34.5.67,1,1,1.5"/><path class="cls-2" d="M718.56,194l-13.5,7"/><path class="cls-2" d="M691.56,207l-13.5,7"/><path class="cls-2" d="M674.56,232c.34,1.17.67,2.33,1,3.5"/><path class="cls-2" d="M675.56,265c.34,1.83.67,3.67,1,5.5"/><path class="cls-2" d="M676.56,298c.34,1.83.67,3.67,1,5.5"/><path class="cls-2" d="M437.56,668l7.5-4"/><path class="cls-2" d="M464.56,642c-.33-1.17-.66-2.33-1-3.5"/><path class="cls-2" d="M463.56,607l-1-1.5"/><path class="cls-2" d="M306.56,685l1.5,1"/><path class="cls-2" d="M1533.56,1l-4.5,1"/><path class="cls-2" d="M1479.56,24c-6.5,3.17-12.78,7-19.55,9.33-7.7,2.7-7.92,7.81-6.45,14.17"/><path class="cls-2" d="M1453.56,69c.34,3.17.67,6.33,1,9.5"/><path class="cls-2" d="M76.56,52l-9.5,5"/><path class="cls-2" d="M47.56,66l-15.5,8"/><path class="cls-2" d="M843.56,612l1,1.5"/><path class="cls-2" d="M1406.56,700c-.33-1.5-.66-3-1-4.5"/><path class="cls-2" d="M953.56,242c-24.66-20.33-49.25-40.76-74-61Q840.44,149.1,801,117.62c-1.59-1.27-5.07-1.82-6.83-1Q734.74,145.11,675.57,174c-1.21.59-2.34,1.32-3.51,2"/><path class="cls-2" d="M198.56,634l1.5,1"/><path class="cls-2" d="M204.56,639l1.5,1"/><path class="cls-2" d="M1053.56,187l-13.5,7"/><path class="cls-2" d="M1028.56,199c-23.83,11.67-47.63,23.41-71.58,34.82-1.51.72-4.74-.57-6.34-1.91Q899.49,189.09,848.56,146"/><path class="cls-2" d="M597.56,144l1.5,1"/><path class="cls-2" d="M164.56,1l-14.5,6"/><path class="cls-2" d="M138.56,12l-13.5,7"/><path class="cls-2" d="M99.56,31l-1.5,1"/><path class="cls-2" d="M268.56,700h-1.5"/><path class="cls-2" d="M175.56,620l-9.5,5"/><path class="cls-2" d="M113.56,1l-4.5,1"/><path class="cls-2" d="M957.56,408q.51,12.75,1,25.5"/><path class="cls-2" d="M1432.56,1l-4.5,1"/></g></g></svg>