<svg xmlns="http://www.w3.org/2000/svg" viewBox="0 0 1536.5 700.5"><defs><style>.cls-1{fill:none;stroke:#000;stroke-linecap:round;stroke-linejoin:round;stroke-width:2px;}</style></defs><title>Asset 1</title><g id="Layer_2" data-name="Layer 2"><g id="Layer_1-2" data-name="Layer 1"><path d="M1125.5.5c7.18,17.22,14.31,34.45,21.53,51.65q54.26,129.21,108.55,258.4c4.4,10.47,4.09,11.09-7.26,11.09-42.66,0-85.31-.1-128,.07-40.81.17-81.61.6-122.42,1-5.82.06-11.63.67-17.45.73-7.23.08-9.65-3-6.62-10.08Q1008.51,232,1043,150.49q31.79-75,63.55-150h9q-41.31,97.85-82.64,195.67c-15.57,36.83-31.13,73.66-46.95,110.38-2.53,5.87-2.93,8.06,4.9,8.06,46.31,0,92.62.54,138.93.89,38.48.28,77,.49,115.44.88,4.89.05,6.23-.95,4.13-5.87q-52.18-122.82-104.22-245.7c-9.19-21.58-19-42.88-28.59-64.31Z"/><path d="M460.5.5Q502.26,98.95,544,197.41c16.1,38.05,32,76.18,48.07,114.24,2.58,6.11.61,8.08-5.69,8.07q-136-.12-271.94,0c-7,0-8-2.67-5.49-8.62q44-103.73,87.93-207.53Q418.71,52.05,440.5.5h8q-46,108.3-92,216.6c-12.56,29.58-25,59.23-37.74,88.73-2.47,5.71-.89,6.73,4.67,6.75q126.91.24,253.83.88c7.08,0,7.52-1.53,4.91-7.63Q518.27,156,454.69,6.08c-.79-1.83-1.46-3.72-2.19-5.58Z"/><path d="M790.5.5C806,38.22,821.29,76,837.1,113.63Q878.46,212,920.37,310.09c4.67,11,4.44,11.48-7.63,11.49q-101.73,0-203.45.15c-21,0-42,.41-62.93.86-7.38.16-9.43-2.75-6.64-9.44C657,272,674.06,230.74,691.41,189.62Q731.33,95,771.5.5h9c-14.8,35.32-29.49,70.7-44.43,106Q693,208.15,649.63,309.69c-1.91,4.46-1.1,5.88,3.81,5.79,11.15-.21,22.32-.09,33.48,0q111.2.45,222.38,1c6.15,0,7.77-.7,5-7.13Q856.22,173.88,798.48,38.25c-5.42-12.68-11.31-25.17-17-37.75Z"/><path d="M476.5,700.5q12.22-29,24.44-58,53-126.48,105.88-253a13.68,13.68,0,0,1,1.07-2.79c1.62-2.23,3.42-4.35,5.14-6.52,2.14,2,5.16,3.64,6.26,6.12q15,33.81,29.34,67.87,52,123.1,103.87,246.28h-11c-9.1-21.81-18.12-43.66-27.33-65.43q-49.27-116.43-98.69-232.8a32.3,32.3,0,0,0-2.47-4.14,32.12,32.12,0,0,0-2.49,4.11q-48.49,114-97,228.11c-9.19,21.58-18.79,43-28.17,64.5-.79,1.81-1.27,3.76-1.89,5.65Z"/><path d="M.5,413.5c9.68,22.47,19.44,44.9,29,67.41q40,94,79.9,188.11a31,31,0,0,0,2.28,3.77,25,25,0,0,0,2.53-3.88q65.55-154,131.09-308.07c2.35-5.52-.59-5.32-4.4-5.32q-116.2.09-232.43.11c-2.66,0-5.33-.08-8-.13v-6q123.21,0,246.41,0c6.55,0,8.13,2.26,5.44,8.59q-68.08,160.55-136,321.18c-1,2.24-3,4-4.6,6-1.6-1.9-3.79-3.56-4.72-5.74Q55.18,557.41,3.5,435.22c-.84-2-2-3.82-3-5.72Z"/><path d="M136.5,700.5q45.19-107,90.4-214c14.56-34.51,29-69.09,43.67-103.55,1.17-2.76,3.91-4.85,5.92-7.24,1.8,2.38,4.2,4.51,5.33,7.17Q347.9,538.83,413.74,694.83c.76,1.82,1.18,3.78,1.76,5.67h-7q-35.28-83-70.55-166-29.77-70.14-59.5-140.3a21.81,21.81,0,0,0-2.07-3.23,27,27,0,0,0-2.87,4.29Q209,546.74,144.62,698.27c-.33.76-.75,1.49-1.12,2.23Z"/><path d="M1536.5,325.5q-114.91,0-229.83.14c-7.31,0-6.39-3.59-4.37-8.36q46.86-110.88,93.61-221.81c13.31-31.61,26.4-63.31,39.59-95h15a38.41,38.41,0,0,0,1.28,4.28Q1477.55,65.91,1503.4,127q16.45,38.79,33.1,77.49v16c-7.64-17.35-15.42-34.64-22.88-52.07Q1479.33,88.26,1445.22,8a39.73,39.73,0,0,0-2.12-3.82,22.82,22.82,0,0,0-2.7,3.87q-60.86,142.17-121.61,284.4c-3.14,7.35-6,14.84-9.37,22.08-2.08,4.47-1.15,5.94,3.74,5.86,23.81-.37,47.62-.86,71.43-.8,50.64.13,101.27.59,151.91.91Z"/><path d="M1536.5,364.5q-106.47,0-213,0c-5.59,0-6.51,1.2-4.31,6.39q65,153.18,129.87,306.44a31.78,31.78,0,0,0,2.83,4.45c1-1.72,2.07-3.37,2.84-5.17q39.69-93.36,79.36-186.73c.64-1.51,1.57-2.9,2.36-4.35v14q-27.33,64.39-54.67,128.79c-8.65,20.4-17.21,40.83-26,61.18-.76,1.78-2.65,3.06-4,4.58-1.4-1.5-3.36-2.75-4.11-4.52q-68.88-161.85-137.61-323.77c-2.47-5.8-.22-7.43,5.43-7.42q110.46.17,220.94.16Z"/><path d="M1429.5,700.5q-22.62-53.65-45.25-107.3Q1334,474.73,1283.54,356.3c-.77-1.79-1.81-3.47-2.72-5.2a46.54,46.54,0,0,0-3.16,5.39q-59.92,141.81-119.77,283.66-12.72,30.17-25.39,60.35h-8q44.4-104.09,88.8-208.16,31.6-74.23,63.12-148.52c.82-1.92,2.82-3.34,4.28-5,1.45,1.64,3.48,3.05,4.29,5q72.33,170.93,144.47,341.93c2.07,4.9,4,9.84,6,14.77Z"/><path d="M1147.5,700.5c17.69-42.07,35.28-84.18,53.09-126.2q37.82-89.28,76-178.39c1.32-3.09,4.1-5.55,6.21-8.31,1.73,2.57,3.92,4.94,5.13,7.74q48,111.81,95.8,223.72c11,25.72,21.28,51.71,31.86,77.59a25.74,25.74,0,0,1,.93,3.85h-6c-19-44.37-38.08-88.69-56.9-133.13q-34.18-80.73-68-161.61a35.5,35.5,0,0,0-2.66-4.4,47.83,47.83,0,0,0-2.35,4.33Q1230.76,523.23,1181,640.78c-8.44,19.94-17,39.82-25.52,59.72Z"/><path d="M159.5.5Q193.22,80.36,227,160.21q24.83,58.66,49.83,117.26a33.45,33.45,0,0,0,2.79,4.49,27.48,27.48,0,0,0,2.58-4Q340.34,141.16,398.43,4.33A30.51,30.51,0,0,0,399.5.5h8c-16.26,38.86-32.41,77.76-48.8,116.56q-36.81,87.21-74,174.27c-1,2.31-3.43,4-5.19,6-1.67-1.84-4-3.41-4.92-5.57Q213.75,148.52,153.14,5.21C152.49,3.68,152,2.07,151.5.5Z"/><path d="M761.5,700.5c-10.57-25.36-21-50.77-31.73-76.08q-24.91-58.89-50.07-117.69-32-75.18-64-150.35a18.21,18.21,0,0,0-2.54-3.43,30.5,30.5,0,0,0-2.24,3.69Q554.64,488.54,498.4,620.46q-17,40-33.9,80h-5c17.7-42.43,35.29-84.9,53.12-127.27q47.67-113.31,95.65-226.49c1.11-2.63,3.58-4.69,5.41-7,1.7,2.28,3.94,4.34,5,6.89q75,176.9,149.8,353.89Z"/><path d="M829.5.5Q863.22,80.38,897,160.26q24.51,58,49.12,116c.83,2,2,3.78,3,5.66a42.14,42.14,0,0,0,3.21-5.27q57.65-134.88,115.21-269.8c.92-2.14,2-4.21,3-6.32h5c-8.32,20.33-16.49,40.72-25,61Q1002.73,175.29,954.69,289c-1.13,2.67-3.44,4.86-5.2,7.27-2.06-2.37-4.89-4.41-6.06-7.16q-42.66-100-85-200.09Q841,47.83,823.56,6.64c-.84-2-1.38-4.09-2.06-6.14Z"/><path d="M424.5,700.5c-9.95-24.16-19.8-48.36-29.88-72.46-11.95-28.58-24.09-57.07-36.17-85.59q-39.54-93.32-79.15-186.63a43.23,43.23,0,0,0-3.49-5.65c-1,1.87-2.13,3.68-2.95,5.62Q200.79,526,128.78,696.21a39.22,39.22,0,0,0-1.28,4.29h-7q75.74-178.18,151.55-356.33c.88-2.07,2.89-3.67,4.37-5.49,1.51,1.76,3.61,3.28,4.46,5.31,25.7,61.29,51,122.75,76.95,183.91,23.56,55.46,47.88,110.6,71.81,165.9a49.83,49.83,0,0,1,1.86,6.7Z"/><path d="M812.5,700.5q41.94-99.18,83.88-198.35,24.25-57.3,48.73-114.49c.91-2.11,3.79-3.39,5.75-5.05,1,2.29,1.94,4.57,2.88,6.87,4.26,10.46,8.35,21,12.8,31.36q59,137.82,118,275.59c.59,1.38,1.28,2.72,1.92,4.07h-6q-32.4-76.9-64.79-153.82-30.93-73.74-61.66-147.56a18.48,18.48,0,0,0-2.51-3.45,17.72,17.72,0,0,0-2.56,3.4q-63.26,148.79-126.4,297.6a30.54,30.54,0,0,0-1.08,3.83Z"/><path d="M1097.5,700.5c-8.73-21.06-17.32-42.18-26.21-63.17q-59.4-140.31-119-280.53a41.77,41.77,0,0,0-3.51-5.62c-1,1.88-2.1,3.7-2.93,5.64q-71.83,169.5-143.62,339c-.65,1.54-1.17,3.12-1.75,4.68h-6q44-104,88-208.09,31.46-74.32,63.11-148.59c.64-1.49,2.27-2.56,3.44-3.82,1.27,1.4,3,2.59,3.74,4.23Q993,439,1033.12,533.83q34.31,81,68.63,162c.65,1.53,1.17,3.11,1.75,4.67Z"/><path d="M496.5.5C512,37.71,527.28,75,542.92,112.12q34.43,81.74,69.23,163.32a51,51,0,0,0,3.06,5.36,57.09,57.09,0,0,0,3.08-5.56Q675.86,139,733.37,2.73c.32-.77.75-1.49,1.13-2.23h7c-7.76,18.56-15.44,37.15-23.3,55.67q-48.86,115.19-97.89,230.3c-1.08,2.54-3.27,4.61-4.94,6.9-1.75-2.16-4.13-4.05-5.18-6.52Q556.85,161.36,503.73,35.77C498.74,24,493.58,12.25,488.5.5Z"/><path d="M1159.5.5Q1219.35,142.27,1279.22,284a25.82,25.82,0,0,0,2.57,3.94,36.51,36.51,0,0,0,2.46-4.22q59.63-139.68,119.17-279.4A28.94,28.94,0,0,0,1404.5.5h6q-39.43,93.17-78.85,186.33c-14.9,35.29-29.56,70.67-44.51,105.94-1.25,3-3.85,5.36-5.83,8-1.78-2.65-4-5.1-5.28-8Q1214.59,149,1153.32,5.15c-.66-1.53-1.22-3.1-1.82-4.65Z"/><path d="M118.5.5q66.29,156.14,132.68,312.24c3.37,7.92,1.12,9.95-6.83,9.9-37.48-.22-75,0-112.45-.17-43.8-.2-87.6-.64-131.4-1v-5c78.47-.37,157-.84,235.42-.95,8,0,8.17-2,5.37-8.54Q176.21,153.83,111.5.5Z"/><path d="M1092.5.5,1049,103.6q-47,111.42-93.71,223c-.36.86,2.77,4.61,4.29,4.63q96.43.85,192.89,1.13c37.46,0,74.92-.68,112.39-.91,5.07,0,5.47-1.57,3.62-5.92Q1210.25,188.2,1152.19,50.82c-7.06-16.7-13.8-33.54-20.69-50.32h6q49.05,116.52,98.17,233c13.2,31.13,27,62,40.74,92.91,3.54,8,.28,10.31-7.21,10.26-58.64-.37-117.28-.91-175.92-.95-46.31,0-92.63.5-138.94,1-5.82.06-6.9-1.35-4.59-6.79q60.07-141.2,119.9-282.49Q1079.59,24,1089.5.5Z"/><path d="M674.47,203.58c-8.46,20.62-16.86,41.26-25.38,61.86S632,306.3,623.69,326.83c-.38.95,2,4.35,3,4.36q121.66.75,243.33,1c21.47.05,42.94-.68,64.42-.79,4.74,0,5.35-1.31,3.59-5.45Q875.62,179.11,813.34,32.14C809,21.78,805.43,11.06,801.5.5h5C821.33,35.78,836,71.13,851,106.32Q897.85,215.94,945,325.44c3.89,9.1,2.38,11.27-7.58,11.23-69.65-.3-139.29-.79-208.94-.9-34.82,0-69.63.47-104.45,1-5.8.08-7.15-.72-4.52-6.74,17.64-40.47,34.88-81.11,52.28-121.68A43.73,43.73,0,0,1,674.47,203.58Z"/><path d="M428.5.5q-40.22,94.49-80.4,189-29,68.32-57.42,136.86c-.48,1.15,1.65,4.92,2.57,4.92q138.44.76,276.88,1c10.82,0,21.63-.15,32.44.05,4.59.09,5.5-1.1,3.68-5.44C580,264.4,554.09,201.76,527.77,139.28,508.24,92.92,488.27,46.75,468.5.5h4Q541.95,163.75,611.5,327c3,6.92,1.36,8.84-5.8,8.83q-116.44-.18-232.87-.06c-27.15,0-54.3.49-81.44.85-5.87.07-7.27-1.75-4.83-7.47q49-114.68,97.62-229.47Q404,52.94,423.59,6.15c.77-1.83,1.28-3.76,1.91-5.65Z"/><path d="M.5,331.5q130-.11,260-.09c6.91,0,7.66-1.32,5-7.57Q198,164.63,130.82,5.26A38,38,0,0,1,129.5.5h4q61.2,144.15,122.43,288.31c5.33,12.57,10.57,25.19,16.32,37.57,3.49,7.52.2,9.33-6.46,9.24-23.3-.29-46.61-.8-69.91-.86Q98.19,334.48.5,334.5Z"/><path d="M1423.5.5q-32.73,77-65.44,154.1-36.82,87-73.28,174.1c-.39.92,2.14,4.41,3.35,4.43,18.66.32,37.33.21,56,.3q80.72.39,161.43.81c10.31,0,20.63-.48,31-.74v4q-126.69.11-253.37.28c-6,0-4.62-2.76-3.17-6.17q47.24-111,94.44-222Q1397.54,55.08,1420.5.5Z"/><path d="M.5,239.5c19.91-46.66,39.93-93.28,59.7-140,13.94-32.93,27.55-66,41.3-99h6c-7.18,17.34-14.24,34.73-21.56,52Q44.5,150.37,2.88,248.17A46.82,46.82,0,0,1,.5,252.5Z"/><path d="M75.5.5Q54.3,50.95,33.11,101.39,18.45,136.16,3.59,170.85c-.84,2-2,3.77-3.09,5.65v-16c10.09-23.57,20.25-47.11,30.27-70.71Q49.72,45.18,68.5.5Z"/><path d="M97.5,700.5Q64.23,622,31,543.58,17.31,511.38,3.5,479.22c-.85-2-2-3.82-3-5.72v-12c7,16,14.17,31.88,21,47.95q39.12,92.4,78,184.9c.83,2,1.35,4.1,2,6.15Z"/><path d="M1536.5,533.5q-29.87,70.46-59.73,140.92c-3.7,8.72-7.51,17.39-11.27,26.08h-6q36.95-86.68,73.91-173.37a60.5,60.5,0,0,1,3.09-5.63Z"/><path d="M1536.5,176.5Q1514.45,125.75,1492.4,75c-8.76-20.13-17.67-40.2-26.32-60.37-1.94-4.54-3.07-9.42-4.58-14.15h5q28.57,66.61,57.13,133.23c4.49,10.51,8.59,21.18,12.87,31.77Z"/><path d="M.5,202.5q33.87-80,67.71-160C74.1,28.55,79.74,14.5,85.5.5h3Q67.88,49.21,47.24,97.91,25,150.29,2.72,202.65A36.16,36.16,0,0,1,.5,206.5Z"/><path d="M761.5.5C753.9,18.73,746.41,37,738.66,55.18Q708.06,127,677.25,198.71a42.57,42.57,0,0,1-2.72,4.71c8.46-20.61,16.84-41.24,25.37-61.82Q729.15,71,758.5.5Z"/><path d="M663.24,352.51c31.13,0,62.25-.1,93.38,0,54.14.2,108.27.58,162.41.75,6.24,0,8.28,1.81,5.63,8Q859.23,515.14,794,669c-2.09,4.91-4,9.91-6.37,14.67-1.08,2.15-3.15,3.8-4.78,5.68-1.7-1.88-4-3.49-5-5.69C769.27,664,761,644.13,752.57,624.35q-55.08-130-110.26-259.91c-3.22-7.56-3.75-11.95,6.47-11.47,4.79.23,9.63-.47,14.44-.75Zm120,8v.07c-42.82,0-85.65.06-128.47-.08-4.84,0-5.92,1.2-3.84,5.65,3.38,7.24,6.52,14.6,9.64,22q60.1,142,120.19,283.94a38.39,38.39,0,0,0,2.15,3.79,24.2,24.2,0,0,0,2.66-4q64.7-152.5,129.38-305c2.25-5.29,1.33-6.48-4.24-6.46C868.26,360.58,825.77,360.51,783.28,360.51Z"/><path d="M318.8,351.47q130.2,0,260.42-.11c8.41,0,9.17,2.6,6.15,9.73q-67,158.1-133.64,316.33c-1.52,3.59-3.76,6.87-5.66,10.3-2.49-3.44-5.74-6.55-7.36-10.36q-67.33-157.93-134.4-316c-4.16-9.78-3.35-11.08,7.49-11h7Zm138.75,5.14c0,.62,0,1.24,0,1.86q-69.65,0-139.31-.06c-5.32,0-5.25,2.08-3.52,6,6.64,15.28,13.14,30.61,19.62,46q54.92,130,109.82,260.05a25.27,25.27,0,0,0,2,3.27,20,20,0,0,0,2.16-3.18c3.56-8.26,7-16.57,10.53-24.84Q519,504.62,579.29,363.57c2.44-5.71,1.21-7.08-4.8-7.05C535.51,356.7,496.53,356.61,457.55,356.61Z"/><path d="M992.22,356.35q129,0,257.94-.07c6,0,7.72,1.12,5.06,7.39q-68.29,161.06-136.31,322.22c-.69,1.63-2.39,2.82-3.61,4.22-1.24-1.45-2.92-2.72-3.64-4.39-7.71-17.9-15.23-35.89-22.87-53.82q-56.18-131.68-112.41-263.36c-5.82-13.63-5.89-13.63,8.85-13.22,2.33.06,4.66,0,7,0Zm126.42,4.18v.05c-29.5,0-59-.08-88.5,0q-22.23.09-44.43,1c-1.06,0-3.29,4-2.78,5.23,15.48,37.05,31.36,73.93,46.92,111q41.43,98.59,82.62,197.27a34.08,34.08,0,0,0,3,4.84,48.17,48.17,0,0,0,2.59-4.65q65.58-154.08,131.2-308.13c2.53-5.92.73-6.7-4.67-6.68C1202.63,360.59,1160.63,360.53,1118.64,360.53Z"/><path class="cls-1" d="M481,26l1,1.5"/><path class="cls-1" d="M483,31q18.5,43.25,37,86.5,13,30.5,26,61"/><path class="cls-1" d="M547,182l2,3.5"/><path class="cls-1" d="M550,189l2,3.5"/><path class="cls-1" d="M553,196l1,1.5"/><path class="cls-1" d="M556,203l1,1.5"/><path class="cls-1" d="M287,331q37-87.26,74-174.49,25.11-59.05,50.5-118C416.91,26,422.5,13.5,428,1"/><path class="cls-1" d="M1444,2h-2.5"/><path class="cls-1" d="M1423,1c-4.5,9.83-9.21,19.58-13.46,29.52Q1380.67,98,1352,165.5"/><path class="cls-1" d="M1350,171l-1,1.5"/><path class="cls-1" d="M1347,178l-1,1.5"/><path class="cls-1" d="M1345,183l-2,3.5"/><path class="cls-1" d="M1342,190l-1,1.5"/><path class="cls-1" d="M1339,197l-1,1.5"/><path class="cls-1" d="M1337,202l-2,3.5"/><path class="cls-1" d="M1334,209l-2,3.5"/><path class="cls-1" d="M1331,216l-1,1.5"/><path class="cls-1" d="M1328,223l-1,1.5"/><path class="cls-1" d="M1325,230l-29,67.5"/><path class="cls-1" d="M1295,301l-2,3.5"/><path class="cls-1" d="M1292,308l-1,1.5"/><path class="cls-1" d="M1289,315l-1,1.5"/><path class="cls-1" d="M1286,322l-1,1.5"/><path class="cls-1" d="M1284,327l-2,3.5"/><path class="cls-1" d="M1092,1.5l-19,43"/><path class="cls-1" d="M1066,61l-1,1.5"/><path class="cls-1" d="M1064,66c-11.5,26.67-23.08,53.3-34.48,80Q1005.66,202,982,258c-3,7.16-6,14.33-9,21.5"/><path class="cls-1" d="M759,5l-2,3.5"/><path class="cls-1" d="M756,12q-16.25,38-32.49,76-21.06,49.48-42,99-23.57,55.73-47,111.5c-4.44,10.52-9,21-13.43,31.52-.42,1-.06,2.31-.06,3.48"/><path class="cls-1" d="M219,207l-1-1.5"/><path class="cls-1" d="M216,200l-1-1.5"/><path class="cls-1" d="M213,193l-1-1.5"/><path class="cls-1" d="M208,181l-1-1.5"/><path class="cls-1" d="M205,174l-1-1.5"/><path class="cls-1" d="M202,167l-1-1.5"/><path class="cls-1" d="M191,141l-1-1.5"/><path class="cls-1" d="M177,108l-1-1.5"/><path class="cls-1" d="M613,380v1.5"/><path class="cls-1" d="M952,392.5l9,19"/><path class="cls-1" d="M962,415l2,3.5"/><path class="cls-1" d="M965,422l1,1.5"/><path class="cls-1" d="M1,414l1,5.5"/><path class="cls-1" d="M2,247l-1,5"/><path class="cls-1" d="M1,462l1,4.5"/><path class="cls-1" d="M88,1.5C83,12.33,77.71,23,73.05,34Q42.12,107,11.52,180C7.9,188.62,4.5,197.33,1,206"/><path class="cls-1" d="M2,172l-1,4"/><path class="cls-1" d="M951.5,333.75,948,335.5"/></g></g></svg>