<svg xmlns="http://www.w3.org/2000/svg" viewBox="0 0 1537 700.51"><defs><style>.cls-1{fill:none;stroke:#000;stroke-linecap:round;stroke-linejoin:round;stroke-width:2px;}</style></defs><title>Asset 3</title><g id="Layer_2" data-name="Layer 2"><g id="Layer_1-2" data-name="Layer 1"><path d="M1125.5.51c7.23,17.38,14.41,34.77,21.69,52.13q41.2,98.1,82.45,196.18,13.45,32,26.84,64.07c3.2,7.68,2.48,8.69-5.71,8.69-43.16,0-86.32-.1-129.48.07-41.15.16-82.29.6-123.43,1-5.65.06-11.3.77-16.94.82-8.29.06-10.11-2.55-6.95-10.06q19.89-47.47,40-94.86,28.23-66.46,56.62-132.86Q1087.91,45,1105.14,4.26c.52-1.22.91-2.5,1.36-3.75h9q-18.75,44.15-37.5,88.31-36.27,85.85-72.45,171.73c-6.8,16.11-13.71,32.17-20.54,48.28-.63,1.48-1,3.07-1.69,5.17,1.93.19,3.35.44,4.77.46q68.7.54,137.42,1,59.21.44,118.42.88c2.12,0,4.24-.18,7.54-.33-3.17-7.56-6-14.4-8.89-21.2q-38.7-91.34-77.42-182.65c-6.44-15.18-12.66-30.46-19.26-45.57-9.67-22.1-19.59-44.08-29.4-66.12Z"/><path d="M460.5.51q39.56,93.12,79.1,186.26Q566,249.13,592,311.64c2.6,6.21,1.5,7.95-5.09,7.95q-136.47,0-272.94,0c-6.56,0-7.72-1.75-5.08-8q20.26-48.12,40.66-96.19,25.41-60,50.82-120.1Q420.42,47.89,440.5.51h8q-22,51.75-44,103.5-31.95,75.19-63.91,150.4-11.24,26.45-22.4,52.93a41.72,41.72,0,0,0-1.26,4.45,50.58,50.58,0,0,0,5.48.69c35.48.35,71,.83,106.44.94,49.5.14,99,0,148.5,0h7.33c-.72-2.35-1.09-4.05-1.75-5.61Q549.87,230.37,516.73,153,489.91,90,463.4,26.83c-3.69-8.75-7.27-17.55-10.9-26.32Z"/><path d="M790.5.51c6.36,15.54,12.6,31.15,19.11,46.63q45,106.85,90,213.65,10.88,25.79,21.66,51.61c3.44,8.25,2.81,9.15-6,9.15q-99.5,0-199,.11c-23.14,0-46.28.61-69.43.85-8.62.09-10.11-1.74-6.87-9.81,8.57-21.32,17.39-42.54,26.31-63.72q25.31-60.1,50.84-120.11Q743.68,66.32,770.29,3.79c.45-1.07.81-2.19,1.21-3.28h9c-5.37,13.08-10.63,26.22-16.13,39.25q-26.8,63.53-53.75,127-29.89,70.33-60,140.62c-1,2.24-1.75,4.55-3.08,8.05H917.34Q849.36,157.81,781.5.51Z"/><path d="M476.5,700.51c7.88-18.73,15.81-37.43,23.62-56.18,13.43-32.28,26.69-64.63,40.21-96.87q32.83-78.35,65.92-156.59c.84-2,1.14-4.27,2.27-6.05s2.9-4.27,4.56-4.41,4.27,1.92,5.08,3.66c5.25,11.33,10.23,22.79,15.11,34.28q34.25,80.73,68.39,161.51,24.58,58.23,49,116.53c.58,1.38,1.2,2.75,1.81,4.12h-11c-4.11-10.17-8-20.42-12.35-30.51-19.8-46.58-39.78-93.09-59.55-139.68q-27.51-64.85-54.74-129.8c-.37-.88-.93-1.7-1.73-3.15A31.12,31.12,0,0,0,611,401q-36,84.31-71.86,168.64c-9.19,21.61-18.15,43.31-27.42,64.88-8.92,20.78-18.11,41.45-27.15,62.18a27.11,27.11,0,0,0-1,3.84Z"/><path d="M719.5.51c0,1.75.46,3.72-.17,5.22-19.15,45.58-37.19,91.67-58.08,136.44-14.27,30.59-26.55,62-40.73,92.58-.76,1.65-1,3.57-1.88,5.14-.73,1.3-2.23,3.28-3.07,3.14a6.22,6.22,0,0,1-4-3c-3.77-8-7.35-16-10.81-24.16Q556.62,112.28,512.59,8.64c-1.09-2.55-1.41-5.41-2.09-8.13ZM616.14,231.19c1.41-3.06,2.41-5,3.19-6.93,11.34-29.08,24.4-57.42,35.21-86.78C668.11,100.66,684.87,65,700.25,28.86c3-7,5.89-14,8.93-21.2H521.75C553.4,82.6,584.52,156.3,616.14,231.19Z"/><path d="M.5,413.51c3.07,6.81,6.27,13.57,9.19,20.45q38.13,89.93,76.18,179.88,11.68,27.6,23.49,55.16c.62,1.46,1.5,2.81,2.74,5.09,45.25-106.37,90.1-211.83,135.5-318.58H.5v-6q123,0,245.94,0c7.85,0,8.72,1.69,5.61,9q-27.2,63.9-54.27,127.86-33.59,79.38-67.06,158.8Q123.64,662,116.6,678.83a13.06,13.06,0,0,1-1.4,3.18c-1,1.22-2.45,3.16-3.42,3a6,6,0,0,1-3.68-3.26c-5.22-11.89-10.23-23.88-15.3-35.84Q62.7,574.84,32.6,503.75,18.08,469.48,3.51,435.21c-.84-2-2-3.8-3-5.7Z"/><path d="M136.5,700.51Q158.37,648.75,180.25,597q42.15-99.86,84.28-199.72c2.33-5.53,4.38-11.18,7-16.55,1-2,3.27-3.33,5-5,1.49,1.61,3.58,3,4.39,4.86q24.47,57.17,48.66,114.45,40.07,94.77,80,189.61c2.18,5.19,4,10.55,5.95,15.83h-7q-15.09-35.64-30.2-71.27-27.85-65.5-55.75-131-20.94-49.17-41.9-98.33c-1.29-3-2.41-6.13-4-10.12a28.41,28.41,0,0,0-2.53,3.7q-29.4,68.91-58.74,137.84-33.33,78.36-66.63,156.74-2.64,6.2-5.27,12.41Z"/><path d="M1536.5,325.51q-114.91,0-229.84,0c-6.18,0-7.11-1.44-4.63-7.33q20.16-47.87,40.44-95.69,22.59-53.61,45.1-107.28Q1411.06,59.3,1434.5,3.33c.38-.92.67-1.88,1-2.82h15c.7,2,1.28,4.14,2.11,6.12q34.86,82.74,69.78,165.45c4.59,10.86,9.4,21.62,14.11,32.43v16c-4-8.77-8.15-17.46-11.94-26.32q-34.05-79.71-68-159.49c-4.35-10.23-8.64-20.49-13.44-31.88-1.26,2.3-2.1,3.6-2.7,5q-33.65,78.53-67.24,157.08-32,74.9-63.81,149.85c-2.18,5.1-1.88,5.65,3.79,5.65,20.32,0,40.65,0,61,0l162.33.12Z"/><path d="M1536.5,364.51H1316.56l135.19,318.81c3.35-7.64,6.23-14.06,9-20.54q36.74-86.44,73.43-172.91c.64-1.51,1.55-2.91,2.34-4.36v14c-7.93,18.52-15.91,37-23.77,55.58q-28.44,67.18-56.86,134.38c-.76,1.78-2.64,3.08-4,4.61-1.39-1.5-3.35-2.76-4.11-4.53Q1411.3,603.8,1375,517.94q-32.12-75.66-64.46-151.24c-2.88-6.76-2-8.25,5.46-8.25l220.47.06Z"/><path d="M1429.5,700.51c-7.2-17.38-14.26-34.82-21.63-52.13-22.12-51.94-44.43-103.8-66.54-155.75q-29.34-69-58.43-138a38.31,38.31,0,0,0-2.58-4.12c-3.06,7.11-5.75,13.3-8.39,19.51q-35.76,84.42-71.49,168.85-31.18,73.89-62.16,147.85c-1.94,4.6-3.85,9.21-5.78,13.82h-8q16.89-39.51,33.78-79,33-77.41,66.07-154.86c17.08-40.14,34-80.36,51.14-120.48,1.15-2.69,3.44-4.9,5.2-7.34,1.76,2.43,4,4.63,5.19,7.32q42.57,100,84.91,200.05,29.65,70.17,59,140.49c1.93,4.59,3.81,9.22,5.71,13.83Z"/><path d="M1147.5,700.51c7.64-18.29,15.23-36.59,22.93-54.85q25.54-60.54,51.19-121,27.84-65.55,55.83-131a10.69,10.69,0,0,1,1.85-3.51c1.09-1,2.64-2.22,4-2.22,1,0,2.44,1.6,3,2.8,9.25,21.77,18.28,43.62,27.56,65.37q27,63.19,54.17,126.29c5.32,12.4,10.79,24.73,16,37.2q15.94,38.51,31.63,77.13a27.06,27.06,0,0,1,1,3.85h-6c-9.58-22.9-19-45.85-28.77-68.67-12.35-28.93-25.08-57.69-37.37-86.65-20.16-47.54-40.09-95.18-60.14-142.78a19.22,19.22,0,0,0-1.31-2c-2.75,6.38-5.29,12.22-7.77,18.09L1165,678.47c-3.12,7.36-6.3,14.69-9.46,22Z"/><path d="M384.5.51c-3.64,9.63-7,19.39-11,28.87Q338,113.64,302.26,197.77c-5.66,13.34-11.24,26.71-17.11,40-.82,1.84-3.06,4.23-4.64,4.23s-3.7-2.5-4.5-4.36q-20.91-48.66-41.51-97.44-28.16-66.48-56.21-133A48.93,48.93,0,0,1,176.5.51ZM280.69,228.29c32-75.48,63.4-149.68,95.2-224.74-2.95,0-4.91,0-6.87,0-23,.31-45.93.69-68.9.95q-53.17.59-106.36,1c-2.08,0-4.15.27-7.45.5Z"/><path d="M159.5.51c9.39,22.41,18.72,44.85,28.19,67.23Q215,132.36,242.51,196.92q17.36,40.92,34.73,81.82c.51,1.2,1.25,2.3,2.47,4.49,2.41-5.4,4.53-10,6.49-14.59q38.63-91,77.2-182.07,17.48-41.14,35.07-82.23a28.38,28.38,0,0,0,1-3.83h8c-8,19.38-15.93,38.81-24.08,58.13Q357.59,119.86,331.56,181q-23.67,55.88-47.41,111.74c-.79,1.85-3.07,4.24-4.65,4.24s-3.85-2.4-4.64-4.25q-30.33-71.23-60.38-142.6Q184.62,79.51,154.68,8.9c-1.16-2.75-2.12-5.59-3.18-8.39Z"/><path d="M761.5,700.51c-6.08-14.78-12.1-29.58-18.24-44.33q-6.13-14.76-12.57-29.39c-1-2.38-3-4.37-4-6.77-1.82-4.54-3-9.36-4.85-13.85Q681.14,510.05,640.26,414q-12.12-28.5-24.22-57c-.63-1.49-1.48-2.88-2.83-5.48-1.78,4-3.14,6.87-4.4,9.82q-36.1,84.53-72.17,169.06l-42.15,98.77q-13.82,32.4-27.61,64.79c-.91,2.14-1.59,4.38-2.38,6.57h-5q11.36-27.19,22.72-54.39,21.72-51.86,43.48-103.69,33.82-80.1,67.81-160.14c5-11.81,9.79-23.7,14.68-35.56a8.18,8.18,0,0,1,.95-2.3c1.42-1.63,3-3.13,4.54-4.68,1.39,1.51,3.29,2.79,4.08,4.57,4.13,9.28,8,18.7,11.92,28.05q37.41,88.08,74.81,176.17c17.77,42,35.31,84.17,53,126.25,3.61,8.6,7.34,17.15,11,25.72Z"/><path d="M829.5.51c9.4,22.42,18.74,44.86,28.21,67.25Q885.06,132.39,912.52,197q17.07,40.25,34.06,80.52c.69,1.62,1.58,3.15,2.87,5.72,4.6-10.68,8.81-20.39,13-30.13Q998.33,169,1034.22,85q16.58-38.82,33.14-77.64c1-2.3,2.09-4.54,3.14-6.8h5c-3,7.58-5.75,15.23-8.9,22.73q-30,71.43-60.07,142.8Q980,229.15,953.36,292.22c-.68,1.61-2.75,3.94-3.8,3.77a7.21,7.21,0,0,1-4.6-3.75c-5.65-12.62-11-25.35-16.44-38.07q-37.51-88.3-75-176.63Q838.19,41.43,823,5.27A47.75,47.75,0,0,1,821.5.51Z"/><path d="M1536.5,440.51c-3.65,8.19-7.44,16.33-10.94,24.59q-33.36,78.9-66.71,157.8a8.07,8.07,0,0,1-4.68,4.23c-.94.25-3.26-2.36-4-4.09Q1410.48,530,1371,436.9c-6.37-15-12.59-30.09-18.87-45.14-2.48-6-1.55-7.37,5.09-7.37q82.18,0,164.38.1l14.89,0v6q-31.7,0-63.38,0c-18.33,0-36.66.08-55,.11-17.83,0-35.67,0-53.5.06-5,0-5.32.76-3.41,5.24q24.27,56.75,48.48,113.52,21.58,50.82,43,101.75a32.52,32.52,0,0,0,2.09,3.38c2.54-5.72,4.78-10.62,6.89-15.57q36.25-85.05,72.5-170.1c.64-1.51,1.57-2.9,2.36-4.35Z"/><path d="M424.5,700.51c-4.42-11.13-8.65-22.34-13.29-33.38q-26.74-63.55-53.71-127Q324,461,290.63,381.86c-3.83-9.05-7.75-18.06-11.66-27.07-.71-1.65-1.58-3.23-3-6.11-3,6.7-5.5,12.33-7.91,18q-54.92,129.76-109.8,259.54-14.81,35-29.52,70a37.82,37.82,0,0,0-1.24,4.29h-7Q146,640.76,171.44,581q33.45-78.6,66.85-157.24c11.32-26.67,22.56-53.38,34-80,.82-1.92,2.74-3.37,4.15-5,1.45,1.6,3.47,3,4.26,4.85,25.21,60.22,50.08,120.59,75.48,180.72C370.33,557.87,385.44,591,400,624.45c10.16,23.37,20.08,46.84,30,70.29a38.15,38.15,0,0,1,1.49,5.77Z"/><path d="M812.5,700.51q15.42-36.6,30.86-73.2Q875,552.55,906.81,477.84q18.83-44.38,37.63-88.78c.72-1.68,1.28-3.61,2.52-4.82a5.59,5.59,0,0,1,4.35-1.28c1.08.22,2.72,2.05,2.63,3-.78,9.31,4.79,16.5,8.12,24.31q41.61,97.67,83.65,195.16l40.79,95h-6q-15.46-36.59-30.91-73.16-36.07-85.89-72.07-171.81c-7.72-18.43-15.32-36.9-23-55.35-.69-1.64-1.54-3.22-2.83-5.9a54.24,54.24,0,0,0-2.82,4.93Q906,500.65,863.09,602.11c-13.19,31.12-26.63,62.13-39.93,93.2-.71,1.67-1.11,3.46-1.66,5.2Z"/><path d="M1097.5,700.51c-4-10-7.92-20.12-12.13-30.07q-27.25-64.43-54.66-128.79Q996.06,460,961.43,378.35c-3.89-9.16-7.73-18.34-12-28.48a40.21,40.21,0,0,0-2.46,4.07Q900.91,462.78,854.9,571.62q-26.49,62.58-53,125.14c-.52,1.22-.91,2.5-1.36,3.75h-6q24.59-58.21,49.18-116.42,25.2-59.58,50.44-119.14,25.73-60.72,51.58-121.37c.59-1.38,2-2.4,3.08-3.58,1.31,1.32,3.17,2.41,3.85,4,10.3,24,20.41,48.14,30.62,72.2q30.51,72,61.07,143.93,29.36,69.23,58.63,138.46a15.63,15.63,0,0,1,.55,1.92Z"/><path d="M496.5.51c7.68,19,15.14,38,23.07,56.89,17.17,40.82,34.57,81.55,51.86,122.31q21.17,49.89,42.32,99.78a22,22,0,0,0,1.46,2.33c1.68-3.7,3.16-6.78,4.49-9.93q38.55-91.33,77.09-182.68Q715.54,44.83,734.5.51h7c-2.65,6.62-5.18,13.3-8,19.86Q714.69,65,695.69,109.58q-31.41,73.75-62.91,147.48c-4.5,10.57-8.84,21.21-13.46,31.73-.77,1.76-2.62,3.06-4,4.57-1.53-1.53-3.71-2.77-4.49-4.61q-48.58-114.51-97-229.09c-8-18.84-16.33-37.53-24.49-56.3A27.79,27.79,0,0,1,488.5.51Z"/><path d="M1159.5.51l122.08,288.94c1.48-3.14,2.55-5.26,3.48-7.44Q1344,143.88,1402.84,5.71c.71-1.67,1.11-3.46,1.66-5.2h6l-32,75.46q-34,80.31-68,160.6c-7.84,18.57-15.46,37.23-23.2,55.85a32.21,32.21,0,0,1-2.28,5c-.83,1.3-2.32,3.39-3.16,3.23a6.15,6.15,0,0,1-3.86-3.18c-3.56-7.71-6.84-15.55-10.18-23.36q-39.26-91.91-78.48-183.83c-12.73-29.88-25.28-59.84-37.91-89.76Z"/><path d="M1536.5,304.51l-146.42.06c-13.33,0-26.66,0-40,0-6.63,0-7.52-1.45-5-7.39q48.66-115,97.38-230c.87-2.06,2.91-3.62,4.41-5.42,1.51,1.81,3.58,3.38,4.46,5.46q29.27,68.44,58.28,137,12.59,29.67,25.14,59.34a29.31,29.31,0,0,0,1.74,3v16c-7-16.18-14.17-32.31-21.06-48.55Q1482,155.1,1448.69,76.18c-.31-.74-.78-1.42-2-3.61l-96.12,225.94H1536.5Z"/><path d="M118.5.51q17.94,42,35.88,84.1,33.1,77.94,66.13,155.93,15.51,36.59,30.91,73.19c3,7.25,1.94,8.8-6,8.8-38,0-76,.12-114,0-43.64-.19-87.27-.64-130.91-1v-5L244,315c-.71-2.26-1.14-4.12-1.87-5.85q-30.8-72.39-61.64-144.75Q153.82,101.65,127.39,38.8C122,26.07,116.79,13.27,111.5.51Z"/><path d="M1092.5.51c-5,12.13-10,24.29-15.18,36.39-20,47.06-40.1,94-60,141.15-20.73,49.1-41.22,98.29-61.83,147.43-2.28,5.44-2,5.93,3.86,5.95q136.42.49,272.84.92c11.31,0,22.61-.66,33.92-.92,3.51-.09,4.39-1.27,3-4.64-24.55-58.68-48.88-117.45-73.61-176.06-14.11-33.44-29-66.56-43.29-99.92-7.15-16.67-13.83-33.53-20.72-50.3h6c7.88,18.34,15.91,36.62,23.6,55,22.12,53,43.82,106.22,66.23,159.12,15.52,36.64,31.92,72.91,48,109.32,4.76,10.82,3.61,12.65-8.42,12.61q-123.66-.47-247.31-.91c-21.64-.05-43.28.59-64.92.87-1.95,0-3.91-.18-6.74-.32.93-2.85,1.49-5.18,2.42-7.36,14.08-32.91,28.28-65.78,42.3-98.72q26.91-63.19,53.58-126.49,21-49.69,41.93-99.41c.51-1.23.92-2.5,1.37-3.75Z"/><path d="M761.5.51c-3.33,8.32-6.49,16.72-10,25q-38.15,89.37-76.38,178.69c-17.27,40.61-34.26,81.34-51.36,122-.56,1.33-.93,2.74-1.76,5.24H940.07c-2.66-6.6-4.88-12.27-7.2-17.89-17.21-41.72-34.2-83.54-51.73-125.13-16.76-39.74-34-79.25-51.18-118.83-5.49-12.68-11.5-25.14-16.81-37.9C808.9,21.44,805.36,10.91,801.5.51h5q5.41,12,10.83,24c1.09,2.42,2.13,4.87,3.16,7.33,26,62.22,51.84,124.52,78.1,186.64C914,254.84,930,290.89,945.75,327.08c2.83,6.51.93,9.49-6.23,9.5q-35.73.06-71.47-.09c-51.29-.25-102.58-.72-153.87-.78-30.14,0-60.27.57-90.4.85-2.08,0-4.16-.24-6.89-.42,4.24-9.71,8.2-18.62,12-27.6,19.52-45.8,39.13-91.57,58.48-137.44q34.65-82.15,69-164.47c.83-2,1.44-4.08,2.15-6.12Z"/><path d="M428.5.51Q417.29,27,406.09,53.4q-30.79,72.42-61.61,144.83-27.18,64.19-54.06,128.5c-.56,1.33-1,2.69-1.88,4.94H608c-2.24-5.5-4.31-10.68-6.45-15.82-17-40.76-33.8-81.56-50.94-122.23q-34.32-81.51-69-162.85C477.3,20.65,472.87,10.59,468.5.51h4q47.36,112.08,94.75,224.16c14.58,34.35,29.53,68.53,44.31,102.79,3,6.86,2.16,8.16-5.37,8.16q-111.68,0-223.37,0c-29.14.05-58.29.58-87.43.89-1.67,0-3.34,0-5,0-5.44-.27-6.24-1.51-4.13-6.47q43.68-102.51,87.36-205Q399.23,64.75,424.45,4.34A28.85,28.85,0,0,0,425.5.51Z"/><path d="M.5,331.51l210.4-.1q25.23,0,50.47,0c2,0,3.92-.17,6.86-.3-3-7.35-5.68-14.06-8.45-20.73C242,267.43,224.3,224.46,206.24,181.65c-20.64-48.94-41.64-97.74-62.5-146.58-4.39-10.26-8.9-20.46-13.3-30.72A23.16,23.16,0,0,1,129.5.51h4q46.33,110,92.73,220c15.07,35.56,30.7,70.89,46.06,106.33,2.74,6.32,1.34,8.73-5.5,8.67-21.47-.18-42.94-.55-64.41-.84q-3,0-6-.05H8c-2.5,0-5-.08-7.49-.12Z"/><path d="M1423.5.51q-21.49,50.57-43,101.12-37.53,88.53-75,177.07-10.71,25.31-21.28,50.66a27.09,27.09,0,0,0-.9,3.56c2.17.18,4.05.47,5.92.47,24.15.05,48.31,0,72.46.11,47.45.24,94.91.65,142.36.83,10.81,0,21.62-.53,32.43-.82v4H1277.61L1420.5.51Z"/><path d="M71.5,700.51Q37.24,619.66,3,538.83A39.25,39.25,0,0,0,.5,534.51v-23c4.31,9.72,8.76,19.39,12.91,29.18q32.6,76.81,65,153.68c.84,2,1.37,4.09,2,6.14Z"/><path d="M.5,239.51c9.58-22.31,19.24-44.59,28.74-66.94Q60.74,98.4,92.1,24.14c3.3-7.8,6.28-15.75,9.4-23.63h6c-3.32,8.32-6.5,16.69-10,24.94Q63,107,28.34,188.53,15.57,218.61,2.83,248.71a30.48,30.48,0,0,1-2.33,3.8Z"/><path d="M.5,160.51c4.78-11,9.65-21.93,14.34-32.95Q41.32,65.24,67.7,2.87c.33-.76.54-1.57.8-2.36h7C68.79,16.61,62.16,32.74,55.36,48.8Q29.53,109.87,3.56,170.86c-.83,2-2,3.77-3.06,5.65Z"/><path d="M97.5,700.51C88.73,679.67,80,658.81,71.17,638Q43.39,572.56,15.49,507.18c-4.83-11.3-10-22.45-15-33.67v-12c3.56,7.86,7.3,15.64,10.66,23.59q44.55,105.3,89,210.66a39.87,39.87,0,0,1,1.38,4.75Z"/><path d="M1536.5,533.51c-8.34,19.56-16.74,39.1-25,58.7q-21.93,51.88-43.77,103.83c-.65,1.53-1.47,3-2.21,4.47h-6q24-56.19,47.9-112.37,13.39-31.41,26.77-62.84a28.17,28.17,0,0,1,2.33-3.79Z"/><path d="M1536.5,176.51c-3.88-8.82-7.79-17.63-11.64-26.47q-29.64-68.13-59.19-136.29c-1.83-4.23-2.8-8.82-4.17-13.24h5q19,44.67,38,89.33c5.36,12.54,11.13,24.9,16.37,37.48,4.46,10.73,8.38,21.67,12.63,32.48a56.45,56.45,0,0,0,3,5.71Z"/><path d="M.5,689.51H39.85a30.27,30.27,0,0,0-1.07-4.12Q20.36,641.47,1.84,597.6A13.7,13.7,0,0,0,.5,595.51v-15C6.34,593.9,12.25,607.27,18,620.7q14.48,33.66,28.84,67.37c2.82,6.58,1.71,8.44-5.47,8.47-13.63.06-27.26,0-40.89,0Z"/><path d="M55.5.51Q44.72,26.28,33.92,52,18.78,88.16,3.62,124.28c-.9,2.14-2.07,4.16-3.12,6.23v-17C5.33,102.73,10.29,92,15,81.16Q30.76,44.44,46.33,7.62c.64-1.5,1.07-3.07,2.12-6.11H.5A14.28,14.28,0,0,1,4,.55C21.17.49,38.33.51,55.5.51Z"/><path d="M1483.5,700.51c4.65-11.18,9.18-22.41,14-33.53q18.58-43.26,37.37-86.42c.46-1.06,1.1-2,1.66-3v8C1529,603.25,1521.39,621,1514,638.75c-8.57,20.55-17,41.17-25.47,61.76Z"/><path d="M.5,201.51C6,189,11.69,176.64,17,164.08Q50.27,85.39,83.34,6.62c.84-2,1.45-4.07,2.16-6.11h3C81.41,17.37,74.38,34.26,67.23,51.1Q38,120,8.58,188.87C6,194.82,3.2,200.63.5,206.51Z"/><path d="M663.55,353.4c17,0,34,.1,50.93,0,28.48-.21,57-.83,85.44-.8,39.81.05,79.63.54,119.44.85,6.94.05,7.87,1.7,5.12,8.19q-28.43,66.93-56.76,133.89-31.92,75.22-63.87,150.42L788.61,681.8a18.91,18.91,0,0,1-1.85,4.08c-1,1.34-2.66,3.4-3.78,3.25a6.64,6.64,0,0,1-4.25-3.42c-3.11-6.64-5.82-13.45-8.68-20.2Q712.11,529.13,654.18,392.75c-4.56-10.73-8.95-21.54-13.32-32.35-2.16-5.33-1.3-6.62,4.24-7l18.42-1.24ZM783,677.45C828.08,571.3,872.55,466.54,917.36,361H649C693.67,466.45,738,571.26,783,677.45Z"/><path d="M319.18,351.49H580c7.69,0,8.67,1.51,5.72,8.48Q537.87,473.18,490,586.39q-19,45.11-37.94,90.28c-1,2.3-1.41,4.83-2.56,7-.81,1.56-2.34,3.76-3.61,3.79s-3.56-1.75-4.23-3.25c-5-11.27-9.68-22.67-14.5-34Q396.65,578.5,366.1,506.8q-28.74-67.59-57.42-135.2c-2-4.75-4.18-9.45-6-14.26-1.75-4.55-.33-6.65,4.54-6.87,4-.18,8,0,12,0Zm126,322,1.66-.06c.84-1.75,1.75-3.47,2.51-5.26,3.21-7.5,6.34-15,9.55-22.54Q484,587,509,528.46q28.71-67.32,57.27-134.71c4.63-10.88,9.19-21.79,13.88-32.65,1.26-2.94.73-4.48-2.66-4.5l-4,0q-115.47,0-230.92.06c-6.8,0-13.61.78-20.4,1.31-2.91.23-5.8.76-9.51,1.25Z"/><path d="M995.37,356.42H1250.2c7.29,0,7.69.56,5.07,6.76q-48.06,113.64-96.12,227.29c-13.42,31.76-26.74,63.55-40.21,95.28-.7,1.65-2.3,2.92-3.48,4.37-1.26-1.41-3-2.62-3.71-4.26-7.65-17.74-15.07-35.57-22.7-53.32-17.48-40.68-35.16-81.27-52.56-122-17.14-40.12-34-80.35-51-120.53-3.83-9.05-7.69-18.08-11.42-27.17-2.46-6-.73-8.25,5.85-7.93l15.46.79C995.36,356,995.37,356.19,995.37,356.42Zm120,324.5c.89-1.59,1.44-2.4,1.81-3.28Q1137.1,631,1157,584.33q46.3-109,92.59-217.94c2.25-5.29,1.92-5.85-4.06-5.85q-126.2,0-252.39.08c-3.89,0-7.77.84-12.21,1.36C1025.83,468.55,1070.44,574.31,1115.4,680.92Z"/><path d="M111.89,295.63h-93c-8.16,0-8.65-.81-5.53-8.16Q50.14,200.76,86.83,114c7-16.56,14-33.13,21.16-49.63.77-1.77,2.53-3.11,3.83-4.65,1.2,1.46,2.82,2.74,3.53,4.41q20,46.88,39.82,93.82,27.17,64.18,54.32,128.37c3.79,9,3.66,9.28-6.14,9.28Zm-95.24-4.69c2.59.24,3.73.45,4.87.45q89.73,0,179.46,0c5.48,0,5.75-.58,3.53-5.82q-44.3-104.43-88.59-208.85c-1.17-2.77-2.53-5.47-4.42-9.53C79.58,142.5,48.28,216.31,16.65,290.94Z"/><path d="M853.52,296.63H692.69c-1.67,0-3.34.06-5,0-4.85-.25-6-1.91-4.07-6.39q10.95-26,22-52,28.88-68.06,57.78-136.1c5.59-13.18,11-26.43,16.74-39.56.83-1.9,2.88-3.27,4.37-4.88,1.58,1.7,3.82,3.12,4.66,5.14q39,92.51,77.78,185.13,8.51,20.26,17.1,40.49c2.49,5.89,1.75,7.15-4.53,7.19-8.66,0-17.32,0-26,0ZM868.2,282.2c-27-67.36-53.67-133.77-80.31-200.18l-2.08.17c-26.62,66.41-53.25,132.82-80.18,200Z"/><path d="M449.41,293.63h-94a20.13,20.13,0,0,1-5.45-.38c-3.12-.92-4.18-3.2-2.84-6.24,8-18.11,16.28-36.09,24-54.31,24.65-58.13,49.08-116.35,73.71-174.49.75-1.78,2.84-4.43,4-4.27,1.78.23,4,2.21,4.81,4q13.19,30,25.91,60.12,34.32,81.54,68.49,163.13a39.83,39.83,0,0,0,3.11,5.09c2.26,3.66,1,6.59-3.26,7.21a34.59,34.59,0,0,1-5,.14Zm3.4-211.57-2.08.17C424.12,148.56,397.51,214.89,370.57,282H533.09C506.16,214.94,479.49,148.5,452.81,82.06Z"/><path d="M1185.71,299.66h-65.38q-49.9,0-99.82-.06c-5.63,0-6.74-2-4.49-7.26q49.26-115.83,98.61-231.61c.76-1.78,2.64-3.09,4-4.61,1.5,1.59,3.61,2.92,4.41,4.81Q1162.11,153.41,1201,246q9.57,22.8,19,45.64c2.46,5.95,1.71,6.95-4.81,7-9.83,0-19.66,0-29.48,0Zm-65.34-211h-1.59c-26.68,66.51-53.36,133-80.39,200.37,3.12.22,5,.46,7,.46q74,0,148,0c7.51,0,7.76-.39,5-7.19q-38-94.63-75.92-189.27C1121.84,91.5,1121.06,90.08,1120.37,88.62Z"/><path d="M95.63,378.49c24.83,0,49.65-.1,74.48,0,14,.08,28,.52,41.94.89,5.2.13,6.53,2.22,4.46,7.09q-27.6,64.83-55.27,129.62Q140,566,118.63,615.83A11.48,11.48,0,0,1,117.2,619c-1.12,1.26-2.51,2.86-4,3.06-.91.13-2.57-1.86-3.15-3.21-6-13.93-11.79-27.93-17.69-41.89Q53.79,485.59,15.08,394.28c-.74-1.77-2.59-3.06-3.4-4.81-1.19-2.57-3-5.61-2.43-8,.34-1.49,4.46-3,6.9-3,26.49-.21,53-.13,79.48-.13Zm17.05,232.23,1.67-.14,94.13-224c-3.38,0-5.5,0-7.62,0q-54.95.45-109.89.87c-21.15.14-42.31.08-63.46.1-9.59,0-9.69.05-6,8.67q42,99.12,84.11,198.2C107.9,599.9,110.31,605.3,112.68,610.72Z"/><path d="M277.24,684.56q-47.25,0-94.5,0c-8.64,0-9.79-1.89-6.45-9.83q33.72-80.16,67.4-160.34,14.06-33.39,28.36-66.69c.83-1.92,2.86-3.32,4.34-5,1.72,1.58,4.21,2.84,5.06,4.8,9.18,21.08,18.14,42.25,27.09,63.43q34.5,81.72,68.95,163.48a34.89,34.89,0,0,1,1.27,3.26c1.58,5,.35,6.82-5,6.86-12.67.09-25.34,0-38,0h-58.5ZM370.6,677,276.79,456.86,183,677Z"/><path d="M953.51,683.64h-95c-8.34,0-9.3-1.49-6.14-9q37.18-88.18,74.33-176.37c7.31-17.35,14.59-34.71,22.1-52,.81-1.85,3.07-4.24,4.66-4.24s3.89,2.37,4.67,4.21q28.32,66.7,56.35,133.52,19.9,47.19,39.89,94.35c3.43,8.09,2.59,9.46-6.39,9.47Zm.88-225.39-1.64,0L859.67,676.46h187.55C1015.93,602.93,985.16,530.59,954.39,458.25Z"/><path d="M631.74,686.29c-25.32,0-50.64-.14-76,.06-12.8.09-25.6.9-38.4,1.16-7.71.16-8.71-1.54-5.8-8.44Q557.74,570,603.86,461a110.74,110.74,0,0,1,4.69-10.48,7.28,7.28,0,0,1,4.16-3.5c.88-.17,2.73,2.08,3.39,3.58,8,18.29,16.14,36.56,23.86,55q36.51,87.09,72.79,174.27c2.32,5.56,1.63,6.76-4.54,6.77q-38.24.06-76.47,0ZM612,458.75c-1.34,3.24-2.27,5.51-3.22,7.77Q590.86,508.58,573,550.64q-26.52,62.52-53,125.06c-1.34,3.13-.94,4.65,2.77,4.79,15.45.58,30.89,1.6,46.34,1.79,14.47.17,28.94-.69,43.41-.76,29.32-.16,58.63-.08,87.94-.13,2.05,0,4.1-.32,6.85-.55Z"/><path d="M1295.44,685.55c-25.83,0-51.66.08-77.48,0-9.48,0-19-.61-28.44-.86-6.18-.17-7.17-1.46-4.8-7.27q9.71-23.83,19.64-47.57,26-62,52.11-123.9c8-18.89,15.85-37.79,24-56.6.81-1.87,3.24-4.65,4.36-4.42a8.42,8.42,0,0,1,5,4.52q21.59,50.28,42.8,100.71,26.46,62.6,52.86,125.22c.32.76.67,1.52,1,2.3,2.25,6.13,1,8-5.49,8q-42.74.06-85.48,0Zm-10.1-227.35a17.87,17.87,0,0,0-1.54,2.25q-22.63,52.79-45.25,105.6-23.1,53.94-46.23,107.88c-2,4.73-1.7,5.51,3.58,5.44,18-.23,35.94-.77,53.91-.85,33.81-.15,67.62-.07,101.44-.08,7.49,0,15,0,22.48,0,3.49,0,5.06-.88,3.36-4.72-3.78-8.53-7.29-17.17-10.94-25.75q-34.89-82.05-69.78-164.09C1292.81,475.51,1289.19,467.17,1285.34,458.2Z"/><path d="M1227,4.42q76.2,0,152.4,0c7.28,0,8.86,2.26,5.75,8.84-33.17,70.17-61,142.65-91.79,213.83-2.31,5.35-4.32,10.84-6.76,16.13-.74,1.61-2.47,3.9-3.7,3.86-1.47,0-3.48-1.94-4.22-3.53-4.17-8.89-8.09-17.9-12-26.93q-34.32-79.87-68.58-159.78-9.54-22.27-18.81-44.67c-2.42-5.82-.59-8.65,5.69-8.7,14-.11,28,0,42,0Zm55.61,231.06,1.39.06c1.45-3.12,3-6.2,4.35-9.36,17-39.81,34.17-79.56,50.91-119.48,12.85-30.66,25.16-61.55,37.69-92.34a6.48,6.48,0,0,0,.3-1.61H1189.36C1220.81,87.89,1251.71,161.69,1282.6,235.48Z"/><path d="M888.22,4.5q73.68,0,147.36,0c4.48,0,9,.6,13.43.84,5.33.28,6.37,1.63,4.34,6.53-5.22,12.62-10.56,25.19-15.9,37.75q-31,72.86-62,145.69c-5.68,13.32-11.54,26.57-17.19,39.91a22.58,22.58,0,0,0-1.57,6.7c-.32,3.62-.56,7.46-4.85,8.27-4.59.87-5.69-3.2-7-6.37Q923.67,194,902.62,144q-27.09-64.2-54.13-128.42c-4.65-11.06-3.82-12.2,8.25-12.2h31.48Zm63.55,229,1.3-.06c31-73.53,62.09-147.06,93.8-222.17l-189,1.54Z"/><path d="M715.12,384.48q75.68,0,151.34,0c6,0,11.95.59,17.93.86,5,.24,6.05,1.54,4.1,6.22-5.57,13.37-11.31,26.67-17,40q-31,72.84-62,145.67c-2.28,5.36-4.91,10.59-6.93,16-3.49,9.46-6.61,19.05-9.91,28.58-.44,1.25-.77,2.73-1.64,3.6-1.53,1.52-3.4,3.58-5.21,3.66-1.42.06-3.56-2.24-4.33-4-5.78-12.91-11.37-25.92-16.89-38.94q-34-80.25-68-160.53-6.9-16.32-13.51-32.78c-2.85-7-1.22-9.36,6.56-9.43,8.5-.08,17,0,25.49,0Zm-8.57,16.67,77.63,193.56,1.57-.17c.72-1.6,1.52-3.17,2.17-4.8q36.58-91.15,73.14-182.31c2.56-6.37,2.29-6.82-4.46-6.82q-71.49,0-143,0C711.69,400.62,709.76,400.9,706.55,401.15Z"/><path d="M382.75,381.5c35.47,0,70.94-.09,106.4,0,14.65,0,29.29.66,43.94.79,2.52,0,5-1.14,7.58-1.72a26,26,0,0,1,5.31-1.07c5.78-.11,7.71,2.53,5.56,7.87-3.56,8.8-7.34,17.51-11.06,26.24q-35.55,83.43-71.11,166.85c-5.49,12.86-11,25.73-16.73,38.48-.81,1.82-3.08,3-4.67,4.44-1.33-1.53-3.16-2.85-3.92-4.63q-35.54-83.7-70.87-167.49Q360,420,346.92,388.63c-2.71-6.53-1.6-8.14,5.34-8.17,10.16,0,20.32,0,30.48,0ZM531.52,395c-3-.22-4.91-.48-6.82-.48q-74.25,0-148.48,0c-7,0-7.27.48-4.59,7.15q14.92,37.1,29.85,74.19Q424.55,533.41,447.55,591c.63,1.56,1.5,3,2.26,4.54l1.39-.09Z"/><path d="M1117.9,384.42q48,0,96,0c8,0,8.65,1,5.53,8.41q-37.86,89.81-75.77,179.58c-7.06,16.73-14,33.49-21.21,50.18-.77,1.79-2.55,3.14-3.86,4.7-1.5-1.57-3.62-2.87-4.42-4.74q-40.64-95.14-81-190.38c-5.66-13.34-11.23-26.72-16.85-40.08-2.65-6.29-1.77-7.68,5.13-7.69q48.24,0,96.49,0Zm0,210.39c1.3-2.53,2.13-3.86,2.7-5.3q37-92,73.85-184c2-5.07,1.56-5.81-3.93-5.81q-72.45,0-144.89,0c-5.74,0-6.16.7-4,6.11q11,27.35,22,54.67,25.75,64.21,51.45,128.45C1115.78,590.49,1116.61,592,1117.92,594.81Z"/><path d="M708.34,280.23c26.2-65.26,52-129.43,77.73-193.61l1.58-.2,77.81,193.81Zm79.83-161.74c-1.58,3-2.6,4.58-3.3,6.31Q757.09,193.88,729.36,263c-2.34,5.83-1.88,6.49,4.58,6.5h108c6.74,0,7.12-.58,4.61-6.82q-27-67.24-54-134.49C791.41,125.45,790.1,122.8,788.17,118.49Z"/><path d="M452.68,86.46c25.76,64.3,51.52,128.6,77.59,193.65H373.37L450.93,86.69Zm.71,35.64-1.84.08q-3.44,8.5-6.86,17-25.15,62.61-50.28,125.24c-2.85,7.11-2.24,7.92,5.6,7.95,4.5,0,9,0,13.5,0q46.74,0,93.49,0c6.11,0,6.92-1,5.07-5.61q-27.81-69.36-55.64-138.71C455.6,126,454.41,124.08,453.39,122.1Z"/><path d="M1120.66,93.46l77.76,193.72c-2.94.19-4.7.4-6.47.4q-72,0-143.92,0c-6.56,0-6.84-.43-4.45-6.41q36.75-91.59,73.5-183.16c.6-1.5,1.31-3,2-4.43Zm.1,182c18.15,0,36.3,0,54.45,0,6.15,0,6.93-1.16,4.67-6.81-4.82-12-9.77-24.06-14.61-36.11q-20.44-51-40.91-102c-.67-1.65-2.26-2.91-3.43-4.36-1,1.41-2.45,2.68-3.08,4.26Q1090,199.68,1062.32,269c-2.18,5.46-1.57,6.36,4.48,6.37Q1093.77,275.46,1120.76,275.41Z"/><path d="M784.21,589.75c-24.88-62-49.75-123.91-75-186.76,3.53-.23,5.78-.5,8-.51q67.5,0,135,0c8.72,0,8.7,0,5.53,7.93q-31.11,77.73-62.22,155.48c-3.19,8-6.56,15.87-9.85,23.8Zm.79-32,1.57-.16c.8-1.77,1.67-3.52,2.38-5.33q25.9-65.49,51.77-131c2.42-6.12,2-6.75-4.79-6.75q-50.46,0-100.92,0c-6.71,0-7.13.63-4.69,6.81q25.86,65.52,51.79,131A54.45,54.45,0,0,0,785,557.79Z"/><path d="M449.33,590.49l-77.6-193.68H528.86c-26.15,65.14-51.94,129.4-77.73,193.66Zm2.16-37.36a63.8,63.8,0,0,0,3.28-6q18.92-47.6,37.74-95.23,7.44-18.81,14.88-37.64c1.45-3.67.78-5.68-3.69-5.68-34.65.06-69.3,0-103.95.07-4.88,0-5.6,1.23-3.77,5.85q26.32,66.69,52.74,133.35C449.29,549.27,450.16,550.6,451.49,553.13Z"/><path d="M1117.07,588.73l-74.73-186.39a49.24,49.24,0,0,1,6-.81q69.71-.06,139.39,0c5.79,0,6.16.59,4,6.08q-35.58,88.8-71.22,177.57a32.78,32.78,0,0,1-1.83,3.4Zm1.5-28.29c1.61-3.22,2.62-4.88,3.32-6.66q26-65.47,51.85-131c2.44-6.18,1.75-7.18-5.12-7.19q-50.2,0-100.41,0c-6.75,0-7.27.83-5,7.37.22.63.43,1.26.67,1.88q25.71,64.77,51.45,129.52C1116,556,1117,557.46,1118.57,560.44Z"/><path d="M788,127.13c1.29,2.56,2.11,3.92,2.7,5.38q25.35,63,50.67,126.12c3.06,7.61,2.81,7.93-5.62,7.93H739.32c-7.1,0-7.47-.56-4.91-7q24.6-61.47,49.21-122.93C784.77,133.79,786.2,131.05,788,127.13Z"/><path d="M396.4,268.59l55.41-138.28,1.5.15c.71,1.42,1.53,2.79,2.12,4.26Q480.87,198,506.26,261.25c.25.62.48,1.25.71,1.87,1.77,4.8,1.39,5.44-3.9,5.44q-41,.07-81.94,0Z"/><path d="M1177.3,271.31c-3,.15-4.83.3-6.62.3q-49.18,0-98.38,0c-7.1,0-7.35-.36-4.71-7q25.47-63.48,51-126.95c.58-1.45,1.4-2.8,2.88-5.7Z"/><path d="M784.68,549.61l-52-131.54H838.48L786.41,549.68Z"/><path d="M450.8,543.66c-3.29-8.13-6.61-16.24-9.84-24.39Q422.3,472.16,403.68,425c-.79-2-1.54-4-2.28-6.08-2.28-6.27-2.14-6.53,4.33-6.54q46.2,0,92.4,0c1.62,0,3.25.17,6.3.34l-51.82,131Z"/><path d="M1117.61,551.36c-17.23-43.56-34.45-87.13-52-131.49h105.63c-17.53,44.34-34.77,87.91-52,131.48Z"/><path class="cls-1" d="M481,26l1,1.5"/><path class="cls-1" d="M483,31c5.83,13.33,11.78,26.62,17.48,40,11.41,26.8,22.68,53.66,34,80.49,3.81,9,7.67,18,11.5,27"/><path class="cls-1" d="M547,182l2,3.5"/><path class="cls-1" d="M550,189l2,3.5"/><path class="cls-1" d="M553,196l1,1.5"/><path class="cls-1" d="M556,203l1,1.5"/><path class="cls-1" d="M287,331q23.75-56,47.51-112c10.28-24.18,20.69-48.32,31-72.5Q383,105.28,400.5,64q13-30.51,26-61c.26-.6,1-1,1.47-1.51"/><path class="cls-1" d="M1444,2h-2.5"/><path class="cls-1" d="M1423,1c-2.5,4.83-5.31,9.53-7.45,14.52C1404.94,40.32,1394.49,65.17,1384,90q-15.51,36.74-31,73.5c-.28.68-.66,1.33-1,2"/><path class="cls-1" d="M1350,171l-1,1.5"/><path class="cls-1" d="M1347,178l-1,1.5"/><path class="cls-1" d="M1345,183l-2,3.5"/><path class="cls-1" d="M1342,190l-1,1.5"/><path class="cls-1" d="M1339,197l-1,1.5"/><path class="cls-1" d="M1336,204l-1,1.5"/><path class="cls-1" d="M1334,209l-1,1.5"/><path class="cls-1" d="M1331,216l-1,1.5"/><path class="cls-1" d="M1328,223l-1,1.5"/><path class="cls-1" d="M1325,230q-7.76,18-15.5,36-6.76,15.75-13.5,31.5"/><path class="cls-1" d="M1295,301l-1,1.5"/><path class="cls-1" d="M1292,308l-1,1.5"/><path class="cls-1" d="M1289,315l-1,1.5"/><path class="cls-1" d="M1286,322l-1,1.5"/><path class="cls-1" d="M1283,329l-1,1.5"/><path class="cls-1" d="M1089,7l-16,37.5"/><path class="cls-1" d="M1066,61l-1,1.5"/><path class="cls-1" d="M1064,66q-9,20.74-18,41.5c-7.19,16.66-14.44,33.29-21.48,50-7.78,18.45-15.26,37-23.06,55.48-7.36,17.39-15,34.67-22.46,52-1.07,2.47-2,5-3,7.5"/><path class="cls-1" d="M974,278l-1,1.5"/><path class="cls-1" d="M759,5l-2,3.5"/><path class="cls-1" d="M756,12c-5.83,13.33-11.77,26.62-17.47,40-6.45,15.12-12.67,30.33-19,45.49q-12.19,29-24.51,58c-7.26,17-14.76,34-22,51-11.1,26.29-22,52.69-33.06,79-5.66,13.4-11.72,26.64-17.39,40-1,2.44-1.08,5.3-1.58,8"/><path class="cls-1" d="M219,207l-1-1.5"/><path class="cls-1" d="M216,200l-1-1.5"/><path class="cls-1" d="M213,193l-1-1.5"/><path class="cls-1" d="M208,181l-1-1.5"/><path class="cls-1" d="M205,174l-1-1.5"/><path class="cls-1" d="M202,167l-1-1.5"/><path class="cls-1" d="M191,141l-1-1.5"/><path class="cls-1" d="M177,108l-1-1.5"/><path class="cls-1" d="M953,394q4,8.75,8,17.5"/><path class="cls-1" d="M962,415l1,1.5"/><path class="cls-1" d="M965,422l1,1.5"/><path class="cls-1" d="M1,414l1,5.5"/><path class="cls-1" d="M2,248l-1,4"/><path class="cls-1" d="M1,462l1,4.5"/><path class="cls-1" d="M88,1.51C85.33,7,82.46,12.42,80,18,69.12,43.32,58.22,68.63,47.53,94c-13.45,32-26.7,64-40,96C5.29,195.33,3.17,200.68,1,206"/><path class="cls-1" d="M1,512c.33,1.83.67,3.67,1,5.5"/><path class="cls-1" d="M2,172l-1,4"/><path class="cls-1" d="M2,125l-1,5"/><path class="cls-1" d="M1536,578v3.5"/><path class="cls-1" d="M1,581c.33,1.83.67,3.67,1,5.5"/><path class="cls-1" d="M49,1.51,7.5,1C5.33,1,3.17,1,1,1"/><path class="cls-1" d="M788,128v1.5"/><path class="cls-1" d="M951.5,333.76l-3.5,1.75"/></g></g></svg>