<svg xmlns="http://www.w3.org/2000/svg" xmlns:xlink="http://www.w3.org/1999/xlink" viewBox="0 0 1536 350"><defs><style>.cls-1{fill:none;}.cls-2{clip-path:url(#clip-path);}</style><clipPath id="clip-path"><rect class="cls-1" x="2" y="447" width="1538" height="352"/></clipPath></defs><title>zoomed-trianglesArtboard 5</title><g id="Layer_1" data-name="Layer 1"><path d="M710-2h8c-.43.9-.9,1.78-1.29,2.69Q692.91,56.75,669.12,112.8c-7.44,17.58-14.72,35.22-22.47,53.78l310.61,1.18.45.93c-1.18,1.25-2.37,2.49-3.05,3.2-51.75,0-102.73.21-153.71-.06s-101.69-.67-153.14-.36c6.86,16.28,13.22,31.63,19.79,46.9,10.4,24.14,21.07,48.16,31.37,72.35,7.62,17.9,14.85,36,22.22,54A21.2,21.2,0,0,1,722,348h-6L641.07,179.87c-1.11,2.37-2,4.09-2.76,5.88q-23.58,56.67-47.15,113.36C584.4,315.39,577.72,331.7,571,348h-7a36.64,36.64,0,0,1,1.36-4.69c12-28,24.15-55.9,36.09-83.91,12.14-28.46,24.1-57,36.09-85.5a26.41,26.41,0,0,0,1-4.7l-2.89-1-4,3.22c-1.31.06-2.63.18-4,.18q-58-.27-116-.48c-3.37,0-6.75.86-10.12,1.32-3.91.14-7.88-.24-11.86-.25-24.3-.07-48.6,0-72.9-.08-15.83,0-31.66-.22-47.48-.18-16.83,0-33.66.29-50.48.34-1.86,0-3.72-.7-6.17-1.2-1.62,3.74-3.55,8.21-5.61,12.94l2.94-.52c.73,1.58,1.4,2.91,2,4.28q22.1,53,44.19,106Q367.62,320.85,379,348h-8c-.31-.94-.56-1.91-.94-2.82Q343.35,282.6,316.62,220c-.37-.86-.88-1.65-1.52-2.84-2,2.46-2.48,4.62-1.39,7.19,1.7,4,3.18,8,4.93,12q18.48,41.43,37,82.82c4.24,9.55,8.24,19.2,12.35,28.81h-8c-.84-1.61-1.78-3.18-2.52-4.84-4.27-9.55-8.55-19.1-12.74-28.69q-16.55-37.91-33-75.84c-.89-2.06-2-4-3.24-6.54-.74,1.51-1.21,2.38-1.59,3.28Q284,289.77,261.05,344.21A28.28,28.28,0,0,0,260,348h-8q25-59.83,49.89-119.7c1.06-2.55,1.68-5.29,2.91-9.23l8.09-7.69-8.77-20c-1.28,2.77-2.14,4.5-2.89,6.29q-21.06,49.86-42.07,99.72c-7.1,16.86-14.11,33.74-21.16,50.61h-6a44.06,44.06,0,0,1,1.46-5.15q25.89-62.4,51.83-124.76c5.66-13.65,11.09-27.39,16.63-41.1l1.07-1,.29-.06L303,176,302,177.06l-3.28,1.41-3.12-6.11c-1.45-.07-2.92-.2-4.4-.21q-66.93-.5-133.87-1c-34.3-.25-68.59-.58-102.89-.68-17.81-.05-35.62.32-53.43.5v-5c.5-.05,1-.15,1.49-.15q78,.26,155.92.51,65.22.16,130.44.17A37.29,37.29,0,0,0,293,166c-1.87-4.44-3.55-8.39-5.21-12.36Q263.2,95,238.63,36.3C233.31,23.58,228.2,10.77,223-2h8a17.48,17.48,0,0,1,1,1.74q17.19,40.16,34.36,80.31,17.81,41.52,35.69,83a33.6,33.6,0,0,0,2.53,4.17c.32,1.52.66,3.18,1.05,5.07,2.92-2,5.37-3.61,8.25-5.53,2.24-5.17,4.71-10.8,7.12-16.46q21.81-51.21,43.55-102.44C371.51,31.3,378.18,14.62,385-2h6c-.54,1.39-1,2.8-1.61,4.18-9.93,23.79-19.92,47.55-29.8,71.36q-18.61,44.88-37.19,90c10,.4,19.72,1.06,29.48,1.12,26.31.18,52.63.12,78.94.11,3.82,0,7.65-.55,11.47-.42,11.47.36,22.94,1.06,34.41,1.4,14.24.42,28.47-.29,42.73,0,36.79.75,73.61.28,110.42.28,1.58,0,3.17-.17,5.18-.29-.5-1.46-.76-2.39-1.13-3.28-4-9.68-7.91-19.4-12.08-29Q592.48,65.7,563-2h9c23.07,53.86,45.79,107.88,70.77,161.55.89-2,1.59-3.46,2.22-5q17.41-41.91,34.83-83.81Q694.93,34.39,710-2Z"/><path d="M1405-3h22a27.16,27.16,0,0,1-.89,2.82c-4.57,10.54-9.23,21-13.75,31.59q-17.8,41.52-35.49,83.08c-.81,1.9-1.25,4-2.19,7,52.8.44,104.65.09,157.21.17l-1.54-3.09a14.62,14.62,0,0,0-1.71-.23q-67.5.11-135,.18c-4.43,0-8.86-.41-13.93-.66,1-2.6,1.63-4.62,2.46-6.57q11.79-27.79,23.64-55.59Q1418.38,26.34,1431-3h6q-23.43,56.66-46.9,113.37c6.67,1.55,130.31,2.11,137.36.65Q1502.71,53.95,1478-3h25c.41,1.09.77,2.2,1.24,3.26q25.37,58.11,50.73,116.22c1,2.25,1.79,4.57,2.44,6.26-2,3.48-3.49,6.37-5.25,9.1a6.84,6.84,0,0,1-6.18,3.57c-3-.09-6,0-9,0q-70-.47-140-.91c-14.5-.07-29,.25-43.49.33-1.87,0-3.74-.3-6.25-.52,1.21-3.1,2-5.42,3-7.69q26.45-62,52.89-124C1403.93.82,1404.39-1.12,1405-3Z"/><path d="M1118-1h32l47.83,109.3c-1.58,4.13-3.13,8.53-7.93,10.75H1069.55c1.47-3.19,2.71-5.84,3.94-8.49a15.28,15.28,0,0,1,.93-7.09Q1096.13,51.21,1118-1Z"/><path d="M529,349H506c.51-1.56.91-3.16,1.55-4.66,4.4-10.24,8.94-20.41,13.25-30.68,5.08-12.11,9.87-24.34,15-36.44,5-11.93,10.34-23.76,15.49-35.64.56-1.3,1-2.68,1.56-4.45-49.3-.46-98.07-1.37-147-.81a15.8,15.8,0,0,0,.48,2Q426,284.67,445.81,331c2.53,5.95,4.8,12,7.19,18H427c-8.22-19.46-16.39-38.93-24.66-58.37q-12.88-30.3-25.9-60.56c-.71-1.67-1.34-3.37-2-5,.67-1.38,1.22-2.5,1.52-3.14-.48-1.2-.76-1.88-.92-2.29,2.21-3.8,5.25-4.79,9.09-4.64,9.15.34,18.32.6,27.48.62,45.31.11,90.62.1,135.94.21,11.9,0,23.81.32,36.24.49-.69,2.07-1.08,3.66-1.73,5.13-4.54,10.36-9.33,20.6-13.68,31Q549,299,529.89,345.67A24.72,24.72,0,0,0,529,349Z"/><path d="M1440.89-3h33.3a31.18,31.18,0,0,0,1.09,3.6q20,45.69,40,91.38c1.25,2.87,2.39,5.79,3.89,9.43-1.9.79-3.47,1.81-5.15,2a60.76,60.76,0,0,1-8.54.39q-51.6.12-103.2.16c-1.36,0-2.72-.13-4.69-.23,1-2.54,1.73-4.58,2.55-6.58,2.59-6.27,5.26-12.51,7.78-18.81,1.41-3.52,2.47-7.18,3.91-10.69Q1426.29,32.32,1440.89-3Z"/><path d="M470-1h34a30,30,0,0,0,1.1,3.79q22.06,50.82,44.18,101.62c1.39,3.18,2.61,6.44,4.06,10l-6,5.78c-1.63-3.37-2.9-6-4.43-9.19H424.49c1.65-4.89,2.78-9,4.42-13q19.56-46.74,39.25-93.43C468.93,2.82,469.39.88,470-1Z"/><path d="M1181,349h-21c.44-1.25.83-2.52,1.34-3.74q10.53-25.32,21.1-50.64c7.64-18.37,15.27-36.75,23-55.47l-145.06-1.08c.82,2.17,1.34,3.72,2,5.22,3.07,7,6.23,14,9.28,21q17.47,40.25,34.91,80.53c.58,1.35.92,2.79,1.38,4.19h-24c-.61-1.72-1.12-3.48-1.85-5.15q-22.38-51.19-44.79-102.37c-2.66-6.06-5.36-12.09-8.17-18.45h-12l4.34-5h213.56c-.87,2.24-1.48,3.95-2.18,5.61q-21.12,50.39-42.24,100.77C1187.26,332.55,1184.21,340.81,1181,349Z"/><path d="M1177-1c4.16,10,8.21,20,12.49,29.9q20.65,47.88,41.44,95.7c.66,1.52,1.23,3.08,1.83,4.58-.55,1.48-1,2.87-1.58,4.22-1.4,3.37-3.75,5.41-7.59,5.35-5.83-.11-11.66-.26-17.48-.29q-85.2-.36-170.39-.67h-4.44c-3.82,2.91-5.76,7.22-11.15,8.33.93-2.86,1.67-5.15,2.46-7.6l-4.62-1.73,7.25-5.76.73.63q7.11-17,14.23-34,19.69-47.19,39.39-94.4c.57-1.37,1-2.82,1.43-4.23h27a28.29,28.29,0,0,1-1.07,4.24q-24,57.35-48,114.65c-.74,1.77-1.25,3.65-2.14,6.27h152.86Q1182.33,61.6,1155-1Z"/><path d="M854,349H838c.41-1.09.77-2.19,1.23-3.25q19.6-45.79,39.2-91.58c2.4-5.62,4.35-11.44,6.51-17.17l.19-.14L885,237c-2.69.69-3.87,2.7-4.89,5.11q-13.92,32.73-28,65.4c-6,13.86-12.06,27.66-18.1,41.48h-4c.55-1.56,1-3.14,1.65-4.66,5.89-14.11,11.71-28.26,17.74-42.31,9.12-21.26,17.37-42.9,27.55-63.93-49-.45-97.75-1.36-147.06-.8.63,1.67.94,2.6,1.32,3.5q22.13,51.54,44.25,103.1A48.48,48.48,0,0,1,777,349H758a44.49,44.49,0,0,0-1.5-4.71Q731,286.56,705.58,228.83a51.67,51.67,0,0,1-1.89-6.45l-4.77-.51c1.53-4.18,4.24-5.92,8.41-5.79,8.82.28,17.64.58,26.46.6q79.44.15,158.86.17h10.89l5.78-4.07,1,.66a44.48,44.48,0,0,1-1.37,4.47q-19.38,46.77-38.84,93.51C864.83,324,859.37,336.48,854,349Z"/><path d="M823,349H783a45.26,45.26,0,0,0-1.57-5.2q-19-43.47-38-86.9c-.72-1.64-1.33-3.33-2.12-5.3l5.54-5.16c1.12,1.42,1.82,2.3,2.41,3,2.36-.17,4.49-.44,6.62-.45q54-.15,108-.22a28.53,28.53,0,0,1,4.72.91c-1.23,1.65-1.78,3-2.8,3.65-4.54,2.77-5.81,7.5-7.56,12-.79,2-1.47,4.06-2.32,6q-15.09,35.1-30.19,70.17C824.64,344,823.89,346.51,823,349Z"/><path d="M528-1q24.63,56.21,49.28,112.39c3,6.83,6.23,13.55,9.53,20.71l-5.19,5.45C579,137,577,136.13,575,136.11q-91.92-.69-183.82-1.23c-4.16,0-8.32,0-11.83,0l-6.67,4.18-1-.85c.55-1.46,1.06-2.94,1.67-4.37Q398,76.29,422.69,18.76C425.5,12.19,428.23,5.59,431-1h21c-8.33,20.12-16.61,40.27-25,60.37s-16.78,39.92-25.63,60.94c53.53.92,105.8.19,158.72.57-4.15-10.07-7.82-19.33-11.75-28.47Q528.25,45.67,508-1Z"/><path d="M495,349H465c-3.93-9.7-7.74-19.44-11.81-29.08-8.47-20.06-17.11-40.05-25.57-60.11-.93-2.22-1.07-4.76-1.7-7.72H419.2c2.32-6,5.27-8.1,11.34-8.06q52.44.33,104.87.74c1.57,0,3.13.15,4.36.21C523.54,279.32,509.69,314.34,495,349Z"/><path d="M1146,349h-31q-14.54-34.44-29.09-68.88c-2.71-6.39-5.69-12.67-8.38-18.65,2.78-4.94,6.2-7,11.36-6.73,8.47.37,17,.19,25.46.2,8.32,0,16.65,0,25,0,8.49,0,17,.25,25.46-.13s16.77,1.47,25.16.12c.54-.08,1.15.31,2,.56-1.71,4.42-5.2,6.09-9.06,7.16-4.29,10-8.51,19.72-12.69,29.5Q1158.07,320.55,1146,349Z"/><path d="M1042-1,971.47,168.53c1.7.09,3.42.25,5.14.26,21.66.06,43.32.06,65,.17,2.67,0,5.44-.72,7.9,1.62.91.86,3.2.32,4.86.33l218.92.86a16.63,16.63,0,0,1,6.45.94c-1.35,1.48-2.69,3-3.92,4.34L1037.23,176c-2.48-.91-4.34-2.17-6.21-2.2-19-.26-38-.33-57-.44-.81,0-1.62.16-2.95.31.81,2.22,1.43,4.24,2.26,6.16,13.52,31.13,27.15,62.21,40.55,93.39,10.84,25.21,21.41,50.55,32.1,75.83h-9c-.86-2.16-1.65-4.34-2.58-6.47q-33.75-77.25-67.53-154.47c-.5-1.14-1.17-2.21-2.06-3.85-1.05,2.22-1.9,3.79-2.56,5.45-2.89,7.24-5.56,14.58-8.6,21.76q-28.33,67.07-56.81,134.08c-.51,1.21-1.23,2.34-1.86,3.5h-3a40.53,40.53,0,0,1,1.38-5.17q26.05-63,52.19-125.87c4.67-11.21,9.53-22.33,14.39-33.45,1-2.26,2.36-4.36,3.42-6.28-1-1.84-1.88-3.36-2.58-5q-35.47-82-70.87-164.06C888.49,5.84,887.3,2.39,886-1h9c.49,1.57.86,3.2,1.5,4.7,2.87,6.73,5.83,13.43,8.74,20.14q29.93,68.86,59.87,137.71c.57,1.31,1.32,2.54,2.37,4.56C991.21,109.89,1014.6,54.44,1038-1Z"/><path d="M1537,178c-4.65-.18-9.3-.51-14-.52q-107.62-.15-215.24-.23h-10c.88,2.42,1.35,3.95,2,5.42q28.21,65.49,56.47,131,6.91,16,13.79,32.06a28.47,28.47,0,0,1,1,3.3h-8c-.59-1.72-1-3.49-1.78-5.15q-19.93-46-40-91.91-14.05-32.22-28.22-64.39c-.83-1.89-1.82-3.71-3.31-6.74a66.45,66.45,0,0,0-3.73,6.41q-20.94,49.6-41.78,99.25Q1231.09,317.73,1218,349h-7c7.43-17.63,14.91-35.24,22.3-52.89,13.94-33.31,27.79-66.65,41.84-99.91,1.38-3.29,3.87-6.11,5.9-9.11.56-.82,1.59-1.36,2-2.23a212.73,212.73,0,0,0,8.34-21.21l-5.7,5.27c-.87-1.49-1.61-2.5-2.1-3.61q-35.07-80.58-70.08-161.17A41.6,41.6,0,0,1,1212-1h8c6,13.52,12.17,27,18,40.56q25.55,59.09,50.93,118.25c.56,1.31,1.29,2.55,2.18,4.28.68-1.24,1.12-1.91,1.43-2.63,4.16-9.61,8.35-19.2,12.43-28.85q25.77-60.87,51.45-121.79c1.35-3.2,2.37-6.54,3.54-9.82h7q-30.48,73.76-61,147.49c-1.08,2.61-2.29,5.17-3.53,7.71-2.18,4.45-4.49,8.84-6.61,13.33a16.41,16.41,0,0,0-.76,3.84c1.73.09,2.88.19,4,.2,45,.4,89.94.89,134.91,1.17,34.31.22,68.63.18,102.94.26Z"/><path d="M739-1c-4.24,10.65-8.39,21.34-12.74,31.94q-22.15,54-44.44,108c-2,4.92-4.29,9.74-6.44,14.6,3.58,1.46,253.87,2.39,261.94,1-.64-1.75-1.18-3.47-1.89-5.12q-29.52-68.26-59-136.54c-2-4.55-3.6-9.23-5.39-13.85h9c2.3,5.87,4.41,11.82,6.93,17.59Q916.38,84,946,151.46c.8,1.81,1.49,3.66,2.62,6.44l-6.16,5.87L939.88,161l-268.42-1.24-8.7,5.91c.19-3.13.31-5.3.38-6.43,2.11-4.21,4-7.52,5.46-11Q700.06,74.6,731.43.91A17.52,17.52,0,0,0,732-1Z"/><path d="M1195,349l62-147.78c-84.28-1.21-168.35-.89-253.21-1.12,3.2,7.59,6.06,14.46,9,21.31Q1039.4,283.55,1066,345.7a28.51,28.51,0,0,1,1,3.3h-8q-27-61.49-54-123c-3.42-7.77-6.68-15.62-10.5-23.19a39.81,39.81,0,0,1-3.83-11l6.38-6.31,4.8,9,265.55.65c-11.69,21.79-20,44.68-29.34,67.16-9,21.83-18.34,43.56-27.46,65.36-3,7.05-5.71,14.19-8.56,21.29Z"/><path d="M1061-2q-11.51,27.11-23,54.21-13.46,32-26.78,64c-4.68,11.2-9.28,22.43-13.89,33.66-.57,1.37-1,2.78-1.86,5h263.29c-.81-2.05-1.58-4.19-2.49-6.27Q1224.84,76.56,1193.39,4.5c-.93-2.11-1.6-4.33-2.39-6.5h9c5.57,13.17,11,26.38,16.72,39.5q25.14,58.2,50.38,116.33a40.16,40.16,0,0,0,2.8,5.64l-6,5.26-3.21-3.91-267-.95-9.16,7.76c-1.48-3.8,3.71-6.34.76-8.54,2.25-4.1,4.47-7.39,6-11Q1022.51,73.8,1053.5-.59c.19-.46.33-.94.5-1.41Z"/><path d="M869,349c.48-1.56.82-3.18,1.45-4.68q25.44-61.05,50.9-122.09c2.92-7,5.52-14.22,8.54-22-83.06-1.23-165.73-.9-249.19-1.3.92,2.28,1.49,3.79,2.13,5.27,13.23,30.89,26.55,61.75,39.67,92.7,7.33,17.3,14.34,34.74,21.5,52.12h-7c-5.12-11.73-10.17-23.49-15.37-35.19-8.5-19.14-17.16-38.22-25.65-57.38-7.88-17.79-15.62-35.64-23.44-53.45-.54-1.21-1.24-2.34-1.94-3.65l-6.31-.68c1.62-5.9,8.23-5.4,10.86-10.08l3.86,4.81h255.4l7.06-5.51,1.13.72a41.91,41.91,0,0,1-1.39,4.28c-8.15,18.76-16.53,37.42-24.48,56.27-13,30.8-25.69,61.71-38.53,92.57-1,2.45-2.13,4.86-3.2,7.29Z"/><path d="M543,349q15.21-35.82,30.4-71.64,14.67-34.7,29.25-69.43c1.16-2.74,2.38-5.46,3.81-8.74-4.56-.27-8.92-.68-13.3-.76-9.16-.16-18.32-.21-27.48-.22Q459.5,198,353.32,197.8h-7.21c.7,2.06,1.12,3.55,1.72,5q17.44,41.39,34.94,82.73,12.54,29.64,25.12,59.26A29.65,29.65,0,0,1,409,349h-8c-6.59-15.82-13.08-31.67-19.78-47.44Q359.67,250.78,338,200.08c-.39-.91-.7-1.86-1.24-3.3l4.92-5.55,2.36,1.63c2.94-.27,5.38-.69,7.81-.68q118.74.39,237.46.85c8.67,0,17.33-.1,26-.12,1.6,0,3.21.13,5.25.22-1.51,4.21-4.29,5.83-8.67,6.15Q581,274,550,349Z"/><path d="M72,349Q49.47,295.67,26.93,242.37c-5.78-13.63-11.75-27.18-17.63-40.76-.92-2.12-1.79-4.26-2.87-6.82,1.8-3.95,5.78-3.83,9.9-3.81q104,.48,207.89.84c19.15.07,38.31,0,57.7,0l4.81-2.93.89.47c-.49,1.42-.89,2.88-1.47,4.27q-31.27,75.08-62.54,150.17A53.79,53.79,0,0,0,222,349h-7a42.26,42.26,0,0,1,1.48-5.15Q245.91,274,275.42,204.11c.82-1.94,1.5-3.94,2.5-6.57L15.7,196.25c.54,1.72.82,2.95,1.3,4.09q28.28,67.13,56.56,134.24c2,4.73,3.64,9.61,5.44,14.42Z"/><path d="M216-1a30,30,0,0,0,1.08,3.79q27.54,65.05,55.15,130.07c3.44,8.1,7,16.17,10.62,24.6l-5,5.41-3-3.88L13.39,157.83,5.71,163.4l-.92-.71Q38.9,80.84,73-1h6a50.17,50.17,0,0,1-1.62,5.61Q48,74.57,18.64,144.5c-1,2.44-1.94,4.91-2.91,7.39,6.7,1.84,243.14,3,256.64,1.28-.67-1.9-1.21-3.77-2-5.55q-23-54.75-46.11-109.47C218.81,25.12,213.43,12.05,208-1Zm7.37,33.42.77.33.58-1.37-.76-.32Z"/><path d="M193-1c2.58,6.47,5,13,7.75,19.41q22.19,52.4,44.46,104.73c.71,1.67,1.38,3.36,2,5-2.29,5.47-7,6.54-11.88,6.69-5.65.18-11.31-.38-17-.42q-65-.4-129.93-.71c-12.15-.06-24.3.16-36.46.2-1.6,0-3.2-.25-5.18-.42,1.09-3.71,3.6-5.07,6.71-6.21,3.2-7.45,6.56-15.06,9.75-22.72Q84.69,53.2,106,1.81c.38-.92.68-1.87,1-2.81h7Q100.4,31.19,86.82,63.38C78.91,82.26,71.14,101.19,63.3,120.1c-1,2.44-2.08,4.85-3.38,7.85,59.63.65,119,1.57,179,0-2.09-5.1-3.84-9.57-5.72-14Q209.87,59.06,186.55,4.14A46.9,46.9,0,0,1,185-1Z"/><path d="M97,349q-16.83-39.48-33.66-79c-5.75-13.46-11.61-26.88-17.22-40.4-1.16-2.79-3.4-5.48-2.21-9,.06-.19-1.21-.83-1.84-1.25,2-4,4.63-5.48,8.66-5.46q97.2.54,194.42.89c1.3,0,2.61.16,4.6.29-.75,2.06-1.27,3.73-2,5.33q-26.53,61.95-53.09,123.87c-.65,1.52-1.14,3.11-1.7,4.67h-4c17.92-42.58,35.83-85.16,54.08-128.51H50.44c1.69,4.25,3.25,8.43,5,12.54q23.83,56.58,47.71,113.14A28,28,0,0,1,104,349Z"/><path d="M1537,201c-2.14.14-4.29.4-6.43.4q-96.67-.09-193.34-.23H1332c20.8,49.6,41.39,98.72,62,147.83h-9c-4.93-11.81-9.8-23.65-14.8-35.43q-22.83-53.74-45.73-107.45c-.65-1.52-1.35-3-2.07-4.63l-4.74-.68a32.27,32.27,0,0,1,9.18-9.43l3.29,4.34c4,0,8.52,0,13,0q72.72.24,145.44.51c14.66.06,29.32.28,44,.45,1.49,0,3,.21,4.46.32Z"/><path d="M1238-1l52,121.15c1.43-3.11,2.5-5.28,3.45-7.5q23.67-55.74,47.32-111.47A24.22,24.22,0,0,1,1342-1h6c-6.21,14.89-12.47,29.76-18.6,44.68q-17.19,41.79-34.19,83.64a27.66,27.66,0,0,1-8.45,11.53,40.29,40.29,0,0,1-3.91,2.47l-.78-.71c.64-2,1.27-3.94,2.07-6.41-4.5-10.92-9.07-22.16-13.74-33.36q-20.49-49.05-41-98.09c-.51-1.23-.91-2.5-1.36-3.75Z"/><path d="M1537,163c-38.46-.27-76.93-.62-115.39-.79-34.14-.15-68.27-.11-102.41-.09-3.07,0-6.14.55-9.77.89,0-.69-.37-2,.06-3,5.42-12.12,11.26-24.06,16.41-36.29,16.75-39.85,33.26-79.81,49.87-119.72.7-1.69,1.48-3.34,2.23-5h7c-10.11,23.9-20.29,47.78-30.31,71.72-11.88,28.37-23.62,56.81-35.66,85.77,2,.14,3.5.33,5,.34l152.47.49q28,.1,56,.34c1.49,0,3,.22,4.46.34Z"/><path d="M406-1q-19.94,47.91-39.86,95.82c-7.65,18.42-15.26,36.86-23.2,56.07a69.71,69.71,0,0,0,7.4.88c30.15.36,60.29.88,90.44.89,45.64,0,91.28-.35,136.92-.53,2.09,0,4.17.21,6.73.35-1.2,3.42-3.06,5-5.94,5.3a33.18,33.18,0,0,1-4,.07q-46.23-.4-92.44-.82c-37.31-.3-74.62-.64-111.93-.81-11,0-22,.46-32.3.7l-6.57,3.38c.83-2.62,1.18-4.13,1.78-5.54,14.39-33.64,28.89-67.24,43.2-100.92C384,35.63,391.42,17.29,399-1Z"/><path d="M1342,349q-10-23.12-20-46.24-15.2-35-30.42-70c-.59-1.36-1.28-2.68-2.17-4.54a41,41,0,0,0-2,3.68q-24,57.6-47.86,115.22A15.49,15.49,0,0,0,1239,349h-7c3.64-9.09,7.14-18.24,10.93-27.26q19.74-46.94,39.62-93.8A21,21,0,0,1,1294,216.43a33.77,33.77,0,0,1,2.13,3.62q26.64,61.9,53.19,123.83c.71,1.65,1.15,3.41,1.72,5.12Z"/><path d="M688,349c-3.7-9.26-7.18-18.61-11.13-27.76-11.53-26.73-23.25-53.38-34.91-80.05-.45-1-1-2-1.87-3.59a41.72,41.72,0,0,0-2.05,3.72q-22.11,53.22-44.2,106.45A7.65,7.65,0,0,1,593,349h-8c10.92-25.7,21.91-51.38,32.75-77.12,6.19-14.71,12.13-29.52,18.13-44.16-.8-2.26-1.51-4.28-2.23-6.3-.25-.32-.5-.65-.76-1l6.17-5,2.68,3.26,5.81-3.25c1.09,4.44-2.21,7-2.64,11.17.47,1.19,1.12,3,1.91,4.86q24.84,56.91,49.72,113.82c.53,1.21,1,2.46,1.46,3.7Z"/><path d="M1412,349c-5-12-9.88-24-15-35.91Q1378.2,269,1359.24,225c-.84-2-1.51-4-2.4-6.41l5.57-5.29,3.49,5.71H1537v6c-18.8-.15-37.6-.35-56.4-.42q-55.41-.22-110.81-.33a14.25,14.25,0,0,0-1.8.35Q1394.06,287,1420,349Z"/><path d="M909,349a34.84,34.84,0,0,1,1.22-4.7c16.27-39.17,32.65-78.3,48.83-117.5,2.57-6.24,7-10.36,13-14,1.23,2.47,2.5,4.74,3.51,7.12q17.27,40.36,34.47,80.77,9.29,21.81,18.52,43.64c.63,1.5,1,3.12,1.45,4.68h-7c-7-15.62-14.08-31.21-21-46.86q-16.65-37.62-33.17-75.31c-.45-1-.95-2-1.71-3.65-.78,1.39-1.31,2.16-1.67,3q-25.36,60.21-50.68,120.44c-.32.76-.5,1.58-.75,2.37Z"/><path d="M1537,140c-14.81-.21-29.62-.54-44.43-.62q-64.41-.37-128.82-.58c-2.16,0-4.31,0-6.28,0l-6,4c-.2-1.56-.33-2.57-.49-3.76l-7.7-.4c1.64-6.29,6.81-5,11.09-5.64,1.68-3.93,3.34-7.71,4.93-11.52q24.57-58.91,49.09-117.82C1409,2.17,1409.46.57,1410-1h7q-20.16,47.79-40.32,95.57c-4.77,11.34-9.43,22.73-14.11,34.1-.55,1.34-1,2.73-1.73,5h6.36l163.32.12c2.16,0,4.32.13,6.48.2Z"/><path d="M258-1a37.91,37.91,0,0,0,1.28,4.25q25,58.7,50.05,117.36c.32.75.72,1.48,1.34,2.72.84-1.84,1.55-3.29,2.18-4.77q24.67-58,49.36-116C362.73,1.33,363.4.18,364-1h5a27.8,27.8,0,0,1-1,3.77c-15.83,38.37-31.84,76.66-47.4,115.13-2.78,6.9-7.21,11.68-13.47,16.07.3-1.95.54-3.47.77-5l.19-.11L308,129l-2.59,1.36c-.91-2-1.75-3.74-2.5-5.52q-25.53-60.61-51-121.22C251.2,2.09,250.61.54,250-1Z"/><path d="M916-1c4.67,11.2,9.25,22.44,14,33.59q16.47,38.28,33.12,76.49c.86,2,1.82,3.9,3,6.44a14,14,0,0,0,1.12-1.77Q991.17,56.39,1015-1h7q-15.86,37.44-31.7,74.87-10.08,23.89-20,47.85c-1.93,4.65-5,8.09-10.39,10.75.82-2.77,1.41-4.73,2.13-7.16-2-4.87-4.07-10.12-6.32-15.29q-23.5-54-47.1-107.91C908.1,1.05,907.53,0,907-1Z"/><path d="M593-1q16,36.81,32.09,73.61c4.94,11.26,10.09,22.44,15.16,33.65.68,1.5,1.49,2.94,2.6,5.1C658.73,73.51,674.37,36.26,690-1h6q-8,19.34-16,38.66c-5.89,14.28-11.65,28.62-17.64,42.86-5.6,13.31-11.37,26.53-17.17,39.75-1.68,3.82-4,7.19-8.91,9.12.59-2.26,1-3.91,1.63-6.15-5.73-13.81-11.49-28.14-17.58-42.32C609,54.51,597.45,28.17,586,1.8c-.4-.91-.68-1.86-1-2.8Z"/><path d="M283-1l21.27,50c2,4.58,3.91,9.15,6.16,14.4,1-2.12,1.73-3.66,2.39-5.23Q324.45,30.62,336.05,3c.58-1.37,1.3-2.69,1.95-4h6c-.46,1.56-.79,3.18-1.4,4.68q-12.06,29.27-24.21,58.48c-1.21,2.89-2.81,5.63-4.44,8.87l5.41,13-5.66,5.42c-2.59-5.31-4.69-9.62-6.8-13.93l-.42.27c-.46-2.08-.61-4.3-1.42-6.23Q290.12,34.26,275-1Z"/><path d="M1000,349c-1-2.25-2.14-4.47-3.12-6.75q-12-27.94-24-55.89c-.45-1-1-2-1.8-3.55A14.48,14.48,0,0,0,969.6,285q-11.26,26.34-22.48,52.68c-1.64,3.82-3.41,7.57-5.12,11.35h-7c1.91-4.58,3.88-9.13,5.73-13.74,6.73-16.78,13.38-33.59,20.17-50.35,2.58-6.34,7-11.43,12.21-16.94a39.49,39.49,0,0,1,2.73,4.59c5.85,14.09,11.5,28.26,17.48,42.3,4.16,9.77,8.78,19.35,13.11,29.06A41,41,0,0,1,1008,349Z"/><path d="M552-1c5.93,13.37,11.89,26.72,17.77,40.12q23.44,53.46,46.83,107c.79,1.8,1.5,3.65,2.66,6.5-1.56,1.63-3.24,3.36-5.48,5.68-1.38-2.61-2.16-3.86-2.73-5.19Q578.21,76.76,545.43.42A13.69,13.69,0,0,1,545-1Z"/><path d="M1008-1a27.33,27.33,0,0,1-1,3.76q-16.46,39.3-33,78.56c-1.58,3.76-3.59,7.07-7.2,8.75l-3.33-7.75Q951.29,54,939.07,25.57c-3.16-7.32-6.4-14.6-9.54-21.92-.64-1.5-1-3.1-1.53-4.65h8q6.56,14.81,13.1,29.62,10.11,23.07,20.19,46.15c.31.73.73,1.41,1.38,2.63,2-4.54,3.84-8.61,5.59-12.72Q989.42,34,1002.5,3.22c.59-1.37,1-2.81,1.5-4.22Z"/><path d="M1320,349c-1.09-3.13-2-6.34-3.3-9.36-6.65-15.06-13.41-30.06-20.14-45.08-.33-.74-.77-1.42-1.43-2.65a23.54,23.54,0,0,0-1.65,2.73q-11,26.19-22,52.42A12.44,12.44,0,0,0,1271,349h-7c.89-2.47,1.69-5,2.67-7.41,6.95-17.2,13.84-34.42,21-51.55,2.34-5.64,6.84-9.39,11.87-12.39l1.11.76q-1.3,3.29-2.62,6.58l-.18.19.19-.21,3.92-2.23c.88,2,1.67,3.73,2.43,5.49q11.85,27.61,23.68,55.23c.76,1.8,1.32,3.69,2,5.54Z"/><path d="M1263-1c3.08,7,6.2,14,9.21,21q10.05,23.37,20,46.76c.77,1.82,1.66,3.58,2.94,6.33,11.33-25,21.56-49.54,31.85-74.06h5l-32.89,77.61c-1.54,3.65-2.87,7.39-4.54,11a15.49,15.49,0,0,1-9.2,8.44L1290.85,83c-9.44-22.4-19-45.06-28.52-67.76C1260.09,9.85,1258.1,4.4,1256-1Z"/><path d="M54,349Q28.3,288.55,2.59,228.09C2.14,227,1.53,226,1,225V206c1.07,2,2.32,3.92,3.2,6q28.17,66.92,56.27,133.86c.45,1.07,1,2.1,1.53,3.14Z"/><path d="M334,349c-1.89-5.13-3.51-10.38-5.71-15.38-5.89-13.39-12-26.69-18.08-40-.52-1.14-1.24-2.18-2.19-3.82-.8,1.55-1.37,2.5-1.8,3.52q-11.31,26.64-22.58,53.3A17.14,17.14,0,0,0,283,349h-7c.86-2.49,1.6-5,2.6-7.46,8-19.54,16.17-39.05,24.19-58.6a27.29,27.29,0,0,1,9.08-11.67,32,32,0,0,1,4-2c-1.32,3.94-2.3,6.85-3.62,10.77,6.61,15.28,13.45,31.34,20.48,47.31,3.22,7.3,6.81,14.44,10.24,21.65Z"/><path d="M677-1q-14.38,33.95-28.8,67.87A110.32,110.32,0,0,1,642,79.32c-1.17,2-3.21,3.52-5.32,5.74-1.2-2.54-2-4.15-2.74-5.8q-16.14-37.8-32.25-75.61C601,2.13,600.55.55,600-1h7c6.73,15.38,13.42,30.77,20.2,46.13,4,9.1,8.16,18.14,12.7,28.21C651.57,48.24,661.6,23.54,672-1Z"/><path d="M663,349q-5.1-11.36-10.21-22.72c-4.06-9.07-8.11-18.14-12.45-27.87L619,349h-7l25.65-61.45-.88-.59,9.63-8.26.87.59a7,7,0,0,1-.35,2.58c-2.19,3.66-1.61,6.94.07,10.79,7.5,17.19,14.63,34.54,21.91,51.83.65,1.53,1.4,3,2.1,4.51Z"/><path d="M463-1q-9.63,23.52-19.27,47.05c-5.91,14.46-11.55,29.05-17.84,43.35a166.56,166.56,0,0,1-11.32,20.39c-1.57,2.54-4.35,4.32-6.58,6.45l-1.25-.85c.56-1.6,1-3.24,1.69-4.79,7-16.35,15.06-32.34,20.88-49.1C436.72,40.14,446.94,20,455-1Z"/><path d="M1499-1q17.76,42.11,35.55,84.21c.69,1.64,1.63,3.19,2.45,4.79v18c-4.42-10-8.93-20-13.24-30Q1507.3,37.52,1491-1Z"/><path d="M1,131Q16.88,93.64,32.75,56.26c7.3-17.32,14.46-34.7,21.64-52.06C55.08,2.53,55.47.73,56-1h6C57.6,9.75,53.27,20.52,48.8,31.24q-18.6,44.63-37.32,89.2C8.15,128.36,4.5,136.15,1,144Z"/><path d="M1537,272c-6.94,16.46-13.93,32.91-20.8,49.4-3.83,9.16-7.47,18.4-11.2,27.6h-7a48.85,48.85,0,0,1,1.51-5.13q16.9-40.55,33.94-81A45.72,45.72,0,0,1,1537,257Z"/><path d="M31,349q-8.09-18.92-16.18-37.84C10.92,302,7.07,292.9,3.14,283.79A38.29,38.29,0,0,0,1,280V263a14.89,14.89,0,0,1,1.92,2.69q17.31,40.69,34.55,81.42A15.1,15.1,0,0,1,38,349Z"/><path d="M1,92c4.57-10.45,9.21-20.88,13.7-31.36Q27.92,29.85,41-1h5Q24.67,50.9,3.32,102.78A41.26,41.26,0,0,1,1,107Z"/><path d="M1,54C6.62,41.09,12.3,28.2,17.81,15.24,20.07,9.91,22,4.42,24-1h7C23.76,16.5,16.56,34,9.25,51.5,6.65,57.73,3.76,63.84,1,70Z"/><path d="M1537,43c-.37-.3-.91-.52-1.07-.9q-9-21.54-17.93-43.1h10l9,21Z"/><path d="M1,321c2.36,5.05,4.85,10,7.05,15.16,1.82,4.21,3.31,8.55,4.95,12.84H6L1,339Z"/><path d="M1524,349c3.55-8.28,7.07-16.58,10.66-24.84A43.73,43.73,0,0,1,1537,320v12q-3.49,8.5-7,17Z"/><path d="M1537,13l-6-14h6Z"/><path d="M1517,352h-16c.41-1.09.77-2.19,1.23-3.25q19.61-45.79,39.2-91.58c2.4-5.62,4.35-11.44,6.51-17.17l.19-.14-.15.15c-2.69.69-3.87,2.7-4.89,5.11q-13.92,32.73-28,65.4c-6,13.86-12.06,27.66-18.1,41.48h-4c.55-1.56,1-3.14,1.65-4.66,5.89-14.11,11.71-28.26,17.74-42.31,9.12-21.26,17.37-42.9,27.55-63.93-49-.45-97.75-1.36-147.06-.8.63,1.67.94,2.6,1.32,3.5q22.13,51.54,44.25,103.1A48.48,48.48,0,0,1,1440,352h-19a44.49,44.49,0,0,0-1.5-4.71q-25.45-57.74-50.92-115.46a51.67,51.67,0,0,1-1.89-6.45l-4.77-.51c1.53-4.18,4.24-5.92,8.41-5.79,8.82.28,17.64.58,26.46.6q79.44.15,158.86.17h10.89l5.78-4.07,1,.66a44.48,44.48,0,0,1-1.37,4.47q-19.38,46.77-38.84,93.51C1527.83,327,1522.37,339.48,1517,352Z"/><path d="M1486,352h-40a45.26,45.26,0,0,0-1.57-5.2q-19-43.47-38-86.9c-.72-1.64-1.33-3.33-2.12-5.3l5.54-5.16c1.12,1.42,1.82,2.3,2.41,3,2.36-.17,4.49-.44,6.62-.45q54-.15,108-.22a28.53,28.53,0,0,1,4.72.91c-1.23,1.65-1.78,3-2.8,3.65-4.54,2.77-5.81,7.5-7.56,12-.79,2-1.47,4.06-2.32,6q-15.09,35.1-30.19,70.17C1487.64,347,1486.89,349.51,1486,352Z"/><path d="M199,348H178c.44-1.25.83-2.52,1.34-3.74q10.53-25.32,21.1-50.64c7.64-18.37,15.27-36.75,23.05-55.47L78.43,237.07c.82,2.17,1.34,3.72,2,5.22,3.07,7,6.23,14,9.28,21q17.48,40.25,34.91,80.53c.58,1.35.92,2.79,1.38,4.19H102c-.61-1.72-1.12-3.48-1.85-5.15Q77.77,291.66,55.36,240.48C52.7,234.42,50,228.39,47.19,222h-12l4.34-5H253.06c-.87,2.24-1.48,3.95-2.18,5.61Q229.76,273,208.64,323.43C205.26,331.55,202.21,339.81,199,348Z"/><path d="M164,348H133q-14.53-36.54-29.09-73.06c-2.71-6.78-5.69-13.44-8.38-19.79,2.78-5.23,6.2-7.36,11.36-7.13,8.47.39,17,.2,25.46.22,8.32,0,16.65,0,25-.05,8.49,0,17,.27,25.46-.14s16.77,1.56,25.16.13c.54-.09,1.15.33,2,.59-1.71,4.69-5.2,6.47-9.06,7.6-4.29,10.57-8.51,20.92-12.69,31.29Q176.07,317.82,164,348Z"/><path d="M133-1h32l47.83,109.3c-1.58,4.13-3.13,8.53-7.93,10.75H84.55c1.47-3.19,2.71-5.84,3.94-8.49a15.28,15.28,0,0,1,.93-7.09Q111.13,51.21,133-1Z"/><path d="M192-1c4.16,10,8.21,20,12.49,29.9q20.65,47.88,41.44,95.7c.66,1.52,1.23,3.08,1.83,4.58-.55,1.48-1,2.87-1.58,4.22-1.4,3.37-3.75,5.41-7.59,5.35-5.83-.11-11.66-.26-17.48-.29q-85.2-.36-170.39-.67H46.28c-3.82,2.91-5.76,7.22-11.15,8.33.93-2.86,1.67-5.15,2.46-7.6L33,136.79,40.22,131l.73.63q7.11-17,14.23-34,19.7-47.19,39.39-94.4C95.14,1.86,95.53.41,96-1h27a28.29,28.29,0,0,1-1.07,4.24q-24,57.35-48,114.65c-.74,1.77-1.25,3.65-2.14,6.27H224.64Q197.33,61.6,170-1Z"/><path d="M753.29-2h23c-.51,1.56-.91,3.16-1.55,4.66-4.4,10.24-8.94,20.41-13.25,30.68-5.08,12.11-9.87,24.35-15,36.44S736.18,93.56,731,105.44c-.56,1.3-.94,2.68-1.56,4.45,49.31.46,98.08,1.37,147,.81a16.27,16.27,0,0,0-.48-2Q856.25,62.36,836.48,16c-2.53-5.94-4.8-12-7.19-18h26Q867.62,27.21,880,56.39,892.83,86.7,905.85,117c.71,1.66,1.34,3.36,2,5-.67,1.38-1.21,2.51-1.52,3.14.49,1.2.76,1.89.92,2.29-2.2,3.8-5.24,4.79-9.09,4.65-9.15-.35-18.31-.6-27.47-.63-45.32-.11-90.63-.1-135.94-.21-11.91,0-23.81-.31-36.25-.49.69-2.07,1.08-3.66,1.73-5.13,4.55-10.35,9.34-20.6,13.69-31Q733.29,48,752.4,1.35A24.33,24.33,0,0,0,753.29-2Z"/><path d="M787.29-2h30c3.93,9.7,7.74,19.44,11.81,29.08,8.47,20.06,17.12,40.05,25.57,60.12.93,2.21,1.07,4.75,1.71,7.72h6.71c-2.32,6-5.27,8.09-11.34,8q-52.44-.33-104.87-.74c-1.56,0-3.13-.15-4.35-.21C758.75,67.7,772.6,32.68,787.29-2Z"/></g><g id="Layer_5" data-name="Layer 5"><g class="cls-2"><path d="M71.46,432.41a15.88,15.88,0,0,1-1.08-3.57c-.81-13.84-1.67-27.66-.46-41.57.72-8.14.44-16.38.45-24.58s-.15-16.64-.23-25a7.12,7.12,0,0,1,0-1.13c1.16-8.95,1.08-7-6-11.25-13.54-8.08-27.06-16.17-40.74-24-9.74-5.57-19.67-10.81-29.61-16-6.94-3.63-7.06-3.57-13.84.14-12.83,7-25.59,14.15-38.39,21.24q-15.87,8.79-31.74,17.6c-2.21,1.22-4.26,2.73-6.49,3.89-1.82,1-2.29,2.38-2.42,4.29-1.47,21-2.2,42.07-2,63.14.05,6.93-.38,13.87-.42,20.8,0,3.9.32,7.8.42,11.7a3.56,3.56,0,0,0,1.82,3.1c1.17.74,2.34,1.49,3.54,2.18,5.81,3.29,11.58,6.66,17.46,9.83,4.21,2.27,8.48,4.46,12.86,6.38,13.3,5.85,25.79,13.23,38.44,20.3,2.42,1.35,4.88,2.65,7.23,4.12a9.24,9.24,0,0,1,3,2.74,3.59,3.59,0,0,1,0,3.07c-.58,1.05-1.88,1.12-3,.43-.33-.2-.64-.4-1-.58-11.56-6.45-23.08-13-34.71-19.3-5.65-3.07-11.61-5.55-17.21-8.7-5.14-2.9-10-6.34-15-9.56-5.27-3.42-10.57-6.81-15.75-10.37a5,5,0,0,1-1.83-3,35.85,35.85,0,0,1-.38-6.79c.4-16.64.91-33.28,1.3-49.92.18-7.44,0-14.89.27-22.32.23-6.3.86-12.58,1.34-18.86.14-1.88.43-3.44,3.08-3.23,1.07.09,2.29-.89,3.34-1.55,7.66-4.86,15.24-9.86,23-14.62,10-6.15,20.06-12.13,30.12-18.14,7.14-4.27,14.32-8.47,21.48-12.7,1.31-.77,2.58-1.61,3.94-2.25,2.89-1.34,3.44-1.1,5.61,1.38a7.18,7.18,0,0,0,2.5,1.55c23.66,10.73,47.33,21.41,68.84,36.24,4.86,3.35,10.1,6.16,15.22,9.13a4.7,4.7,0,0,1,2.37,4.76c-.26,6-.63,12.07-.8,18.11-.13,4.52-.19,9.06,0,13.57.7,16.4,1,32.77-.31,49.16-.44,5.52-.38,11.08-.5,16.63-.06,3.07-.45,3.45-3.85,3.37Z"/><path d="M28.63,356c-3.62,2.51-7.16,5.17-10.89,7.51C9.2,368.83.5,373.94-8,379.36a86.08,86.08,0,0,0-7.77,6.14c.62,14.5,1.22,28.33,1.83,42.53a16.12,16.12,0,0,0,2.51-.91c4.83-2.72,9.61-5.5,14.43-8.23a28.31,28.31,0,0,1,4.06-2,2.27,2.27,0,0,1,3.16,1.23,2.43,2.43,0,0,1-1.07,3.26c-3.25,1.93-6.45,3.94-9.73,5.8-3.07,1.74-6.24,3.31-9.35,5-4.75,2.56-7.64,1.4-8.41-3.79-1.86-12.44-4.94-24.77-3.93-37.52.18-2.23-.17-4.55,2-6.23.33-.26,0-1.52-.24-2.27-.08-.28-.56-.49-.89-.65-9.07-4.43-16.28-11.94-25.88-15.56-2.41-.91-4.43-2.84-6.62-4.32-.81-.54-1.59-1.11-2.77-1.95-.19,1.34-.39,2.27-.45,3.2-.28,4.28-.49,8.57-.78,12.84a20,20,0,0,1-.53,3.35,2.19,2.19,0,0,1-2.5,1.82,2.19,2.19,0,0,1-2.15-2.21,15.5,15.5,0,0,1,0-2.26c.28-5.29.64-10.58.84-15.87.12-3.32,1.38-5.71,4.49-7.18s6.26-3.23,9.36-4.91a78.58,78.58,0,0,0,7.21-4.12c6.73-4.67,13.37-9.47,20-14.29a9.69,9.69,0,0,0,2.46-2.72c2-3.28,4.42-4.24,7.94-2.64a46,46,0,0,1,6.92,3.88c3.84,2.62,7.59,5.39,11.27,8.25a6.24,6.24,0,0,1,2,3.05,4.45,4.45,0,0,1-1.87,5c-1.76,1.28-3.58,1.2-5.63-.11-6.46-4.12-12.94-8.22-19.35-12.29-12.45,7.83-23,17.63-37,23.15a41.72,41.72,0,0,0,3.83,3.36c2.82,1.88,5.77,3.59,8.63,5.43,3.6,2.31,7.18,4.64,10.72,7,4,2.75,8,5.59,12.14,8.44,6.12-6.17,13.56-9.76,20.25-14.45,5.25-3.67,10.56-7.28,15.84-10.91a17.1,17.1,0,0,1-.6-2.45c-.18-2.62,1.39-4.12,4-3.58a30,30,0,0,1,5.36,1.82c3,1.29,3.37,2.06,2.86,5.59Z"/><path d="M-68.39,342.46c-.16,7.33-.6,8.27-6.23,13.93,1.69,14.83-.33,29.52-.87,44.24a6.2,6.2,0,0,1-.58,2.16c-.11.27-.56.42-.82.6-1.72-.35-1.39-1.66-1.39-2.71,0-5.05.22-10.1.17-15.14-.09-9.07-.3-18.14-.46-27.28-1.14-.28-1.83-.5-2.55-.62a5.61,5.61,0,0,1-4.49-4.15,12.09,12.09,0,0,1,3-12.59,6.18,6.18,0,0,1,5.1-2c2.17.12,4.36,0,6.3,0,5.07-3.3,10.06-6.7,15.2-9.85,6.77-4.14,13.65-8.11,20.5-12.12,2-1.15,4-2.22,6-3.24,1.66-.84,3.35-1.22,4.59.42,2.19-2.59,4.28-5,6.33-7.51a5.72,5.72,0,0,0,.64-1.34c1.17-2.66,3.11-3.78,5.89-3.41a8.19,8.19,0,0,1,7,6.53c.23,1.1.25,2.24.4,3.72,2.38-1.08,3.79.48,5.27,1.82A36.1,36.1,0,0,1,3.84,317c5.61,6.48,12.43,11.4,19.85,15.57,2.08,1.17,4.08,2.51,6.08,3.83,1.16.78,1.8,1.86,1,3.22s-2,1.4-3.27.65c-8.26-4.84-16.91-9.07-23.61-16.22-2.91-3.11-6.08-6-9.34-9.16a15.24,15.24,0,0,1-9.65,5.8c-4.18.78-7.51-.12-9.65-4.59C-32,320.83-39.07,325.62-46.35,330S-61.21,338.43-68.39,342.46ZM-74,344.6c-2.28-.24-4.23-1.7-5.62.5s-2.17,4.51-.33,7.14C-76.69,350.82-74.56,348.71-74,344.6Zm54.14-29.4c3.26.81,5.48-.46,7.31-2.44,1-1.05,1.34-2.7.09-3.7a3.5,3.5,0,0,0-3,0A7.65,7.65,0,0,0-19.91,315.2Z"/><path d="M41.63,355a12.25,12.25,0,0,1-2.15-18,5.69,5.69,0,0,1,5.39-2c2.18.28,3.86,1,4.15,3.56.07.62.8,1.2,1.3,1.73,3.38,3.61,3.48,7.77.18,11.44a7.63,7.63,0,0,1-2.27,1.95c-1.94.88-2.27,2.37-2.32,4.28-.19,7.3-.46,14.6-.76,21.89-.26,6.42-.55,12.83-.91,19.25-.15,2.87-.89,4.06-2.16,3.71-2.06-.57-1.49-2.41-1.46-3.8.3-13.72.67-27.44,1-41.16C41.65,357,41.63,356.13,41.63,355Zm1.46-11.89c-.48,2.44-1.06,4.22.38,5.88,2.06-.36,2.76-1.61,3.08-3.57Z"/><path d="M467,439.61a15.42,15.42,0,0,1-1.09-3.57c-.8-13.84-1.66-27.66-.45-41.57.71-8.14.43-16.38.45-24.58s-.15-16.64-.24-25a8.55,8.55,0,0,1,.05-1.13c1.15-9,1.07-7-6-11.25-13.53-8.08-27.06-16.17-40.73-24-9.74-5.57-19.67-10.81-29.61-16-6.95-3.63-7.07-3.57-13.84.14-12.83,7-25.6,14.15-38.39,21.24q-15.87,8.79-31.75,17.6c-2.2,1.22-4.25,2.73-6.48,3.89-1.83,1-2.29,2.38-2.43,4.29-1.46,21-2.2,42.06-2,63.14.06,6.93-.37,13.87-.42,20.8,0,3.9.33,7.8.43,11.7a3.54,3.54,0,0,0,1.82,3.1c1.17.74,2.33,1.49,3.54,2.18,5.81,3.29,11.58,6.66,17.45,9.83,4.22,2.27,8.49,4.46,12.87,6.38,13.3,5.85,25.79,13.23,38.44,20.3,2.42,1.35,4.88,2.65,7.23,4.12a9.34,9.34,0,0,1,3,2.74,3.59,3.59,0,0,1,0,3.07c-.58,1.05-1.88,1.12-3,.43-.32-.2-.64-.4-1-.58-11.56-6.45-23.09-13-34.71-19.3-5.65-3.07-11.62-5.55-17.21-8.7-5.15-2.9-10-6.34-15-9.56-5.27-3.42-10.57-6.81-15.75-10.37a4.93,4.93,0,0,1-1.83-3,35.85,35.85,0,0,1-.38-6.79c.4-16.64.91-33.28,1.3-49.93.17-7.43,0-14.88.26-22.31.23-6.3.87-12.58,1.35-18.86.14-1.88.43-3.44,3.08-3.23,1.06.09,2.29-.89,3.33-1.55,7.67-4.86,15.25-9.86,23-14.62,10-6.15,20.06-12.13,30.11-18.14,7.15-4.27,14.33-8.47,21.49-12.7,1.3-.77,2.57-1.61,3.94-2.25,2.88-1.34,3.44-1.1,5.61,1.38a7.14,7.14,0,0,0,2.49,1.55c23.66,10.73,47.34,21.41,68.85,36.24,4.86,3.35,10.1,6.16,15.22,9.13a4.7,4.7,0,0,1,2.37,4.76c-.27,6-.63,12.07-.81,18.11-.13,4.52-.18,9.06,0,13.57.71,16.4,1,32.77-.3,49.16-.44,5.52-.38,11.08-.5,16.63-.06,3.07-.45,3.45-3.85,3.37Z"/><path d="M327.17,349.66c-.16,7.33-.6,8.27-6.23,13.93,1.69,14.83-.34,29.52-.87,44.24a6.67,6.67,0,0,1-.58,2.16c-.12.27-.56.42-.82.6-1.72-.35-1.39-1.66-1.39-2.71,0-5.05.21-10.1.17-15.14-.09-9.07-.31-18.14-.47-27.28-1.13-.28-1.83-.5-2.54-.62a5.61,5.61,0,0,1-4.49-4.15,12.09,12.09,0,0,1,2.95-12.59,6.17,6.17,0,0,1,5.09-2c2.18.12,4.37,0,6.31,0,5.07-3.3,10.06-6.7,15.2-9.85,6.77-4.14,13.65-8.11,20.5-12.12,1.95-1.15,3.95-2.22,6-3.24,1.66-.84,3.36-1.22,4.6.42,2.19-2.59,4.27-5,6.32-7.51a5.37,5.37,0,0,0,.65-1.34c1.17-2.66,3.11-3.78,5.89-3.41a8.19,8.19,0,0,1,7,6.53c.23,1.1.25,2.24.4,3.72,2.38-1.08,3.79.48,5.27,1.82a36.1,36.1,0,0,1,3.3,3.12,72.8,72.8,0,0,0,19.84,15.57c2.09,1.17,4.08,2.51,6.08,3.83,1.17.78,1.81,1.86,1,3.22s-2,1.4-3.26.65c-8.26-4.84-16.92-9.07-23.61-16.22-2.91-3.11-6.08-6-9.34-9.16a15.27,15.27,0,0,1-9.65,5.8c-4.18.78-7.51-.12-9.65-4.59-7.26,4.69-14.31,9.48-21.6,13.87S334.34,345.63,327.17,349.66Zm-5.67,2.13c-2.27-.23-4.22-1.69-5.61.51s-2.17,4.51-.34,7.14C318.87,358,321,355.91,321.5,351.79Zm54.15-29.39c3.25.81,5.48-.46,7.31-2.44,1-1,1.33-2.7.08-3.7a3.48,3.48,0,0,0-3,0A7.65,7.65,0,0,0,375.65,322.4Z"/><path d="M437.19,362.24a12.25,12.25,0,0,1-2.15-18,5.67,5.67,0,0,1,5.39-2c2.18.28,3.86,1,4.14,3.56.07.62.81,1.2,1.31,1.73,3.38,3.61,3.47,7.77.18,11.44a7.76,7.76,0,0,1-2.27,2c-2,.88-2.27,2.37-2.32,4.28-.19,7.3-.47,14.6-.76,21.89q-.39,9.63-.91,19.25c-.16,2.87-.9,4.06-2.16,3.71-2.06-.57-1.49-2.41-1.46-3.8q.45-20.58,1-41.16C437.21,364.2,437.19,363.33,437.19,362.24Zm1.45-11.89c-.48,2.44-1.05,4.22.39,5.88,2.06-.36,2.76-1.61,3.08-3.57Z"/><path d="M659,436.71a15.88,15.88,0,0,1-1.08-3.57c-.81-13.84-1.67-27.67-.45-41.57.71-8.14.43-16.38.44-24.58s-.15-16.64-.23-25a8.54,8.54,0,0,1,0-1.13c1.16-8.95,1.08-7-6-11.25-13.54-8.08-27.06-16.18-40.74-24-9.73-5.57-19.66-10.81-29.61-16-6.94-3.63-7.06-3.57-13.84.14-12.82,7-25.59,14.15-38.38,21.24q-15.89,8.79-31.75,17.6c-2.2,1.22-4.25,2.73-6.48,3.89-1.83,1-2.3,2.38-2.43,4.29-1.46,21-2.2,42.06-2,63.14,0,6.93-.38,13.87-.42,20.8,0,3.9.32,7.8.43,11.7a3.55,3.55,0,0,0,1.81,3.1c1.17.74,2.34,1.49,3.54,2.18,5.81,3.29,11.58,6.66,17.46,9.83,4.21,2.27,8.48,4.46,12.86,6.38,13.31,5.85,25.79,13.23,38.44,20.3,2.43,1.35,4.88,2.65,7.23,4.12a9.24,9.24,0,0,1,3,2.74,3.55,3.55,0,0,1,0,3.07c-.58,1-1.88,1.12-3,.43-.32-.2-.64-.4-1-.58-11.57-6.45-23.09-13-34.72-19.3-5.64-3.07-11.61-5.55-17.2-8.7-5.15-2.9-10-6.34-15-9.56-5.27-3.42-10.56-6.81-15.74-10.37a4.94,4.94,0,0,1-1.84-3,36.7,36.7,0,0,1-.38-6.79c.41-16.64.91-33.28,1.3-49.93.18-7.43,0-14.88.27-22.31.23-6.3.87-12.58,1.34-18.86.14-1.88.44-3.44,3.08-3.23,1.07.09,2.29-.89,3.34-1.55,7.67-4.86,15.24-9.86,23-14.62,10-6.15,20.06-12.13,30.12-18.14,7.14-4.27,14.32-8.47,21.49-12.7,1.3-.77,2.57-1.61,3.94-2.25,2.88-1.34,3.43-1.1,5.61,1.38a7,7,0,0,0,2.49,1.55c23.66,10.73,47.33,21.41,68.84,36.24,4.86,3.35,10.1,6.16,15.22,9.13a4.71,4.71,0,0,1,2.38,4.76c-.27,6-.64,12.07-.81,18.11-.13,4.52-.19,9.06,0,13.57.7,16.4,1,32.77-.31,49.16-.43,5.52-.38,11.08-.49,16.63-.07,3.07-.45,3.45-3.86,3.37Z"/><path d="M519.14,346.76c-.16,7.33-.6,8.27-6.23,13.93,1.7,14.83-.33,29.52-.86,44.24a6.44,6.44,0,0,1-.59,2.16c-.11.27-.56.42-.82.6-1.72-.35-1.39-1.66-1.38-2.71,0-5.05.21-10.1.16-15.14-.09-9.07-.3-18.14-.46-27.28-1.13-.28-1.83-.5-2.55-.63a5.57,5.57,0,0,1-4.48-4.14,12.08,12.08,0,0,1,2.94-12.59,6.18,6.18,0,0,1,5.1-2c2.18.12,4.37,0,6.3,0,5.07-3.3,10.06-6.7,15.21-9.85,6.76-4.14,13.64-8.11,20.49-12.12,2-1.15,4-2.22,6-3.24,1.66-.84,3.35-1.22,4.59.42,2.19-2.59,4.28-5,6.33-7.51a5.72,5.72,0,0,0,.64-1.34c1.17-2.66,3.11-3.78,5.89-3.41a8.19,8.19,0,0,1,7,6.53,35.69,35.69,0,0,1,.4,3.72c2.39-1.08,3.79.48,5.27,1.82a34.84,34.84,0,0,1,3.3,3.12c5.61,6.48,12.43,11.4,19.85,15.57,2.08,1.17,4.08,2.51,6.08,3.83,1.17.78,1.8,1.86,1,3.22s-2,1.4-3.27.65c-8.25-4.84-16.91-9.07-23.6-16.22-2.91-3.11-6.09-6-9.35-9.16a15.24,15.24,0,0,1-9.65,5.8c-4.17.78-7.51-.12-9.64-4.59-7.27,4.69-14.32,9.48-21.6,13.87S526.32,342.73,519.14,346.76Zm-5.66,2.13c-2.27-.23-4.23-1.69-5.61.51s-2.18,4.51-.34,7.14C510.84,355.12,513,353,513.48,348.89Zm54.14-29.39c3.26.81,5.49-.46,7.31-2.44,1-1.05,1.34-2.7.09-3.7a3.5,3.5,0,0,0-3,0A7.67,7.67,0,0,0,567.62,319.5Z"/><path d="M629.16,359.34a12.25,12.25,0,0,1-2.15-18,5.69,5.69,0,0,1,5.39-2c2.18.28,3.86,1,4.15,3.56.07.62.81,1.2,1.31,1.73,3.37,3.61,3.47,7.77.17,11.44a7.51,7.51,0,0,1-2.27,1.95c-1.94.88-2.26,2.37-2.31,4.28-.19,7.3-.47,14.6-.77,21.89q-.39,9.63-.9,19.25c-.16,2.87-.9,4.06-2.17,3.71-2.05-.57-1.49-2.41-1.46-3.8.3-13.72.67-27.44,1-41.16C629.18,361.3,629.16,360.43,629.16,359.34Zm1.46-11.89c-.48,2.44-1.06,4.22.38,5.88,2.06-.36,2.76-1.61,3.08-3.57Z"/><path d="M842.08,439.53A15.49,15.49,0,0,1,841,436c-.81-13.85-1.67-27.67-.45-41.57.71-8.15.43-16.39.45-24.58s-.16-16.65-.24-25a8.7,8.7,0,0,1,0-1.14c1.15-8.95,1.07-7-6-11.24-13.53-8.08-27.06-16.18-40.74-24-9.73-5.57-19.66-10.81-29.6-16-6.95-3.63-7.07-3.57-13.85.14-12.82,7-25.59,14.15-38.38,21.24q-15.88,8.79-31.75,17.6c-2.2,1.23-4.25,2.73-6.48,3.9-1.83,1-2.3,2.37-2.43,4.29-1.46,21-2.2,42.06-2,63.13,0,6.93-.38,13.87-.42,20.8,0,3.9.32,7.8.43,11.71a3.53,3.53,0,0,0,1.81,3.09c1.18.74,2.34,1.5,3.54,2.18,5.81,3.3,11.59,6.66,17.46,9.83,4.21,2.28,8.49,4.46,12.86,6.38,13.31,5.85,25.79,13.23,38.45,20.3,2.42,1.35,4.87,2.65,7.22,4.12a9.37,9.37,0,0,1,3,2.74,3.59,3.59,0,0,1,0,3.07c-.57,1.06-1.87,1.13-3,.43-.32-.19-.64-.4-1-.58-11.57-6.44-23.09-13-34.72-19.29-5.64-3.07-11.61-5.55-17.2-8.71-5.15-2.9-10-6.33-15-9.56-5.27-3.42-10.56-6.81-15.74-10.36a5,5,0,0,1-1.84-3,37.48,37.48,0,0,1-.38-6.79c.41-16.64.92-33.28,1.3-49.92.18-7.44,0-14.89.27-22.32.23-6.29.87-12.57,1.34-18.86.15-1.88.44-3.44,3.08-3.22,1.07.08,2.29-.89,3.34-1.55,7.67-4.86,15.25-9.87,23-14.63,10-6.14,20.06-12.12,30.12-18.13,7.14-4.27,14.32-8.48,21.49-12.71,1.3-.77,2.57-1.61,3.94-2.25,2.88-1.34,3.43-1.09,5.61,1.39a7.27,7.27,0,0,0,2.49,1.54c23.66,10.73,47.33,21.41,68.84,36.25,4.86,3.35,10.11,6.15,15.22,9.12a4.7,4.7,0,0,1,2.38,4.76c-.27,6-.64,12.08-.81,18.12-.13,4.52-.19,9.05,0,13.57.71,16.39,1,32.77-.3,49.15-.44,5.52-.38,11.09-.5,16.63-.07,3.07-.45,3.45-3.86,3.37Z"/><path d="M702.23,349.59c-.16,7.32-.61,8.26-6.24,13.92,1.7,14.83-.33,29.53-.86,44.25a6.68,6.68,0,0,1-.58,2.15c-.12.28-.57.42-.83.6-1.72-.34-1.39-1.66-1.38-2.71,0-5.05.21-10.1.16-15.14-.09-9.07-.3-18.14-.46-27.28-1.13-.28-1.83-.49-2.55-.62a5.6,5.6,0,0,1-4.48-4.15A12.11,12.11,0,0,1,688,348a6.19,6.19,0,0,1,5.1-2c2.18.12,4.37,0,6.3,0,5.08-3.3,10.07-6.69,15.21-9.84,6.77-4.15,13.64-8.12,20.5-12.13,2-1.14,4-2.22,6-3.24,1.66-.84,3.36-1.22,4.6.42,2.18-2.59,4.27-5,6.32-7.51a5.45,5.45,0,0,0,.64-1.33c1.18-2.66,3.12-3.79,5.89-3.42a8.18,8.18,0,0,1,7,6.54c.24,1.09.25,2.24.41,3.71,2.38-1.07,3.78.48,5.27,1.82a39,39,0,0,1,3.3,3.12c5.6,6.48,12.42,11.4,19.84,15.57,2.09,1.18,4.08,2.52,6.08,3.84,1.17.77,1.8,1.85,1,3.21s-2,1.4-3.27.66c-8.25-4.84-16.91-9.08-23.6-16.23-2.91-3.11-6.09-6-9.34-9.15a15.29,15.29,0,0,1-9.66,5.79c-4.17.79-7.51-.12-9.64-4.59-7.27,4.69-14.31,9.49-21.6,13.88S709.4,345.55,702.23,349.59Zm-5.67,2.13c-2.27-.24-4.23-1.7-5.61.5s-2.17,4.51-.34,7.15C693.92,357.94,696.06,355.83,696.56,351.72Zm54.14-29.4c3.26.82,5.49-.45,7.32-2.44,1-1.05,1.33-2.69.08-3.7a3.5,3.5,0,0,0-3,0A7.7,7.7,0,0,0,750.7,322.32Z"/><path d="M812.25,362.17a12.26,12.26,0,0,1-2.16-18,5.72,5.72,0,0,1,5.4-2c2.18.28,3.86,1,4.14,3.57.07.62.81,1.19,1.31,1.73,3.38,3.6,3.47,7.76.18,11.43a7.53,7.53,0,0,1-2.28,1.95c-1.94.88-2.26,2.38-2.31,4.28-.19,7.3-.47,14.6-.77,21.9q-.39,9.62-.9,19.24c-.16,2.88-.9,4.06-2.16,3.71-2.06-.57-1.49-2.41-1.46-3.79.29-13.73.66-27.45,1-41.17C812.26,364.13,812.25,363.25,812.25,362.17Zm1.45-11.9c-.48,2.44-1.06,4.22.38,5.88,2.06-.35,2.77-1.61,3.09-3.57Z"/><path d="M1030.71,439.53a15.49,15.49,0,0,1-1.09-3.56c-.81-13.85-1.66-27.67-.45-41.57.71-8.15.43-16.39.45-24.58s-.15-16.65-.24-25a8.7,8.7,0,0,1,0-1.14c1.15-8.95,1.07-7-6-11.24-13.53-8.08-27.06-16.18-40.73-24-9.74-5.57-19.67-10.81-29.61-16-6.95-3.63-7.07-3.57-13.84.14-12.83,7-25.6,14.15-38.39,21.24q-15.87,8.79-31.75,17.6c-2.2,1.23-4.25,2.73-6.48,3.9-1.83,1-2.29,2.37-2.43,4.29-1.46,21-2.2,42.06-2,63.13.06,6.93-.37,13.87-.42,20.8,0,3.9.33,7.8.43,11.71a3.52,3.52,0,0,0,1.82,3.09c1.17.74,2.33,1.5,3.54,2.18,5.81,3.3,11.58,6.66,17.45,9.83,4.21,2.28,8.49,4.46,12.87,6.38,13.3,5.85,25.79,13.23,38.44,20.3,2.42,1.35,4.88,2.65,7.23,4.12a9.34,9.34,0,0,1,3,2.74,3.59,3.59,0,0,1,0,3.07c-.58,1.06-1.88,1.13-3,.43-.32-.19-.64-.4-1-.58-11.56-6.44-23.09-13-34.72-19.29-5.64-3.07-11.61-5.55-17.2-8.71-5.15-2.9-10-6.33-15-9.56-5.28-3.42-10.57-6.81-15.75-10.36a4.91,4.91,0,0,1-1.83-3,36.6,36.6,0,0,1-.39-6.79c.41-16.64.92-33.28,1.31-49.92.17-7.44,0-14.89.26-22.32.23-6.29.87-12.57,1.35-18.86.14-1.88.43-3.44,3.08-3.22,1.06.08,2.29-.89,3.33-1.55,7.67-4.86,15.25-9.87,23-14.63,10-6.14,20.06-12.12,30.11-18.13,7.15-4.27,14.33-8.48,21.49-12.71,1.3-.77,2.57-1.61,3.94-2.25,2.88-1.34,3.44-1.09,5.61,1.39a7.27,7.27,0,0,0,2.49,1.54c23.66,10.73,47.33,21.41,68.85,36.25,4.86,3.35,10.1,6.15,15.22,9.12a4.71,4.71,0,0,1,2.37,4.76c-.27,6-.63,12.08-.81,18.12-.13,4.52-.18,9.05,0,13.57.71,16.39,1,32.77-.3,49.15-.44,5.52-.38,11.09-.5,16.63-.06,3.07-.45,3.45-3.85,3.37Z"/><path d="M890.86,349.59c-.16,7.32-.6,8.26-6.23,13.92,1.69,14.83-.34,29.53-.87,44.25a6.68,6.68,0,0,1-.58,2.15c-.12.28-.56.42-.82.6-1.72-.34-1.4-1.66-1.39-2.71,0-5.05.21-10.1.16-15.14-.08-9.07-.3-18.14-.46-27.28-1.13-.28-1.83-.49-2.54-.62a5.61,5.61,0,0,1-4.49-4.15A12.11,12.11,0,0,1,876.58,348a6.2,6.2,0,0,1,5.1-2c2.18.12,4.37,0,6.31,0,5.07-3.3,10.06-6.69,15.2-9.84,6.77-4.15,13.65-8.12,20.5-12.13,1.95-1.14,3.95-2.22,6-3.24,1.66-.84,3.36-1.22,4.6.42,2.19-2.59,4.27-5,6.32-7.51a5.48,5.48,0,0,0,.65-1.33c1.17-2.66,3.11-3.79,5.88-3.42a8.18,8.18,0,0,1,7,6.54c.23,1.09.25,2.24.4,3.71,2.38-1.07,3.79.48,5.27,1.82a37.52,37.52,0,0,1,3.3,3.12,72.8,72.8,0,0,0,19.84,15.57c2.09,1.18,4.08,2.52,6.08,3.84,1.17.77,1.81,1.85,1,3.21s-2,1.4-3.26.66c-8.26-4.84-16.92-9.08-23.61-16.23-2.91-3.11-6.08-6-9.34-9.15a15.3,15.3,0,0,1-9.65,5.79c-4.18.79-7.51-.12-9.65-4.59-7.27,4.69-14.31,9.49-21.6,13.88S898,345.55,890.86,349.59Zm-5.67,2.13c-2.27-.24-4.22-1.7-5.61.5s-2.17,4.51-.34,7.15C882.56,357.94,884.69,355.83,885.19,351.72Zm54.15-29.4c3.25.82,5.48-.45,7.31-2.44,1-1.05,1.33-2.69.08-3.7a3.48,3.48,0,0,0-3,0A7.66,7.66,0,0,0,939.34,322.32Z"/><path d="M1000.88,362.17a12.26,12.26,0,0,1-2.15-18,5.7,5.7,0,0,1,5.39-2c2.18.28,3.86,1,4.14,3.57.07.62.81,1.19,1.31,1.73,3.38,3.6,3.47,7.76.18,11.43a7.61,7.61,0,0,1-2.27,1.95c-2,.88-2.27,2.38-2.32,4.28-.19,7.3-.47,14.6-.76,21.9q-.39,9.62-.91,19.24c-.16,2.88-.9,4.06-2.16,3.71-2.06-.57-1.49-2.41-1.46-3.79q.45-20.6,1-41.17C1000.9,364.13,1000.88,363.25,1000.88,362.17Zm1.45-11.9c-.48,2.44-1.05,4.22.39,5.88,2.06-.35,2.76-1.61,3.08-3.57Z"/><path d="M1219.86,438.59a16,16,0,0,1-1.09-3.56c-.8-13.85-1.66-27.67-.45-41.57.71-8.15.44-16.39.45-24.58s-.15-16.65-.24-25a8.7,8.7,0,0,1,0-1.14c1.16-8.95,1.08-7-6-11.25-13.53-8.07-27-16.17-40.73-24-9.74-5.57-19.67-10.81-29.61-16-6.94-3.63-7.07-3.57-13.84.14-12.83,7-25.6,14.15-38.39,21.24q-15.87,8.79-31.75,17.6c-2.2,1.22-4.25,2.73-6.48,3.9-1.82,1-2.29,2.37-2.43,4.28-1.46,21-2.2,42.07-2,63.14.06,6.93-.37,13.87-.41,20.8,0,3.9.32,7.8.42,11.71a3.54,3.54,0,0,0,1.82,3.09c1.17.74,2.34,1.49,3.54,2.18,5.81,3.3,11.58,6.66,17.46,9.83,4.21,2.27,8.48,4.46,12.86,6.38,13.3,5.85,25.79,13.23,38.44,20.3,2.42,1.35,4.88,2.65,7.23,4.12a9.24,9.24,0,0,1,3,2.74,3.59,3.59,0,0,1,0,3.07c-.58,1-1.88,1.12-3,.43-.33-.19-.65-.4-1-.58-11.56-6.44-23.08-13-34.71-19.29-5.65-3.07-11.62-5.55-17.21-8.71-5.15-2.9-10-6.33-15-9.56-5.27-3.42-10.57-6.81-15.75-10.36a5,5,0,0,1-1.83-3,35.85,35.85,0,0,1-.38-6.79c.4-16.64.91-33.28,1.3-49.92.17-7.44,0-14.89.26-22.32.23-6.3.87-12.57,1.35-18.86.14-1.88.43-3.44,3.08-3.23,1.07.09,2.29-.88,3.33-1.55,7.67-4.85,15.25-9.86,23-14.62,10-6.14,20.06-12.12,30.12-18.14,7.14-4.26,14.32-8.47,21.48-12.7,1.3-.77,2.58-1.61,3.94-2.25,2.89-1.34,3.44-1.1,5.61,1.39a7.36,7.36,0,0,0,2.49,1.54c23.66,10.73,47.34,21.41,68.85,36.24,4.86,3.36,10.1,6.16,15.22,9.13a4.71,4.71,0,0,1,2.37,4.76c-.27,6-.63,12.07-.81,18.12-.13,4.52-.18,9.05,0,13.57.71,16.39,1,32.77-.3,49.15-.44,5.52-.38,11.09-.5,16.63-.06,3.07-.45,3.45-3.85,3.37Z"/><path d="M1080,348.64c-.16,7.33-.6,8.27-6.23,13.93,1.69,14.83-.33,29.53-.87,44.24a6.43,6.43,0,0,1-.58,2.16c-.11.28-.56.42-.82.6-1.72-.34-1.39-1.66-1.39-2.71,0-5.05.21-10.1.17-15.14-.09-9.07-.3-18.14-.47-27.28-1.13-.28-1.83-.49-2.54-.62a5.61,5.61,0,0,1-4.49-4.15,12.09,12.09,0,0,1,3-12.59,6.17,6.17,0,0,1,5.09-2c2.18.12,4.37,0,6.31,0,5.07-3.3,10.06-6.69,15.2-9.84,6.77-4.15,13.65-8.12,20.5-12.13,2-1.15,4-2.22,6-3.24,1.66-.84,3.36-1.22,4.6.42,2.19-2.59,4.27-5,6.32-7.51a5.37,5.37,0,0,0,.65-1.34c1.17-2.65,3.11-3.78,5.89-3.41a8.19,8.19,0,0,1,7,6.53c.23,1.1.25,2.24.4,3.72,2.38-1.08,3.79.48,5.27,1.82a37.52,37.52,0,0,1,3.3,3.12,72.8,72.8,0,0,0,19.84,15.57c2.09,1.17,4.08,2.52,6.08,3.84,1.17.77,1.81,1.85,1,3.21s-2,1.4-3.26.66c-8.26-4.85-16.92-9.08-23.61-16.23-2.91-3.11-6.08-6-9.34-9.16a15.24,15.24,0,0,1-9.65,5.8c-4.18.79-7.51-.12-9.65-4.59-7.26,4.69-14.31,9.48-21.6,13.88S1087.18,344.61,1080,348.64Zm-5.66,2.14c-2.28-.24-4.23-1.7-5.62.5s-2.17,4.51-.33,7.15C1071.71,357,1073.84,354.89,1074.35,350.78Zm54.14-29.4c3.25.81,5.48-.45,7.31-2.44,1-1.05,1.33-2.69.08-3.7a3.48,3.48,0,0,0-3,0A7.65,7.65,0,0,0,1128.49,321.38Z"/><path d="M1190,361.23a12.26,12.26,0,0,1-2.15-18,5.7,5.7,0,0,1,5.39-2c2.18.28,3.86,1,4.14,3.56.07.62.81,1.2,1.31,1.74,3.38,3.6,3.47,7.76.18,11.43a7.76,7.76,0,0,1-2.27,1.95c-2,.88-2.27,2.38-2.32,4.28-.19,7.3-.47,14.6-.76,21.9q-.39,9.62-.91,19.24c-.16,2.87-.9,4.06-2.16,3.71-2.06-.57-1.49-2.41-1.46-3.79.3-13.73.67-27.45,1-41.17C1190.05,363.19,1190,362.31,1190,361.23Zm1.45-11.9c-.47,2.44-1,4.22.39,5.88,2.06-.36,2.76-1.61,3.08-3.57Z"/><path d="M1411.84,439.53a15.49,15.49,0,0,1-1.09-3.56c-.81-13.85-1.67-27.67-.45-41.57.71-8.15.43-16.39.45-24.58s-.16-16.65-.24-25a7.25,7.25,0,0,1,0-1.14c1.15-8.95,1.07-7-6-11.24-13.53-8.08-27.06-16.18-40.74-24-9.73-5.57-19.66-10.81-29.6-16-7-3.63-7.07-3.57-13.85.14-12.82,7-25.59,14.15-38.38,21.24q-15.89,8.79-31.75,17.6c-2.2,1.23-4.25,2.73-6.48,3.9-1.83,1-2.3,2.37-2.43,4.29-1.46,21-2.2,42.06-2,63.13,0,6.93-.38,13.87-.42,20.8,0,3.9.32,7.8.43,11.71a3.53,3.53,0,0,0,1.81,3.09c1.17.74,2.34,1.5,3.54,2.18,5.81,3.3,11.59,6.66,17.46,9.83,4.21,2.28,8.49,4.46,12.86,6.38,13.31,5.85,25.79,13.23,38.44,20.3,2.43,1.35,4.88,2.65,7.23,4.12a9.24,9.24,0,0,1,3,2.74,3.55,3.55,0,0,1,0,3.07c-.58,1.06-1.87,1.13-3,.43-.32-.19-.64-.4-1-.58-11.57-6.44-23.09-13-34.72-19.29-5.64-3.07-11.61-5.55-17.2-8.71-5.15-2.9-10-6.33-15-9.56-5.27-3.42-10.56-6.81-15.74-10.36a5,5,0,0,1-1.84-3,37.48,37.48,0,0,1-.38-6.79c.41-16.64.91-33.28,1.3-49.92.18-7.44,0-14.89.27-22.32.23-6.29.87-12.57,1.34-18.86.15-1.88.44-3.44,3.08-3.22,1.07.08,2.29-.89,3.34-1.55,7.67-4.86,15.24-9.87,23-14.63,10-6.14,20.06-12.12,30.12-18.13,7.14-4.27,14.32-8.48,21.49-12.71,1.3-.77,2.57-1.61,3.94-2.25,2.88-1.34,3.43-1.09,5.61,1.39a7.27,7.27,0,0,0,2.49,1.54c23.66,10.73,47.33,21.41,68.84,36.25,4.86,3.35,10.1,6.15,15.22,9.12a4.72,4.72,0,0,1,2.38,4.76c-.27,6-.64,12.08-.81,18.12-.13,4.52-.19,9.05,0,13.57.71,16.39,1,32.77-.31,49.15-.43,5.52-.38,11.09-.49,16.63-.07,3.07-.45,3.45-3.86,3.37Z"/><path d="M1272,349.59c-.16,7.32-.61,8.26-6.24,13.92,1.7,14.83-.33,29.53-.86,44.25a6.68,6.68,0,0,1-.58,2.15c-.12.28-.57.42-.83.6-1.72-.34-1.39-1.66-1.38-2.71,0-5.05.21-10.1.16-15.14-.09-9.07-.3-18.14-.46-27.28-1.13-.28-1.83-.49-2.55-.62a5.6,5.6,0,0,1-4.48-4.15,12.09,12.09,0,0,1,2.94-12.59,6.18,6.18,0,0,1,5.1-2c2.18.12,4.37,0,6.3,0,5.07-3.3,10.06-6.69,15.21-9.84,6.76-4.15,13.64-8.12,20.49-12.13,2-1.14,4-2.22,6-3.24,1.66-.84,3.35-1.22,4.6.42,2.18-2.59,4.27-5,6.32-7.51a5.84,5.84,0,0,0,.64-1.33c1.17-2.66,3.12-3.79,5.89-3.42a8.18,8.18,0,0,1,7,6.54c.24,1.09.25,2.24.41,3.71,2.38-1.07,3.78.48,5.26,1.82a37.65,37.65,0,0,1,3.31,3.12c5.6,6.48,12.42,11.4,19.84,15.57,2.08,1.18,4.08,2.52,6.08,3.84,1.17.77,1.8,1.85,1,3.21s-2,1.4-3.27.66c-8.25-4.84-16.91-9.08-23.6-16.23-2.91-3.11-6.09-6-9.34-9.15a15.29,15.29,0,0,1-9.66,5.79c-4.17.79-7.51-.12-9.64-4.59-7.27,4.69-14.31,9.49-21.6,13.88S1279.16,345.55,1272,349.59Zm-5.67,2.13c-2.27-.24-4.23-1.7-5.61.5s-2.18,4.51-.34,7.15C1263.68,357.94,1265.82,355.83,1266.32,351.72Zm54.14-29.4c3.26.82,5.49-.45,7.32-2.44,1-1.05,1.33-2.69.08-3.7a3.5,3.5,0,0,0-3,0A7.7,7.7,0,0,0,1320.46,322.32Z"/><path d="M1382,362.17a12.26,12.26,0,0,1-2.15-18,5.72,5.72,0,0,1,5.4-2c2.18.28,3.85,1,4.14,3.57.07.62.81,1.19,1.31,1.73,3.37,3.6,3.47,7.76.17,11.43a7.38,7.38,0,0,1-2.27,1.95c-1.94.88-2.26,2.38-2.31,4.28-.19,7.3-.47,14.6-.77,21.9q-.39,9.62-.9,19.24c-.16,2.88-.9,4.06-2.17,3.71-2-.57-1.48-2.41-1.45-3.79.29-13.73.66-27.45,1-41.17C1382,364.13,1382,363.25,1382,362.17Zm1.46-11.9c-.48,2.44-1.06,4.22.38,5.88,2.06-.35,2.77-1.61,3.09-3.57Z"/><path d="M1588.74,434.58a15.31,15.31,0,0,1-1.06-3.42c-.79-13.29-1.63-26.56-.44-39.9.69-7.82.42-15.72.44-23.59s-.15-16-.24-24a7.74,7.74,0,0,1,0-1.08c1.13-8.6,1-6.73-5.91-10.8-13.24-7.76-26.48-15.53-39.87-23-9.52-5.34-19.24-10.37-29-15.36-6.8-3.48-6.92-3.42-13.55.14-12.55,6.74-25,13.58-37.57,20.38q-15.54,8.44-31.07,16.89c-2.15,1.18-4.16,2.62-6.34,3.75-1.79.92-2.25,2.28-2.38,4.11-1.43,20.18-2.15,40.37-2,60.6.05,6.65-.37,13.31-.41,20,0,3.74.31,7.49.41,11.24a3.4,3.4,0,0,0,1.78,3c1.15.71,2.29,1.43,3.47,2.09,5.68,3.16,11.33,6.39,17.08,9.43,4.12,2.18,8.31,4.28,12.59,6.13,13,5.61,25.24,12.69,37.62,19.48,2.37,1.3,4.78,2.54,7.07,4a9.16,9.16,0,0,1,3,2.63,3.39,3.39,0,0,1,0,2.95c-.57,1-1.84,1.08-3,.41l-1-.56c-11.32-6.18-22.6-12.44-34-18.51-5.52-2.95-11.36-5.33-16.83-8.36-5-2.78-9.79-6.08-14.65-9.17-5.16-3.29-10.34-6.54-15.41-9.95a4.69,4.69,0,0,1-1.79-2.88,34.51,34.51,0,0,1-.38-6.51c.4-16,.9-31.95,1.28-47.92.17-7.14,0-14.29.26-21.42.22-6,.85-12.07,1.31-18.1.14-1.8.43-3.3,3-3.09,1,.08,2.24-.86,3.26-1.49,7.51-4.67,14.92-9.47,22.49-14,9.76-5.89,19.63-11.63,29.47-17.4,7-4.1,14-8.14,21-12.2,1.27-.73,2.52-1.54,3.86-2.15,2.82-1.29,3.36-1.06,5.49,1.32a7.14,7.14,0,0,0,2.43,1.49c23.16,10.29,46.33,20.54,67.38,34.78,4.76,3.22,9.89,5.91,14.89,8.76a4.48,4.48,0,0,1,2.33,4.57c-.26,5.79-.62,11.59-.79,17.39-.13,4.33-.18,8.69,0,13,.69,15.73,1,31.45-.3,47.18-.43,5.3-.37,10.64-.49,16-.06,2.95-.44,3.31-3.77,3.23Z"/><path d="M1451.87,348.25c-.15,7-.59,7.93-6.1,13.37,1.66,14.23-.32,28.33-.84,42.46a6.39,6.39,0,0,1-.57,2.07c-.11.26-.55.4-.81.57-1.68-.32-1.36-1.59-1.35-2.6,0-4.84.2-9.69.16-14.53-.09-8.7-.3-17.41-.46-26.18-1.1-.27-1.79-.47-2.49-.6a5.43,5.43,0,0,1-4.39-4,11.45,11.45,0,0,1,2.88-12.08,6.15,6.15,0,0,1,5-1.95c2.14.12,4.28,0,6.17,0,5-3.17,9.85-6.43,14.88-9.45,6.63-4,13.36-7.79,20.06-11.64,1.92-1.1,3.87-2.13,5.85-3.11,1.63-.8,3.28-1.17,4.5.41,2.14-2.49,4.18-4.83,6.19-7.21a5.65,5.65,0,0,0,.63-1.28,5,5,0,0,1,5.76-3.28,7.94,7.94,0,0,1,6.85,6.27,35.46,35.46,0,0,1,.4,3.57c2.33-1,3.7.46,5.15,1.75a33.93,33.93,0,0,1,3.23,3A71,71,0,0,0,1542,338.79c2,1.13,4,2.42,6,3.68,1.15.74,1.77,1.78,1,3.09s-2,1.34-3.19.63c-8.08-4.65-16.56-8.71-23.1-15.57-2.85-3-6-5.74-9.15-8.79a15,15,0,0,1-9.45,5.56c-4.08.76-7.35-.11-9.43-4.4-7.12,4.5-14,9.1-21.14,13.31S1458.9,344.38,1451.87,348.25Zm-5.54,2.05c-2.22-.23-4.14-1.63-5.49.48s-2.13,4.33-.33,6.86C1443.75,356.27,1445.84,354.24,1446.33,350.3Zm53-28.22c3.19.78,5.36-.43,7.16-2.34,1-1,1.3-2.58.08-3.55a3.51,3.51,0,0,0-3,0A7.36,7.36,0,0,0,1499.32,322.08Z"/><path d="M279.75,439.53a16,16,0,0,1-1.09-3.56c-.8-13.85-1.66-27.67-.45-41.57.71-8.15.43-16.39.45-24.58s-.15-16.65-.24-25a8.7,8.7,0,0,1,.05-1.14c1.16-8.95,1.08-7-6-11.24-13.53-8.08-27.05-16.18-40.73-24-9.74-5.57-19.67-10.81-29.61-16-6.94-3.63-7.07-3.57-13.84.14-12.83,7-25.6,14.15-38.39,21.24q-15.87,8.79-31.75,17.6c-2.2,1.23-4.25,2.73-6.48,3.9-1.82,1-2.29,2.37-2.43,4.29-1.46,21-2.2,42.06-2,63.13.06,6.93-.37,13.87-.41,20.8,0,3.9.32,7.8.42,11.71a3.54,3.54,0,0,0,1.82,3.09c1.17.74,2.34,1.5,3.54,2.18,5.81,3.3,11.58,6.66,17.46,9.83,4.21,2.28,8.48,4.46,12.86,6.38,13.3,5.85,25.79,13.23,38.44,20.3,2.42,1.35,4.88,2.65,7.23,4.12a9.24,9.24,0,0,1,3,2.74,3.59,3.59,0,0,1,0,3.07c-.58,1.06-1.88,1.13-3,.43-.33-.19-.65-.4-1-.58-11.56-6.44-23.08-13-34.71-19.29-5.65-3.07-11.62-5.55-17.21-8.71-5.15-2.9-10-6.33-15-9.56-5.27-3.42-10.57-6.81-15.75-10.36a5,5,0,0,1-1.83-3,35.76,35.76,0,0,1-.38-6.79c.4-16.64.91-33.28,1.3-49.92.17-7.44,0-14.89.26-22.32.23-6.29.87-12.57,1.35-18.86.14-1.88.43-3.44,3.08-3.22,1.07.08,2.29-.89,3.33-1.55,7.67-4.86,15.25-9.87,23-14.63,10-6.14,20.06-12.12,30.12-18.13,7.14-4.27,14.32-8.48,21.48-12.71,1.3-.77,2.58-1.61,3.94-2.25,2.89-1.34,3.44-1.09,5.61,1.39a7.36,7.36,0,0,0,2.49,1.54c23.66,10.73,47.34,21.41,68.85,36.25,4.86,3.35,10.1,6.15,15.22,9.12a4.71,4.71,0,0,1,2.37,4.76c-.27,6-.63,12.08-.81,18.12-.13,4.52-.18,9.05,0,13.57.71,16.39,1,32.77-.3,49.15-.44,5.52-.38,11.09-.5,16.63-.06,3.07-.45,3.45-3.85,3.37Z"/><path d="M139.9,349.59c-.16,7.32-.6,8.26-6.23,13.92,1.69,14.83-.33,29.53-.87,44.25a6.43,6.43,0,0,1-.58,2.15c-.11.28-.56.42-.82.6-1.72-.34-1.39-1.66-1.39-2.71,0-5.05.21-10.1.17-15.14-.09-9.07-.3-18.14-.47-27.28-1.13-.28-1.83-.49-2.54-.62a5.61,5.61,0,0,1-4.49-4.15A12.09,12.09,0,0,1,125.63,348a6.17,6.17,0,0,1,5.09-2c2.18.12,4.37,0,6.31,0,5.07-3.3,10.06-6.69,15.2-9.84,6.77-4.15,13.65-8.12,20.5-12.13,2-1.14,4-2.22,6-3.24,1.66-.84,3.36-1.22,4.6.42,2.19-2.59,4.27-5,6.32-7.51a5.48,5.48,0,0,0,.65-1.33c1.17-2.66,3.11-3.79,5.89-3.42a8.18,8.18,0,0,1,7,6.54c.23,1.09.25,2.24.4,3.71,2.38-1.07,3.79.48,5.27,1.82a37.52,37.52,0,0,1,3.3,3.12A72.8,72.8,0,0,0,232,339.73c2.09,1.18,4.08,2.52,6.08,3.84,1.17.77,1.81,1.85,1,3.21s-2,1.4-3.26.66c-8.26-4.84-16.92-9.08-23.61-16.23-2.91-3.11-6.08-6-9.34-9.15a15.27,15.27,0,0,1-9.65,5.79c-4.18.79-7.51-.12-9.65-4.59-7.26,4.69-14.31,9.49-21.6,13.88S147.07,345.55,139.9,349.59Zm-5.66,2.13c-2.28-.24-4.23-1.7-5.62.5s-2.17,4.51-.33,7.15C131.6,357.94,133.73,355.83,134.24,351.72Zm54.14-29.4c3.25.82,5.48-.45,7.31-2.44,1-1.05,1.33-2.69.08-3.7a3.48,3.48,0,0,0-3,0A7.66,7.66,0,0,0,188.38,322.32Z"/><path d="M249.92,362.17a12.26,12.26,0,0,1-2.15-18,5.7,5.7,0,0,1,5.39-2c2.18.28,3.86,1,4.14,3.57.07.62.81,1.19,1.31,1.73,3.38,3.6,3.47,7.76.18,11.43a7.61,7.61,0,0,1-2.27,1.95c-1.95.88-2.27,2.38-2.32,4.28-.19,7.3-.47,14.6-.76,21.9q-.39,9.62-.91,19.24c-.16,2.88-.9,4.06-2.16,3.71-2.06-.57-1.49-2.41-1.46-3.79q.45-20.6,1-41.17C249.94,364.13,249.92,363.25,249.92,362.17Zm1.45-11.9c-.47,2.44-1.05,4.22.39,5.88,2.06-.35,2.76-1.61,3.08-3.57Z"/></g></g></svg>